<svg xmlns="http://www.w3.org/2000/svg" width="400" height="354.341" viewBox="0 0 400 354.341"><g transform="translate(-336.744 -213.448)"><g transform="translate(336.744 302.793)"><ellipse cx="200" cy="121.604" rx="200" ry="121.604" fill="#fd705c"/></g><g transform="translate(371.777 213.448)"><path d="M452.868,361.267a298.3,298.3,0,0,0,75.408-9.432,303.4,303.4,0,0,0-19.228-45.357H395.434a479.118,479.118,0,0,0-15.869,46.638C402.048,358.788,427.012,361.267,452.868,361.267Z" transform="translate(-286.744 -28.713)" fill="#0f0d40" stroke="#070707" stroke-miterlimit="10" stroke-width="0.317"/><g transform="translate(34.115 60.145)"><g transform="translate(25.091 7.852)"><path d="M373.005,239.034c1.974,1.986,3.144,4.025,2.613,4.55s-2.556-.66-4.532-2.648-3.141-4.028-2.612-4.553S371.031,237.043,373.005,239.034Z" transform="translate(-368.23 -236.15)" fill="#26161d"/><path d="M375.33,243.89a3.289,3.289,0,0,1-1.421-.519,14.769,14.769,0,0,1-2.828-2.284c-1.768-1.783-3.284-4.04-2.613-4.706s2.914.869,4.685,2.648a14.648,14.648,0,0,1,2.26,2.845c.37.642.729,1.484.352,1.857A.59.59,0,0,1,375.33,243.89Zm-6.422-7.449a.4.4,0,0,0-.284.093c-.418.415.552,2.323,2.613,4.4a14.54,14.54,0,0,0,2.786,2.251c.785.46,1.382.609,1.594.4s.069-.806-.385-1.6a14.407,14.407,0,0,0-2.227-2.8h0c-1.75-1.765-3.386-2.744-4.094-2.744Z" transform="translate(-368.307 -236.222)" fill="#26161d"/></g><g transform="translate(0 7.921)"><path d="M392.276,243.5,367.1,268.475l-7.142-7.2L385.131,236.3l1.126,1.526a6.541,6.541,0,0,0,1.588,1.526l.7.472a1.22,1.22,0,0,1,.4.445l.5.938a3.858,3.858,0,0,0,1.514,1.55Z" transform="translate(-359.8 -236.136)" fill="#f0eee0"/><path d="M367.2,268.736l-7.294-7.354.078-.078,25.266-25.06,1.2,1.627a6.488,6.488,0,0,0,1.562,1.5l.7.472a1.337,1.337,0,0,1,.433.481l.5.938a3.738,3.738,0,0,0,1.469,1.508l1.442.815-.1.1Zm-6.99-7.354,6.993,7.052,25-24.794-1.194-.675a3.976,3.976,0,0,1-1.556-1.594l-.5-.938a1.16,1.16,0,0,0-.364-.406l-.7-.472a6.567,6.567,0,0,1-1.612-1.562l-1.051-1.424Z" transform="translate(-359.903 -236.245)" fill="#26161d"/></g><g transform="translate(26.251)"><g transform="translate(7.726)"><path d="M371.374,234.36c.078.385.215.684.3.663s.1-.346.018-.731-.215-.684-.3-.663S371.293,233.975,371.374,234.36Z" transform="translate(-371.213 -233.521)" fill="#0f0d40"/><path d="M371.737,235.2c-.116,0-.188-.137-.242-.245a2.271,2.271,0,0,1-.155-.508h0c-.048-.239-.137-.809.1-.857s.379.508.427.749.137.809-.1.857Zm-.239-1.317a2.212,2.212,0,0,0,.051.523h0a2.284,2.284,0,0,0,.158.5,2.418,2.418,0,0,0-.209-1.024Z" transform="translate(-371.283 -233.592)" fill="#26161d"/></g><g transform="translate(0 1.931)"><path d="M368.761,234.629c.057.164.173.272.257.242s.108-.191.051-.349-.17-.272-.257-.242S368.707,234.464,368.761,234.629Z" transform="translate(-368.625 -234.168)" fill="#0f0d40"/><path d="M369.062,235.052c-.128,0-.263-.125-.328-.317h0c-.081-.227-.03-.436.116-.487s.313.084.394.307.027.436-.116.487A.25.25,0,0,1,369.062,235.052Zm-.125-.388c.039.116.1.173.125.173a.412.412,0,0,0-.021-.209c-.042-.119-.1-.173-.128-.176a.467.467,0,0,0,.021.212Z" transform="translate(-368.695 -234.239)" fill="#26161d"/></g><g transform="translate(5.39 5.834)"><path d="M370.568,235.937c.057.164.17.272.257.242s.107-.191.051-.349-.17-.272-.257-.242S370.511,235.772,370.568,235.937Z" transform="translate(-370.429 -235.474)" fill="#0f0d40"/><path d="M370.866,236.361a.276.276,0,0,1-.185-.081.6.6,0,0,1-.143-.236h0a.572.572,0,0,1-.033-.275.223.223,0,0,1,.4-.14.655.655,0,0,1,.179.514.251.251,0,0,1-.149.209A.248.248,0,0,1,370.866,236.361Zm-.125-.388a.285.285,0,0,0,.125.173.385.385,0,0,0-.021-.209c-.042-.116-.108-.173-.125-.173a.384.384,0,0,0,.018.209Z" transform="translate(-370.5 -235.546)" fill="#26161d"/></g><g transform="translate(8.646 12.929)"><path d="M371.658,238.314c.057.161.173.269.257.239s.108-.188.051-.349-.17-.269-.257-.239S371.6,238.149,371.658,238.314Z" transform="translate(-371.52 -237.848)" fill="#0f0d40"/><path d="M371.955,238.74a.28.28,0,0,1-.185-.084.642.642,0,0,1-.176-.511.223.223,0,0,1,.221-.224.225.225,0,0,1,.176.087.645.645,0,0,1,.179.511.247.247,0,0,1-.149.209A.17.17,0,0,1,371.955,238.74Zm-.149-.6a.465.465,0,0,0,.021.212c.042.116.107.17.128.173a.448.448,0,0,0-.021-.209c-.042-.119-.107-.173-.128-.173Z" transform="translate(-371.591 -237.922)" fill="#26161d"/></g></g></g><g transform="translate(257.287 56.333)"><g transform="translate(4.412 10.596)"><path d="M438.872,238.645c-1.95,1.965-3.108,3.98-2.583,4.5s2.529-.654,4.479-2.622,3.108-3.98,2.583-4.5S440.822,236.678,438.872,238.645Z" transform="translate(-436.054 -235.792)" fill="#26161d"/><path d="M436.729,243.453a.6.6,0,0,1-.442-.158c-.663-.663.833-2.89,2.583-4.652s3.965-3.281,4.631-2.621-.833,2.89-2.583,4.652C439.455,242.148,437.663,243.453,436.729,243.453Zm6.339-7.372c-.7,0-2.317.964-4.049,2.708-2.039,2.054-3,3.941-2.583,4.353s2.29-.567,4.329-2.618,3-3.941,2.583-4.353a.392.392,0,0,0-.278-.093Z" transform="translate(-436.126 -235.864)" fill="#26161d"/></g><g transform="translate(4.471 10.664)"><path d="M436.205,243.066,461.1,267.755l7.064-7.121-24.892-24.692-1.078,1.463A6.757,6.757,0,0,1,440.537,239h0a4.347,4.347,0,0,0-1.4,1.559h0a4.773,4.773,0,0,1-1.863,1.908Z" transform="translate(-436.029 -235.778)" fill="#f0eee0"/><path d="M461.214,268.014l-.075-.075-24.994-24.791,1.188-.672a4.649,4.649,0,0,0,1.821-1.869,4.493,4.493,0,0,1,1.436-1.594,6.669,6.669,0,0,0,1.63-1.568l1.15-1.559,25.057,24.854-.075.075ZM436.5,243.2l24.719,24.516,6.915-6.972L443.4,236.215l-1,1.362a6.925,6.925,0,0,1-1.684,1.615,4.258,4.258,0,0,0-1.367,1.52,4.893,4.893,0,0,1-1.9,1.953Z" transform="translate(-436.146 -235.887)" fill="#26161d"/></g><g transform="translate(12.819 18.935)"><path d="M438.993,245.829l17.222,17.088a2.178,2.178,0,0,0,3.078-.009l0,0h0l3.995-4.031a2.172,2.172,0,0,0-.009-3.075l0,0-17.222-17.088-3.628,3.658Z" transform="translate(-438.841 -238.556)" fill="#ff8500"/><path d="M457.854,263.755a2.285,2.285,0,0,1-1.609-.663l-17.3-17.162,7.214-7.273.075.078,17.222,17.085a2.289,2.289,0,0,1,.012,3.234l-3.989,4.028A2.277,2.277,0,0,1,457.854,263.755Zm-18.61-17.825,17.15,17.013a2.078,2.078,0,0,0,2.935-.012h0l3.992-4.025a2.071,2.071,0,0,0-.012-2.932h0l-17.153-17.016Z" transform="translate(-438.942 -238.657)" fill="#26161d"/></g><g transform="translate(3.164 10.727)"><path d="M436.112,236.666c-.078.379-.212.675-.3.663s-.1-.34-.015-.723.212-.678.3-.663S436.19,236.284,436.112,236.666Z" transform="translate(-435.638 -235.839)" fill="#0f0d40"/><path d="M435.893,237.5h-.03c-.134-.027-.152-.2-.155-.325a2.742,2.742,0,0,1,.209-1.024c.054-.116.137-.266.272-.239.236.048.146.609.1.851a2.445,2.445,0,0,1-.152.5C436.084,237.362,436.01,237.5,435.893,237.5Zm.236-1.3a2.467,2.467,0,0,0-.206,1.012A2.505,2.505,0,0,0,436.129,236.195Z" transform="translate(-435.708 -235.908)" fill="#26161d"/></g><g transform="translate(4.11 3.736)"><path d="M436.432,234.326c-.081.379-.212.678-.3.663s-.1-.34-.015-.723.212-.675.3-.663S436.51,233.944,436.432,234.326Z" transform="translate(-435.954 -233.495)" fill="#0f0d40"/><path d="M436.213,235.162h-.033c-.236-.048-.146-.609-.1-.851a2.422,2.422,0,0,1,.152-.5c.054-.116.134-.269.269-.239s.155.2.155.325a2.37,2.37,0,0,1-.054.523h0a2.488,2.488,0,0,1-.152.5C436.4,235.028,436.327,235.162,436.213,235.162Zm.233-1.3a2.411,2.411,0,0,0-.206,1.012,2.074,2.074,0,0,0,.155-.5h0a2.019,2.019,0,0,0,.051-.519Z" transform="translate(-436.025 -233.567)" fill="#26161d"/></g><path d="M435.021,232.7c-.057.161-.17.269-.257.239s-.1-.182-.048-.346.17-.266.254-.236S435.071,232.538,435.021,232.7Z" transform="translate(-434.577 -232.246)" fill="#0f0d40"/><path d="M434.862,233.117a.226.226,0,0,1-.063-.009.244.244,0,0,1-.146-.209.564.564,0,0,1,.033-.272c.078-.221.245-.352.388-.3s.188.254.116.478a.509.509,0,0,1-.227.29A.232.232,0,0,1,434.862,233.117Zm.134-.594a.393.393,0,0,0-.11.173.27.27,0,0,0-.009.215.419.419,0,0,0,.11-.176h0A.262.262,0,0,0,435,232.523Z" transform="translate(-434.649 -232.315)" fill="#26161d"/><g transform="translate(8.406 7.912)"><path d="M437.835,235.348c-.057.164-.17.269-.257.239s-.1-.182-.048-.343.167-.269.254-.239S437.892,235.19,437.835,235.348Z" transform="translate(-437.395 -234.897)" fill="#0f0d40"/><path d="M437.677,235.768a.156.156,0,0,1-.063-.012.243.243,0,0,1-.146-.206.617.617,0,0,1,.176-.5.238.238,0,0,1,.242-.072c.146.051.194.257.116.481h0a.545.545,0,0,1-.143.23A.266.266,0,0,1,437.677,235.768Zm.134-.6a.4.4,0,0,0-.11.176.269.269,0,0,0-.009.215.43.43,0,0,0,.11-.179A.262.262,0,0,0,437.811,235.171Z" transform="translate(-437.464 -234.965)" fill="#26161d"/></g><g transform="translate(2.51 17.216)"><path d="M435.86,238.465c-.054.161-.167.269-.251.239s-.107-.182-.051-.343.167-.269.254-.239S435.916,238.306,435.86,238.465Z" transform="translate(-435.415 -238.012)" fill="#0f0d40"/><path d="M435.707,238.884a.116.116,0,0,1-.063-.009.207.207,0,0,1-.119-.11.488.488,0,0,1,0-.367c.078-.224.242-.355.388-.3a.252.252,0,0,1,.149.206.645.645,0,0,1-.033.272h0a.588.588,0,0,1-.143.233A.27.27,0,0,1,435.707,238.884Zm.134-.594a.382.382,0,0,0-.114.176.276.276,0,0,0-.006.212.4.4,0,0,0,.111-.176A.263.263,0,0,0,435.841,238.289Z" transform="translate(-435.489 -238.081)" fill="#26161d"/></g></g><path d="M382.53,340.18a.482.482,0,0,1-.027-.964c1.17-.066,28.672-1.887,28.672-30.87a.483.483,0,0,1,.964,0c0,29.905-29.284,31.816-29.583,31.831Z" transform="translate(-281.842 -25.917)" fill="#fff"/><path d="M445.64,340.208h-.024c-.3-.015-29.586-1.926-29.586-31.831a.484.484,0,0,1,.967-.045v.045c0,29,28.383,30.849,28.672,30.867a.482.482,0,1,1-.027.964h0Z" transform="translate(-214.334 -25.945)" fill="#fff"/><g transform="translate(108.209 259.752)"><path d="M392.438,300.607l-7.557,17.529H498.492l-8.226-17.529Z" transform="translate(-384.397 -300.123)" fill="#0f0d40" stroke="#070707" stroke-miterlimit="10" stroke-width="0.317"/><path d="M498.814,318.939H385.2a.481.481,0,0,1-.484-.481.442.442,0,0,1,.039-.194l7.56-17.526a.478.478,0,0,1,.442-.293h97.828a.484.484,0,0,1,.439.278l8.223,17.529a.479.479,0,0,1-.436.687Zm-112.88-.964H498.053l-7.772-16.562h-97.2Z" transform="translate(-384.719 -300.445)" fill="#fff"/></g><path d="M407.107,353.326h-3.959a.483.483,0,0,1-.484-.481v-44.47a.484.484,0,0,1,.967-.042v44.028h3.475a5.349,5.349,0,0,0,5.341-5.342V308.376a.483.483,0,1,1,.964-.042.1.1,0,0,1,0,.042V347.02A6.312,6.312,0,0,1,407.107,353.326Z" transform="translate(-240.876 -25.947)" fill="#fff"/><path d="M420.327,304.277h-33.5a.484.484,0,0,1,0-.967h33.5a.484.484,0,0,1,.042.967Z" transform="translate(-273.243 -35.006)" fill="#fff"/><path d="M438.418,304.276H413.3a.484.484,0,1,1-.042-.967h25.155a.484.484,0,0,1,0,.967Z" transform="translate(-220.748 -35.006)" fill="#fff"/><g transform="translate(50.686 118.645)"><path d="M563.146,283.1a46.756,46.756,0,0,0-25.457-18.78l-31.228-9.369a41.781,41.781,0,0,0-12-1.762H465.849a43.511,43.511,0,0,0-12.48,1.83l-30.992,9.3A46.745,46.745,0,0,0,396.929,283.1l-31.342,46.909a.8.8,0,0,0,.134,1.042l43.356,38.143a.8.8,0,0,0,1.126-.072.841.841,0,0,0,.116-.173l9.486-19.091a.8.8,0,0,1,1.517.3l2.786,43.87a.794.794,0,0,0,.794.743h110.27a.794.794,0,0,0,.794-.743l2.789-43.87a.8.8,0,0,1,1.508-.3l9.489,19.091a.8.8,0,0,0,1.069.358.825.825,0,0,0,.173-.113l43.356-38.143a.8.8,0,0,0,.134-1.042Z" transform="translate(-365.453 -253.185)" fill="#ff4b5d" stroke="#020202" stroke-miterlimit="10" stroke-width="0.317"/><g transform="translate(53.339 9.481)"><path d="M441.329,287a.821.821,0,0,1-.122-.009c-46.769-1.824-56.165-29.419-56.255-29.7a.725.725,0,0,1,1.379-.445c.087.269,9.241,26.925,54.965,28.693h.069c45.721-1.768,54.875-28.424,54.962-28.693a.725.725,0,0,1,1.38.445c-.1.278-9.48,27.848-56.186,29.693a.574.574,0,0,1-.158.012Z" transform="translate(-380.132 -256.36)" fill="#161616"/><path d="M384.042,305.379a.741.741,0,0,1-.364-.1.726.726,0,0,1-.26-.994h0l15.959-27.269a.726.726,0,0,1,1.26.72l-.009.012L384.668,305.02A.732.732,0,0,1,384.042,305.379Z" transform="translate(-383.318 -216.066)" fill="#161616"/><path d="M434.672,304.664a.73.73,0,0,1-.63-.361l-15.457-26.54a.725.725,0,1,1,1.221-.782l.033.054,15.457,26.54a.729.729,0,0,1-.26.991.761.761,0,0,1-.367.1Z" transform="translate(-313.511 -216.08)" fill="#161616"/></g></g><path d="M527.835,296.4c-3.216-2.251-6.936-4.24-9.2-7.02-3.344-4.105-2.947-9.157-2.926-13.9s-.732-9.984-5.557-13.254c-3.266-2.212-7.951-3.165-11.023-5.515a15.537,15.537,0,0,1-3.774-4.574c-1.251-2.072-2.389-4.186-3.583-6.276.2-.146.4-.284.6-.439,8.044-6.354,10.37-16.234,5.192-22.068-3.374-3.8-9.1-4.927-14.9-3.511a10.531,10.531,0,0,0-7.366-6.2c-5.5-1.108-11.191,2.783-13.887,9.008-.478-.027-.961-.036-1.445-.03a19.585,19.585,0,0,0-15.9-7.936h0c-24.647-.009-34.5,13.317-38.4,25.03a37.322,37.322,0,0,0-2.962,4.637,30.8,30.8,0,0,0-3.613,11.716c-.275,3.022-.078,6.091-1.033,9.041-1.636,5.055-6.557,9.462-7.2,14.627-.678,5.434,3.52,10.7,3.066,16.147-.8,9.593-15.541,16.756-14.851,26.355a5.4,5.4,0,0,0,2.717,4.526c1.684.946,3.953,1.108,6.091,1.194,14.669.6,29.335-.732,44.016-1.215,18.515-.606,37.059.134,55.565.872l51.015,2.039a4.568,4.568,0,0,0,1.926-.2,2.227,2.227,0,0,0,1.206-1.663C544.609,316.57,539.262,304.391,527.835,296.4Z" transform="translate(-287.757 -213.448)" fill="#26161d"/><g transform="translate(120.706 32.954)"><path d="M452.864,309.6l-1.03-38.824,2.986.1a12.067,12.067,0,0,0,12.415-11.644l.009-.275a12.083,12.083,0,0,0-11.582-12.486l-3.52-.122-1.427.066c-11.922.534-22.477-8.656-26.809-21.933-1.69,1.015-3.4,2.024-5.1,3-6.2,3.574-17.3,2.616-26.221,5.24l-3.532,34.414A27.081,27.081,0,0,0,413.112,296.9l.227.024-.075,12.884-24.358,7.232s7.028,21.883,44.458,23.331v.006h.1v-.006c37.429-1.448,44.458-23.331,44.458-23.331Z" transform="translate(-388.904 -224.485)" fill="#f5b7b1" stroke="#191919" stroke-miterlimit="10" stroke-width="0.317"/><path d="M414.954,243.082a.751.751,0,0,1-.4-.116l-3.917-2.571a.727.727,0,0,1-.206-1.006.558.558,0,0,1,.063-.084l4.186-4.685a.725.725,0,0,1,1.084.964l-3.628,4.058,3.216,2.108a.725.725,0,0,1-.4,1.332Z" transform="translate(-346.391 -204.84)" fill="#26161d"/><path d="M397.136,252.941s20.611,2.1,24.367-6.282h0s.7,12.982-24.438,18.607Z" transform="translate(-372.701 -180.453)" fill="#26161d"/><g transform="translate(1.295 13.907)"><path d="M389.921,235.131a2.544,2.544,0,1,0,3.09-1.854A2.545,2.545,0,0,0,389.921,235.131Z" transform="translate(-388.333 -221.085)" fill="#26161d"/><path d="M397.55,235.724a2.544,2.544,0,1,0,2.529-2.577A2.544,2.544,0,0,0,397.55,235.724Z" transform="translate(-373.031 -221.191)" fill="#26161d"/><g transform="translate(16.74 23.68)"><path d="M396.5,246.426c-.284,0-.567-.006-.866-.018a.725.725,0,0,1,.06-1.448c3.583.14,6.27-.648,7.978-2.347a7.048,7.048,0,0,0,1.98-4.786.728.728,0,0,1,.7-.752.716.716,0,0,1,.749.678v.015a8.407,8.407,0,0,1-2.383,5.855C402.861,245.485,400.1,246.426,396.5,246.426Z" transform="translate(-394.945 -237.074)" fill="#26161d"/></g><g transform="translate(11.436 44.725)"><path d="M393.513,245.4a.479.479,0,0,0,.323-.015,4.1,4.1,0,0,1,4.544.985.482.482,0,0,0,.681.042l0,0a.486.486,0,0,0,.039-.687,5.148,5.148,0,0,0-5.64-1.236.487.487,0,0,0,.051.914Z" transform="translate(-393.168 -244.122)" fill="#26161d" opacity="0.71" style="isolation:isolate"/></g><g transform="translate(22.461)"><path d="M397.393,232.243a7.319,7.319,0,0,1,2.914-.979c1.075-.212,2.147-.448,3.072-.687s1.989-.549,3.031-.884a7.31,7.31,0,0,1,3.019-.546c.884.134,1.46,1.018.827,2.454-.585,1.388-2.574,3.243-5.643,4.043-3.066.782-5.676.1-6.826-.833C396.575,233.849,396.673,232.789,397.393,232.243Z" transform="translate(-396.861 -229.143)" fill="#26161d"/></g><g transform="translate(0 0.58)"><path d="M398.3,232.3a4.454,4.454,0,0,0-1.923-.9c-.726-.212-1.448-.445-2.066-.672s-1.326-.519-2.009-.827a4.427,4.427,0,0,0-2.045-.567c-.627.06-1.123.72-.83,1.857a5.465,5.465,0,0,0,3.5,3.392,5.384,5.384,0,0,0,4.834-.325C398.7,233.58,398.74,232.759,398.3,232.3Z" transform="translate(-389.338 -229.337)" fill="#26161d"/></g><g transform="translate(6.703 7.235)"><path d="M398.343,250.155a6.774,6.774,0,0,1-6.76-6.757,2.6,2.6,0,0,1,2.577-2.619,3.03,3.03,0,0,0,2.995-3.051l-.033-5.434a.723.723,0,0,1,.723-.729h0a.722.722,0,0,1,.723.72l.033,5.437a4.479,4.479,0,0,1-4.434,4.505,1.152,1.152,0,0,0-1.138,1.161,5.332,5.332,0,0,0,1.579,3.774,5.254,5.254,0,0,0,3.732,1.544h.033l2.192-.015h0a.726.726,0,0,1,.006,1.451h0l-2.191.012Z" transform="translate(-391.583 -231.566)" fill="#26161d"/></g></g><path d="M412.02,235.736" transform="translate(-343.002 -202.143)" fill="none" stroke="#ff673e" stroke-linecap="round" stroke-linejoin="round" stroke-width="0.475"/></g><g transform="translate(236.913 56.167)"><path d="M520.1,265.773,511.916,233.5a1.518,1.518,0,0,0-1.776-1.209,1.489,1.489,0,0,0-.678.313l-.507.412a9.48,9.48,0,0,0-3.47,8.181l.5,10.241-7.175-16.816a1.3,1.3,0,0,0-1.657-.785,1.315,1.315,0,0,0-.526.355l-.379.415a8.077,8.077,0,0,0-1.842,7.339l3.081,14.146a8.008,8.008,0,0,0-4.625-2.744l-20.16-3.9a1.129,1.129,0,0,0-1.323.9,1.155,1.155,0,0,0-.018.137l-.191,2.735a7.648,7.648,0,0,0,5.419,7.853l9.958,2.765a6.581,6.581,0,0,1,4.425,4.1l.917,8.4c-.92,2.183-3.105,4.156-7.826,4.753a11.1,11.1,0,0,1-1.648-.573l-4.81-6.148-.143-.514a17.072,17.072,0,0,0-9.157-10.832l-1.108-.52a2.717,2.717,0,0,0-3.8,3.105l4.3,17.52a52.729,52.729,0,0,0,3.087,8.077c.955,2.165,3.431,7.118,3.529,7.118l.039-.006.5,11.059v0l-.633,3.081L458.7,382.569l-30.876,27.577s33.2,58.5,72.855,23.77C524.376,413.164,513,299.84,512.232,299.75l8.184-25.582C521.375,272.562,520.482,267.606,520.1,265.773Z" transform="translate(-427.825 -232.26)" fill="#f5b7b1" stroke="#191919" stroke-miterlimit="10" stroke-width="0.317"/></g><g transform="translate(303.007 77.13)"><path d="M455.218,253.8a.527.527,0,0,1-.522-.451l-1.436-9.614a4.094,4.094,0,0,0-2.186-3.036l-.824-.421a.528.528,0,1,1,.481-.941h0l.824.421a5.157,5.157,0,0,1,2.75,3.822l1.436,9.614a.53.53,0,0,1-.442.6h0Z" transform="translate(-449.961 -239.281)" fill="#26161d"/></g><g transform="translate(314.291 73.388)"><line x2="3.263" y2="10.8" transform="translate(0.725 0.722)" fill="none"/><path d="M457.728,250.277a.726.726,0,0,1-.693-.517l-3.263-10.8a.724.724,0,1,1,1.385-.418h0l3.264,10.8a.729.729,0,0,1-.49.9A.925.925,0,0,1,457.728,250.277Z" transform="translate(-453.74 -238.027)" fill="#26161d"/></g><g transform="translate(262.759 184.07)"><line x1="9.102" y2="40.959" transform="translate(0.725 0.727)" fill="none"/><path d="M437.206,317.509a.727.727,0,0,1-.708-.884l9.1-40.959a.728.728,0,0,1,1.421.314h0l-9.1,40.962A.729.729,0,0,1,437.206,317.509Z" transform="translate(-436.481 -275.097)" fill="#191919"/></g><g transform="translate(0 56.165)"><path d="M420.242,390.564l-9.722-8.617-16.048-72.569v0l.54-11.979c1.645-4.855,4.691-10.313,5.712-14.487l4.3-17.523a1.769,1.769,0,0,0-.937-2.015v-.006s-8-4.885-12.886,13.167h0l-2.081,2.663a10.984,10.984,0,0,1-3.881,1.893c-5.031-.642-7.175-2.854-7.972-5.213l.836-7.712a6.6,6.6,0,0,1,4.425-4.094l9.961-2.771a7.648,7.648,0,0,0,5.419-7.853l-.188-2.735a1.13,1.13,0,0,0-1.206-1.048c-.045,0-.093.009-.137.015l-20.163,3.9A7.994,7.994,0,0,0,371.858,256l3.06-14.057a8.069,8.069,0,0,0-1.842-7.339l-.379-.415a1.294,1.294,0,0,0-1.827-.1,1.277,1.277,0,0,0-.355.529l-7.178,16.813.5-10.244a9.485,9.485,0,0,0-3.469-8.178l-.51-.415a1.524,1.524,0,0,0-2.454.9l-8.181,32.276c-.379,1.83-1.275,6.79-.319,8.393l8.187,25.582c-.77.1-12.143,113.414,11.552,134.165,39.66,34.736,73.244-24.164,73.244-24.164Z" transform="translate(-348.477 -232.259)" fill="#f5b7b1" stroke="#191919" stroke-miterlimit="10" stroke-width="0.317"/><g transform="translate(10.933 17.223)"><line x1="3.263" y2="10.8" transform="translate(0.722 0.723)" fill="none"/><path d="M352.862,250.277a.728.728,0,0,1-.723-.734.665.665,0,0,1,.03-.2l3.26-10.8a.725.725,0,0,1,1.388.418h0l-3.263,10.8A.724.724,0,0,1,352.862,250.277Z" transform="translate(-352.139 -238.027)" fill="#191919"/></g><g transform="translate(20.503 21.482)"><path d="M355.875,253.977a.53.53,0,0,0,.522-.448l1.433-9.614a4.105,4.105,0,0,1,2.186-3.039l.824-.421a.527.527,0,1,0-.463-.946l-.015.006-.827.421a5.151,5.151,0,0,0-2.747,3.822l-1.439,9.614a.527.527,0,0,0,.445.6h0A.367.367,0,0,0,355.875,253.977Z" transform="translate(-355.344 -239.454)" fill="#26161d"/></g><g transform="translate(56.628 127.832)"><line x2="9.096" y2="41.033" transform="translate(0.726 0.725)" fill="none"/><path d="M377.266,317.557a.723.723,0,0,1-.708-.567l-9.1-41.033a.728.728,0,0,1,1.421-.313h0l9.095,41.033a.724.724,0,0,1-.552.863A.7.7,0,0,1,377.266,317.557Z" transform="translate(-367.443 -275.073)" fill="#26161d"/></g></g></g><path d="M398.6,277.019l-13.128,41.74-1.132-17.376Z" transform="translate(94.513 126.237)" fill="#161616"/><path d="M452.17,332.125" transform="translate(229.209 235.664)" fill="#161616"/></g></svg>