<svg xmlns="http://www.w3.org/2000/svg" width="349.711" height="414.379" viewBox="0 0 349.711 414.379"><g transform="translate(-78.763 -94.713)"><g transform="translate(115.343 158.272)"><g transform="translate(26.515 8.296)"><path d="M145.6,168.123c2.084,2.1,3.321,4.255,2.761,4.811s-2.7-.7-4.789-2.8-3.321-4.256-2.761-4.812S143.513,166.02,145.6,168.123Z" transform="translate(-140.557 -165.074)" fill="#26161d"/><path d="M147.977,173.182a3.452,3.452,0,0,1-1.5-.551,15.539,15.539,0,0,1-2.99-2.414c-1.868-1.884-3.47-4.268-2.759-4.972s3.08.917,4.949,2.8a15.511,15.511,0,0,1,2.39,3.007c.389.677.769,1.568.371,1.963A.635.635,0,0,1,147.977,173.182Zm-6.785-7.875a.416.416,0,0,0-.3.1c-.442.438.584,2.455,2.761,4.651a15.3,15.3,0,0,0,2.943,2.378c.831.487,1.461.644,1.686.421s.071-.854-.407-1.689a15.293,15.293,0,0,0-2.355-2.961h0c-1.849-1.865-3.578-2.9-4.327-2.9Z" transform="translate(-140.559 -165.076)" fill="#26161d"/></g><g transform="translate(0 8.371)"><path d="M148.908,172.931,122.3,199.321l-7.549-7.611,26.606-26.39,1.189,1.612a6.882,6.882,0,0,0,1.679,1.612l.74.5a1.31,1.31,0,0,1,.422.469l.528.99a4.1,4.1,0,0,0,1.6,1.639Z" transform="translate(-114.592 -165.146)" fill="#f0eee0"/><path d="M122.3,199.485l-7.709-7.772.081-.08,26.7-26.483,1.267,1.719a6.746,6.746,0,0,0,1.65,1.586l.74.5a1.424,1.424,0,0,1,.459.509l.528.99a3.974,3.974,0,0,0,1.555,1.594l1.523.862-.106.105Zm-7.388-7.77,7.39,7.45,26.419-26.2-1.262-.714a4.2,4.2,0,0,1-1.643-1.684l-.529-.99a1.2,1.2,0,0,0-.385-.428l-.74-.5A6.936,6.936,0,0,1,142.459,167l-1.111-1.507Z" transform="translate(-114.595 -165.15)" fill="#26161d"/></g><g transform="translate(27.738)"><g transform="translate(8.163)"><path d="M149.92,157.837c.084.407.227.723.32.7s.1-.365.018-.772-.227-.723-.32-.7S149.837,157.43,149.92,157.837Z" transform="translate(-149.749 -156.95)" fill="#0f0d40"/><path d="M150.232,158.657c-.124,0-.2-.145-.256-.259a2.571,2.571,0,0,1-.163-.535h0c-.052-.255-.146-.855.106-.907s.4.536.452.791.146.855-.106.907A.168.168,0,0,1,150.232,158.657Zm-.251-1.393a2.231,2.231,0,0,0,.053.552h0a2.187,2.187,0,0,0,.168.531,2.634,2.634,0,0,0-.221-1.083Z" transform="translate(-149.751 -156.953)" fill="#26161d"/></g><g transform="translate(0 2.041)"><path d="M141.9,159.436c.059.172.181.286.271.254s.113-.2.054-.368-.181-.286-.272-.255S141.841,159.263,141.9,159.436Z" transform="translate(-141.755 -158.949)" fill="#0f0d40"/><path d="M142.144,159.811c-.135,0-.277-.133-.347-.336h0c-.084-.238-.03-.459.124-.512s.332.086.416.324.03.46-.124.513A.223.223,0,0,1,142.144,159.811Zm-.133-.411c.044.125.112.182.133.184a.436.436,0,0,0-.021-.223c-.045-.124-.112-.181-.135-.184a.446.446,0,0,0,.022.223Z" transform="translate(-141.758 -158.952)" fill="#26161d"/></g><g transform="translate(5.696 6.166)"><path d="M147.479,163.477c.06.173.181.287.272.255s.113-.2.054-.368-.182-.287-.272-.255S147.418,163.305,147.479,163.477Z" transform="translate(-147.333 -162.989)" fill="#0f0d40"/><path d="M147.721,163.853a.289.289,0,0,1-.194-.087.637.637,0,0,1-.153-.249h0a.628.628,0,0,1-.035-.291.236.236,0,0,1,.421-.146.681.681,0,0,1,.188.54.261.261,0,0,1-.158.221A.2.2,0,0,1,147.721,163.853Zm-.133-.411a.3.3,0,0,0,.133.184.425.425,0,0,0-.022-.223c-.044-.124-.112-.181-.134-.184a.425.425,0,0,0,.022.223Z" transform="translate(-147.335 -162.991)" fill="#26161d"/></g><g transform="translate(9.137 13.664)"><path d="M150.847,170.82c.059.172.181.286.271.254s.114-.2.054-.368-.181-.286-.271-.255S150.786,170.647,150.847,170.82Z" transform="translate(-150.702 -170.331)" fill="#0f0d40"/><path d="M151.089,171.195a.286.286,0,0,1-.194-.088.674.674,0,0,1-.187-.539.235.235,0,0,1,.42-.146.679.679,0,0,1,.188.54.257.257,0,0,1-.158.221A.193.193,0,0,1,151.089,171.195Zm-.156-.633a.436.436,0,0,0,.022.223c.044.125.112.181.133.184a.436.436,0,0,0-.022-.223c-.042-.125-.111-.181-.133-.183Z" transform="translate(-150.705 -170.333)" fill="#26161d"/></g></g></g><g transform="translate(351.177 154.243)"><g transform="translate(4.663 11.2)"><path d="M353.075,166.985c-2.061,2.078-3.283,4.208-2.73,4.758s2.674-.69,4.735-2.768,3.283-4.208,2.73-4.758S355.137,164.907,353.075,166.985Z" transform="translate(-350.097 -163.972)" fill="#26161d"/><path d="M350.736,171.991a.643.643,0,0,1-.467-.166c-.7-.7.881-3.053,2.73-4.916s4.191-3.466,4.893-2.769-.881,3.052-2.729,4.915C353.617,170.614,351.725,171.991,350.736,171.991Zm6.7-7.79c-.741,0-2.45,1.021-4.279,2.864-2.154,2.171-3.168,4.165-2.731,4.6s2.423-.6,4.576-2.767,3.167-4.165,2.731-4.6A.411.411,0,0,0,357.437,164.2Z" transform="translate(-350.099 -163.974)" fill="#26161d"/></g><g transform="translate(4.727 11.274)"><path d="M350.343,171.74l26.307,26.093,7.465-7.525-26.307-26.094-1.138,1.544a7.144,7.144,0,0,1-1.749,1.681h0a4.612,4.612,0,0,0-1.482,1.647h0a5.046,5.046,0,0,1-1.968,2.017Z" transform="translate(-350.158 -164.043)" fill="#f0eee0"/><path d="M376.654,197.995l-.08-.079-26.412-26.2,1.255-.71a4.927,4.927,0,0,0,1.924-1.973,4.744,4.744,0,0,1,1.519-1.687,7.039,7.039,0,0,0,1.723-1.655l1.215-1.647,26.479,26.263-.08.08Zm-26.122-26.226,26.121,25.909,7.307-7.366-26.135-25.922-1.061,1.439a7.28,7.28,0,0,1-1.778,1.707,4.509,4.509,0,0,0-1.446,1.607,5.156,5.156,0,0,1-2.012,2.062Z" transform="translate(-350.162 -164.047)" fill="#26161d"/></g><g transform="translate(13.55 20.011)"><path d="M358.957,180.283l18.2,18.058a2.3,2.3,0,0,0,3.256-.013h0l4.223-4.257a2.3,2.3,0,0,0-.013-3.256l-18.2-18.057-3.834,3.865Z" transform="translate(-358.799 -172.599)" fill="#ff8500"/><path d="M378.786,199.123a2.407,2.407,0,0,1-1.7-.7L358.8,180.288l7.622-7.686.08.08,18.2,18.057a2.417,2.417,0,0,1,.013,3.414L380.5,198.41A2.407,2.407,0,0,1,378.786,199.123Zm-19.667-18.836,18.125,17.978a2.192,2.192,0,0,0,3.1-.013L384.563,194a2.192,2.192,0,0,0-.012-3.1L366.425,172.92Z" transform="translate(-358.802 -172.602)" fill="#26161d"/></g><g transform="translate(0 0)"><g transform="translate(3.345 11.333)"><path d="M349.308,164.979c-.082.4-.224.714-.315.7s-.1-.36-.017-.764.224-.714.316-.7S349.391,164.576,349.308,164.979Z" transform="translate(-348.807 -164.102)" fill="#0f0d40"/><path d="M349.005,165.79l-.033,0c-.141-.029-.16-.211-.163-.345a2.9,2.9,0,0,1,.221-1.08c.055-.123.145-.283.286-.253.249.051.156.643.105.9a2.581,2.581,0,0,1-.162.529C349.207,165.646,349.128,165.79,349.005,165.79Zm.248-1.379a2.626,2.626,0,0,0-.219,1.071A2.6,2.6,0,0,0,349.253,164.411Z" transform="translate(-348.809 -164.105)" fill="#26161d"/></g><g transform="translate(4.344 3.95)"><path d="M350.288,157.75c-.083.4-.224.714-.317.7s-.1-.36-.017-.764.224-.714.316-.7S350.37,157.346,350.288,157.75Z" transform="translate(-349.784 -156.872)" fill="#0f0d40"/><path d="M349.985,158.561a.171.171,0,0,1-.033,0c-.25-.051-.156-.644-.105-.9a2.6,2.6,0,0,1,.161-.53c.056-.123.144-.283.286-.253s.161.21.164.345a2.558,2.558,0,0,1-.059.55h0a2.6,2.6,0,0,1-.161.53C350.187,158.417,350.107,158.561,349.985,158.561Zm.248-1.378a2.593,2.593,0,0,0-.219,1.071,2.149,2.149,0,0,0,.165-.525h0a2.191,2.191,0,0,0,.053-.547Z" transform="translate(-349.787 -156.875)" fill="#26161d"/></g><path d="M346,153.485c-.059.17-.179.283-.269.251s-.112-.193-.053-.364.18-.283.268-.252S346.056,153.314,346,153.485Z" transform="translate(-345.531 -153.005)" fill="#0f0d40"/><path d="M345.761,153.856a.186.186,0,0,1-.066-.011.257.257,0,0,1-.157-.219.624.624,0,0,1,.035-.287c.082-.236.259-.374.41-.321s.2.271.123.505a.527.527,0,0,1-.239.306A.235.235,0,0,1,345.761,153.856Zm.141-.63a.421.421,0,0,0-.118.186.289.289,0,0,0-.009.226.431.431,0,0,0,.118-.187h0a.282.282,0,0,0,.009-.225Z" transform="translate(-345.533 -153.007)" fill="#26161d"/><g transform="translate(8.883 8.36)"><path d="M354.694,161.67c-.06.171-.18.283-.269.252s-.112-.194-.053-.365.179-.282.268-.251S354.754,161.5,354.694,161.67Z" transform="translate(-354.229 -161.191)" fill="#0f0d40"/><path d="M354.459,162.042a.187.187,0,0,1-.067-.012.254.254,0,0,1-.156-.219.669.669,0,0,1,.186-.533.254.254,0,0,1,.258-.075c.152.053.205.271.123.507h0a.624.624,0,0,1-.152.246A.281.281,0,0,1,354.459,162.042Zm.141-.63a.421.421,0,0,0-.118.186.284.284,0,0,0-.009.226.431.431,0,0,0,.118-.187A.287.287,0,0,0,354.6,161.412Z" transform="translate(-354.232 -161.193)" fill="#26161d"/></g><g transform="translate(2.656 18.193)"><path d="M348.6,171.3c-.059.171-.179.283-.268.252s-.112-.194-.053-.364.179-.283.268-.252S348.657,171.132,348.6,171.3Z" transform="translate(-348.131 -170.82)" fill="#0f0d40"/><path d="M348.362,171.672a.175.175,0,0,1-.067-.011.219.219,0,0,1-.126-.117.528.528,0,0,1,0-.389c.082-.235.256-.373.41-.321a.258.258,0,0,1,.157.219.636.636,0,0,1-.034.287h0a.617.617,0,0,1-.152.246A.287.287,0,0,1,348.362,171.672Zm.142-.63a.424.424,0,0,0-.119.187.286.286,0,0,0-.009.225.442.442,0,0,0,.119-.187.29.29,0,0,0,.009-.225Z" transform="translate(-348.134 -170.822)" fill="#26161d"/></g></g></g><g transform="translate(165.249 369.209)"><path d="M192.364,382.15S164.4,450.308,163.465,502.5h80.119l5.874-28.837h9.633l8.929,28.837h78.945s-.471-55.29-34.539-120.348Z" transform="translate(-163.465 -363.116)" fill="#0f0d40" stroke="#070707" stroke-miterlimit="10" stroke-width="1"/><path d="M183.492,420.628a.51.51,0,0,1-.028-1.02c1.238-.067,30.3-1.992,30.3-32.619a.511.511,0,0,1,1.021,0c0,31.6-30.949,33.622-31.263,33.638Z" transform="translate(-163.051 -363.024)" fill="#fff"/><path d="M319.3,420.628h-.027c-.313-.016-31.263-2.035-31.263-33.638a.511.511,0,1,1,1.021,0c0,30.645,29.994,32.6,30.3,32.619a.51.51,0,0,1-.028,1.02Z" transform="translate(-160.825 -363.024)" fill="#fff"/><g transform="translate(28.389)"><path d="M199.753,364.01l-7.988,18.524H311.827l-8.693-18.524Z" transform="translate(-191.254 -363.5)" fill="#0f0d40" stroke="#070707" stroke-miterlimit="10" stroke-width="1"/><path d="M311.837,383.055H191.776a.51.51,0,0,1-.469-.713l7.988-18.523a.511.511,0,0,1,.469-.308h103.38a.511.511,0,0,1,.463.293l8.692,18.523a.51.51,0,0,1-.462.728Zm-119.286-1.021H311.033l-8.213-17.5H200.1Z" transform="translate(-191.265 -363.511)" fill="#fff"/></g><path d="M251.407,434.491h-4.184a.51.51,0,0,1-.511-.511V386.989a.511.511,0,1,1,1.021,0v46.481h3.673a5.651,5.651,0,0,0,5.644-5.644V386.989a.511.511,0,1,1,1.021,0v40.837A6.673,6.673,0,0,1,251.407,434.491Z" transform="translate(-161.7 -363.024)" fill="#fff"/><path d="M232.238,373.38h-35.4a.511.511,0,0,1,0-1.021h35.4a.511.511,0,1,1,0,1.021Z" transform="translate(-162.768 -363.323)" fill="#fff"/><path d="M305.1,373.38H278.563a.511.511,0,1,1,0-1.021H305.1a.511.511,0,0,1,0,1.021Z" transform="translate(-161.036 -363.323)" fill="#fff"/></g><g transform="translate(132.85 220.097)"><path d="M340.652,249.1a49.407,49.407,0,0,0-26.9-19.849l-33-9.9a44.168,44.168,0,0,0-12.683-1.861H237.832a45.886,45.886,0,0,0-13.188,1.935l-32.75,9.824A49.4,49.4,0,0,0,165,249.1L131.88,298.67a.844.844,0,0,0,.144,1.1l45.817,40.309a.842.842,0,0,0,1.311-.258l10.026-20.175a.842.842,0,0,1,1.6.322l2.945,46.359a.842.842,0,0,0,.84.788H311.092a.843.843,0,0,0,.84-.788l2.945-46.359a.842.842,0,0,1,1.594-.322L326.5,339.821a.842.842,0,0,0,1.31.258l45.817-40.309a.842.842,0,0,0,.144-1.1Z" transform="translate(-131.738 -217.494)" fill="#ff4b5d" stroke="#020202" stroke-miterlimit="10" stroke-width="1"/><g transform="translate(56.369 9.998)"><path d="M251.5,259.675a.778.778,0,0,1-.128-.01c-49.424-1.926-59.352-31.087-59.447-31.381a.766.766,0,0,1,1.458-.469c.092.284,9.766,28.452,58.084,30.321h.071c48.316-1.87,57.991-30.038,58.083-30.321a.766.766,0,0,1,1.458.469c-.1.294-10.017,29.427-59.377,31.378a.592.592,0,0,1-.167.012Z" transform="translate(-186.832 -227.284)" fill="#161616"/><path d="M187.7,320.352a.757.757,0,0,1-.385-.105.766.766,0,0,1-.275-1.048l16.867-28.818a.766.766,0,1,1,1.322.774l-16.867,28.818A.768.768,0,0,1,187.7,320.352Z" transform="translate(-186.937 -225.955)" fill="#161616"/><path d="M312.669,319.581a.769.769,0,0,1-.664-.38L295.67,291.154a.767.767,0,1,1,1.324-.772l16.335,28.047a.766.766,0,0,1-.661,1.152Z" transform="translate(-184.634 -225.954)" fill="#161616"/></g></g><path d="M330.991,182.371c-3.4-2.379-7.329-4.479-9.723-7.417-3.533-4.338-3.114-9.676-3.09-14.693s-.774-10.553-5.874-14.006c-3.452-2.338-8.4-3.346-11.649-5.829a16.388,16.388,0,0,1-3.988-4.834c-1.321-2.19-2.523-4.422-3.787-6.632.211-.156.428-.3.635-.464,8.5-6.715,10.959-17.156,5.486-23.321-3.564-4.013-9.612-5.206-15.745-3.709a11.129,11.129,0,0,0-7.786-6.555c-5.813-1.17-11.824,2.941-14.674,9.519-.505-.026-1.015-.037-1.527-.031a20.7,20.7,0,0,0-16.8-8.387h0c-26.045-.008-36.457,14.072-40.578,26.452a39.1,39.1,0,0,0-3.129,4.9,32.487,32.487,0,0,0-3.818,12.379c-.291,3.193-.083,6.437-1.092,9.554-1.73,5.343-6.931,10-7.609,15.459-.714,5.742,3.721,11.308,3.241,17.062-.847,10.138-16.421,17.71-15.695,27.853a5.717,5.717,0,0,0,2.871,4.784c1.78,1,4.18,1.171,6.439,1.262,15.5.629,31-.774,46.513-1.284,19.566-.642,39.163.14,58.719.921l53.912,2.153a4.823,4.823,0,0,0,2.035-.207,2.356,2.356,0,0,0,1.274-1.759C348.715,203.689,343.065,190.818,330.991,182.371Z" transform="translate(2.003 0)" fill="#26161d"/><g transform="translate(206.852 129.539)"><g transform="translate(0 0)"><path d="M271.786,218.761,270.7,177.734l3.154.11a12.753,12.753,0,0,0,13.119-12.306l.009-.291a12.764,12.764,0,0,0-12.237-13.193l-3.721-.13-1.508.067c-12.6.565-23.753-9.144-28.332-23.176-1.784,1.072-3.591,2.14-5.384,3.173-6.558,3.778-18.28,2.764-27.712,5.538l-3.732,36.366a28.621,28.621,0,0,0,25.424,31.453l.239.026-.08,13.612L204.2,226.625s7.426,23.127,46.98,24.657v.006l.052,0,.053,0v-.006c39.554-1.53,46.98-24.657,46.98-24.657Z" transform="translate(-204.204 -128.816)" fill="#f5b7b1" stroke="#191919" stroke-miterlimit="10" stroke-width="1"/><path d="M275.251,168.579a.764.764,0,0,1-.419-.125l-4.14-2.715a.768.768,0,0,1-.152-1.151l4.425-4.952a.766.766,0,0,1,1.143,1.021l-3.833,4.288,3.4,2.227a.766.766,0,0,1-.421,1.406Z" transform="translate(-202.802 -128.168)" fill="#26161d"/></g><path d="M229.485,204.047s21.78,2.213,25.75-6.64h0s.734,13.719-25.825,19.664Z" transform="translate(-203.67 -127.445)" fill="#26161d"/><g transform="translate(1.361 14.663)"><path d="M207.182,157.782a2.69,2.69,0,1,0,3.268-1.959A2.7,2.7,0,0,0,207.182,157.782Z" transform="translate(-205.504 -142.909)" fill="#26161d"/><path d="M230.909,158.3a2.689,2.689,0,1,0,2.672-2.721A2.7,2.7,0,0,0,230.909,158.3Z" transform="translate(-204.999 -142.912)" fill="#26161d"/><g transform="translate(17.69 25.056)"><path d="M224.509,177.593c-.3,0-.6-.006-.915-.018a.766.766,0,0,1,.062-1.531c3.787.15,6.627-.683,8.432-2.48a7.449,7.449,0,0,0,2.09-5.058.768.768,0,0,1,.736-.793.754.754,0,0,1,.793.732,8.883,8.883,0,0,1-2.519,6.185C231.225,176.6,228.307,177.593,224.509,177.593Z" transform="translate(-222.859 -167.711)" fill="#26161d"/></g><g transform="translate(12.085 47.294)"><path d="M217.736,190.841a.511.511,0,0,0,.343-.017,4.332,4.332,0,0,1,4.8,1.041.51.51,0,0,0,.723.043.516.516,0,0,0,.043-.726c-2.438-2.758-5.925-1.321-5.961-1.307a.516.516,0,0,0,.053.967Z" transform="translate(-217.371 -189.487)" fill="#26161d" opacity="0.71"/></g><g transform="translate(23.736)"><path d="M229.342,146.484a7.779,7.779,0,0,1,3.08-1.038c1.136-.222,2.27-.472,3.248-.724s2.1-.581,3.2-.935a7.738,7.738,0,0,1,3.192-.576c.934.141,1.542,1.076.873,2.592-.618,1.467-2.718,3.429-5.962,4.273-3.242.826-6,.112-7.213-.881C228.477,148.18,228.583,147.061,229.342,146.484Z" transform="translate(-228.78 -143.175)" fill="#26161d"/></g><g transform="translate(0 0.638)"><path d="M215.006,146.939a4.725,4.725,0,0,0-2.032-.948c-.767-.224-1.529-.471-2.183-.712s-1.4-.548-2.124-.874a4.711,4.711,0,0,0-2.16-.6c-.664.065-1.186.761-.879,1.965a5.778,5.778,0,0,0,3.7,3.583,5.687,5.687,0,0,0,5.107-.343C215.429,148.291,215.472,147.421,215.006,146.939Z" transform="translate(-205.537 -143.8)" fill="#26161d"/></g><g transform="translate(7.083 7.675)"><path d="M219.617,170.338a7.161,7.161,0,0,1-7.144-7.14,2.749,2.749,0,0,1,2.723-2.768,3.2,3.2,0,0,0,3.164-3.223l-.033-5.745a.766.766,0,0,1,.762-.77h0a.766.766,0,0,1,.766.761l.033,5.746a4.732,4.732,0,0,1-4.686,4.763,1.215,1.215,0,0,0-1.2,1.226,5.63,5.63,0,0,0,1.668,3.989,5.563,5.563,0,0,0,3.945,1.63h.035l2.315-.014h0a.766.766,0,0,1,.005,1.532l-2.314.014Z" transform="translate(-212.473 -150.691)" fill="#26161d"/></g></g><path d="M275.618,163.576" transform="translate(-202.69 -128.079)" fill="none" stroke="#ff673e" stroke-linecap="round" stroke-linejoin="round" stroke-width="1.5"/></g><g transform="translate(329.649 154.067)"><path d="M421.965,188.253l-8.648-34.109a1.608,1.608,0,0,0-2.594-.948l-.537.437a10.023,10.023,0,0,0-3.667,8.644l.531,10.824-7.583-17.77a1.369,1.369,0,0,0-2.307-.456l-.4.438a8.538,8.538,0,0,0-1.947,7.756l3.256,14.951a8.456,8.456,0,0,0-4.888-2.9L371.877,171a1.194,1.194,0,0,0-1.417,1.091l-.2,2.889a8.085,8.085,0,0,0,5.725,8.3L386.51,186.2a6.957,6.957,0,0,1,4.675,4.328l.967,8.883c-.97,2.307-3.28,4.394-8.269,5.023a11.589,11.589,0,0,1-1.74-.606l-5.083-6.495-.152-.543a18.042,18.042,0,0,0-9.678-11.447l-1.169-.55a2.874,2.874,0,0,0-4.016,3.282l4.542,18.516a55.887,55.887,0,0,0,3.263,8.534c1.009,2.287,3.625,7.523,3.728,7.523.014,0,.029-.006.043-.007l.528,11.685,0,.005-.669,3.257-16.4,74.091L324.452,340.82s35.079,61.821,76.991,25.117c25.041-21.929,13.02-141.683,12.206-141.78l8.651-27.034C423.311,195.426,422.368,190.188,421.965,188.253Z" transform="translate(-324.452 -152.835)" fill="#f5b7b1" stroke="#191919" stroke-miterlimit="10" stroke-width="1"/></g><g transform="translate(399.497 176.221)"><path d="M398.4,189.874a.559.559,0,0,1-.551-.476l-1.518-10.159a4.323,4.323,0,0,0-2.309-3.21l-.872-.445a.558.558,0,1,1,.508-.994l.872.445a5.441,5.441,0,0,1,2.905,4.039l1.518,10.159a.557.557,0,0,1-.47.634A.567.567,0,0,1,398.4,189.874Z" transform="translate(-392.849 -174.529)" fill="#26161d"/></g><g transform="translate(411.418 172.264)"><line x2="3.448" y2="11.413" transform="translate(0.766 0.766)" fill="#ffb178"/><path d="M408.737,183.6a.764.764,0,0,1-.732-.545l-3.449-11.412a.765.765,0,1,1,1.465-.443l3.449,11.413a.769.769,0,0,1-.733.987Z" transform="translate(-404.523 -170.654)" fill="#26161d"/></g><g transform="translate(356.961 289.234)"><line x1="9.619" y2="43.284" transform="translate(0.766 0.765)" fill="#191919"/><path d="M351.964,330.011a.872.872,0,0,1-.167-.017.767.767,0,0,1-.581-.915l9.62-43.285a.766.766,0,0,1,1.5.333l-9.62,43.284A.766.766,0,0,1,351.964,330.011Z" transform="translate(-351.197 -285.196)" fill="#191919"/></g><g transform="translate(79.288 154.067)"><g transform="translate(0 0)"><path d="M155.125,320.124l-10.273-9.107-16.959-76.685,0-.005.572-12.658c1.738-5.131,4.956-10.9,6.037-15.31l4.542-18.517a1.871,1.871,0,0,0-.991-2.132l0-.006s-8.453-5.16-13.618,13.915h0l-2.2,2.815a11.558,11.558,0,0,1-4.1,2c-5.318-.678-7.584-3.017-8.426-5.507l.886-8.15a6.957,6.957,0,0,1,4.675-4.328l10.527-2.926a8.086,8.086,0,0,0,5.725-8.3l-.2-2.89a1.194,1.194,0,0,0-1.417-1.09l-21.308,4.121a8.463,8.463,0,0,0-4.6,2.56l3.234-14.854a8.537,8.537,0,0,0-1.947-7.756l-.4-.438a1.369,1.369,0,0,0-2.307.456L94.99,173.1l.531-10.824a10.023,10.023,0,0,0-3.667-8.644l-.538-.437a1.607,1.607,0,0,0-2.593.948l-8.648,34.109c-.4,1.935-1.346,7.173-.335,8.87l8.651,27.034c-.814.1-12.834,119.851,12.206,141.78C142.509,402.642,178,340.4,178,340.4Z" transform="translate(-79.288 -152.835)" fill="#f5b7b1" stroke="#191919" stroke-miterlimit="10" stroke-width="1"/><g transform="translate(11.551 18.198)"><line x1="3.448" y2="11.413" transform="translate(0.766 0.766)" fill="#ffb178"/><path d="M91.366,183.6a.769.769,0,0,1-.733-.987L94.081,171.2a.765.765,0,1,1,1.465.443L92.1,183.054A.764.764,0,0,1,91.366,183.6Z" transform="translate(-90.6 -170.655)" fill="#191919"/></g><g transform="translate(21.668 22.704)"><path d="M101.066,190.412a.558.558,0,0,0,.551-.475l1.517-10.16a4.327,4.327,0,0,1,2.309-3.21l.871-.445a.558.558,0,1,0-.507-.994l-.872.445a5.443,5.443,0,0,0-2.905,4.039l-1.519,10.159a.558.558,0,0,0,.471.634A.451.451,0,0,0,101.066,190.412Z" transform="translate(-100.506 -175.067)" fill="#26161d"/></g></g><g transform="translate(59.844 135.089)"><line x2="9.612" y2="43.362" transform="translate(0.766 0.765)" fill="#26161d"/><path d="M148.267,330.013a.767.767,0,0,1-.748-.6l-9.612-43.362a.766.766,0,0,1,1.5-.331l9.612,43.362a.767.767,0,0,1-.582.914A.854.854,0,0,1,148.267,330.013Z" transform="translate(-137.89 -285.12)" fill="#26161d"/></g></g></g></svg>