<svg xmlns="http://www.w3.org/2000/svg" width="94" height="94" viewBox="0 0 94 94"><g transform="translate(-0.5)"><rect width="94" height="94" transform="translate(0.5)" fill="none"/><g transform="translate(-43.057 5.014)"><path d="M390.191,163.252h0a5.009,5.009,0,0,1-4.248-7.664l4.248-6.8,4.248,6.8A5.009,5.009,0,0,1,390.191,163.252Z" transform="translate(-273.431 -124.388)" fill="#ff9017"/><path d="M110.223,99.094v5.752H85.574V93.671h-4.93V82.661h4.93v7.723H90.5v8.71Z" transform="translate(-18.847 -69.104)" fill="#fff"/><path d="M115.153,23.948v6.9h-4.93v5.423H90.5v-8.71h-4.93V19.84h-4.93V7.515h4.93v7.723H90.5v8.709Z" transform="translate(-18.847 -6.282)" fill="#cc8148"/><path d="M354.611,263.014h-6.245l-2.465,3.615H340.15v5.258h14.461Z" transform="translate(-235.791 -219.877)" fill="#fdd844"/><path d="M340.15,317.119v27.443a3.287,3.287,0,0,0,3.287,3.287h7.888a3.287,3.287,0,0,0,3.287-3.287V317.119Z" transform="translate(-235.791 -265.109)" fill="#80cbc4"/><path d="M65.614,435.9a4.93,4.93,0,0,0,4.93,4.93h29.579a4.93,4.93,0,0,0,4.93-4.93v-7.559H65.614Z" transform="translate(-6.282 -358.086)" fill="#fdd844"/><path d="M110.223,138.463v5.752H85.574V133.04h-4.93v-3.287H88.86v11.174h18.076v-2.465Z" transform="translate(-18.847 -108.472)" fill="#d8d7da"/><path d="M249.173,129.753v3.287h-4.93v5.423h-3.287v-8.71Z" transform="translate(-152.867 -108.472)" fill="#ba713f"/><path d="M105.053,149.793H97.658v11.174H73.009V149.793H65.614v16.433h39.439Z" transform="translate(-6.282 -125.226)" fill="#fdd844"/><rect width="39.439" height="29.251" transform="translate(59.333 41)" fill="#ea427a"/><path d="M390.2,198.592h0a4.978,4.978,0,0,1-4.672-3.2,5.011,5.011,0,0,0,4.672,6.819h0a5.011,5.011,0,0,0,4.672-6.819A4.978,4.978,0,0,1,390.2,198.592Z" transform="translate(-273.444 -163.344)" fill="#ff7043"/><path d="M351.325,465.69h-7.888a3.287,3.287,0,0,1-3.287-3.287v3.615a3.287,3.287,0,0,0,3.287,3.287h7.888a3.286,3.286,0,0,0,3.287-3.287V462.4A3.286,3.286,0,0,1,351.325,465.69Z" transform="translate(-235.792 -386.565)" fill="#26a69a"/><path d="M100.123,457.313H70.544a4.93,4.93,0,0,1-4.93-4.93V456a4.93,4.93,0,0,0,4.93,4.93h29.579a4.93,4.93,0,0,0,4.93-4.93v-3.615A4.93,4.93,0,0,1,100.123,457.313Z" transform="translate(-6.282 -378.188)" fill="#fdab08"/><g transform="translate(63.03 48.477)"><path d="M100.4,456.393H97.936v-2.465H100.4Zm-4.93,0H88.158v-5.012h2.465v2.547h4.848Z" transform="translate(-88.158 -425.828)" fill="#fff"/><rect width="8.874" height="2.465" transform="translate(21.939 28.1)" fill="#fff"/><path d="M379.187,368.521h-2.465v-2.465h2.465Zm0-4.93h-2.465V356.2h2.465Z" transform="translate(-329.395 -346.254)" fill="#fff"/><path d="M126.254,298.043h-2.629v-2.465h2.629Zm-5.094,0H110.15v-2.465h11.01Zm-13.475,0H96.675v-2.465h11.01Z" transform="translate(-95.278 -295.578)" fill="#fff"/><path d="M126.09,333.111h-2.465v-2.465h2.465Zm-4.93,0h-6.08v-2.465h6.08Zm-8.545,0H110.15v-2.465h2.465Zm-4.93,0H105.22v-2.465h2.465Zm-4.93,0h-6.08v-2.465h6.08Z" transform="translate(-95.278 -324.895)" fill="#fff"/><path d="M126.254,368.18h-11.01v-2.465h11.01Zm-13.475,0h-11.01v-2.465h11.01Zm-13.475,0H96.675v-2.465H99.3Z" transform="translate(-95.278 -354.212)" fill="#fff"/></g><path d="M97.539,16.433H72.89V7.723H67.96V0H60.565V23.335H58.1V77.81a6.169,6.169,0,0,0,6.162,6.162H93.842A6.169,6.169,0,0,0,100,77.81V23.335H97.539v-6.9M92.609,18.9h2.465v4.437H92.609Zm-4.93,0h2.465v9.86H87.679Zm0,12.325h2.465v3.287H87.679ZM82.749,18.9h2.465v9.86H82.749Zm0,12.325h2.465v3.287H82.749ZM77.819,18.9h2.465v9.86H77.819Zm0,12.325h2.465v3.287H77.819ZM72.89,18.9h2.465v9.86H72.89Zm0,12.325h2.465v3.287H72.89ZM67.96,10.188h2.465v9.86H67.96Zm0,12.325h2.465v12H67.96ZM63.03,2.465h2.465v9.86H63.03Zm0,12.325h2.465v8.545H63.03ZM97.539,77.81a3.7,3.7,0,0,1-3.7,3.7H64.262a3.7,3.7,0,0,1-3.7-3.7V71.483H97.539Zm0-8.792H60.565V42.233H97.539ZM65.495,36.974H92.609V25.8h4.93V39.768H60.565V25.8h4.93V36.974" transform="translate(0)"/><path d="M389.178,143.081l-5.293-8.469-5.293,8.469a6.242,6.242,0,1,0,10.586,0Zm-1.99,5.139a3.777,3.777,0,1,1-6.506-3.833l3.2-5.125,3.2,5.125A3.729,3.729,0,0,1,387.189,148.22Z" transform="translate(-267.125 -112.534)"/><rect width="4.108" height="2.465" transform="translate(103.209 40.754)"/><path d="M338.969,259.114h-6.333v33.934a4.524,4.524,0,0,0,4.519,4.519h7.888a4.524,4.524,0,0,0,4.519-4.519V255.5h-8.128Zm8.128,33.934a2.056,2.056,0,0,1-2.054,2.054h-7.888a2.056,2.056,0,0,1-2.054-2.054V266.838h12v26.211Zm0-35.084v6.409h-12v-2.794h5.171l2.465-3.615Z" transform="translate(-229.51 -213.595)"/></g></g></svg>