<svg xmlns="http://www.w3.org/2000/svg" width="94" height="94" viewBox="0 0 94 94"><rect width="94" height="94" fill="none"/><g transform="translate(4.625 4.624)"><path d="M13.973,10H69.592a3.973,3.973,0,0,1,3.973,3.973v73.5a3.973,3.973,0,0,1-3.973,3.973H13.973A3.973,3.973,0,0,1,10,87.47v-73.5A3.973,3.973,0,0,1,13.973,10Zm0,0" transform="translate(-8.345 -8.345)" fill="#ec5d49"/><path d="M88.128,50h12.195v68.2H50V50H62.195" transform="translate(-41.724 -41.724)" fill="#fff"/><path d="M130.35,21.918H148.2a3.518,3.518,0,0,0,3.518-3.518V10H126.832v8.4A3.518,3.518,0,0,0,130.35,21.918Zm0,0" transform="translate(-105.837 -8.345)" fill="#ff6977"/><path d="M130.35,21.918H148.2a3.518,3.518,0,0,0,3.518-3.518V10H126.832v8.4A3.518,3.518,0,0,0,130.35,21.918Zm0,0" transform="translate(-105.837 -8.345)" fill="#e6b7b1"/><path d="M314.634,156.322l19.4-19.4a4.378,4.378,0,1,1,6.191,6.191l-19.4,19.4-11.161,4.969Zm0,0" transform="translate(-258.405 -113.192)" fill="#feba1b"/><path d="M320.825,266.75l-6.191-6.191-4.969,11.16Zm0,0" transform="translate(-258.405 -217.428)" fill="#e8e8e8"/><path d="M450.184,145.246l2.129-2.129a4.378,4.378,0,0,0-6.191-6.191l-2.129,2.128Zm0,0" transform="translate(-370.497 -113.191)" fill="#f98473"/><path d="M98,130h10.594v10.594H98Zm0,0" transform="translate(-81.778 -108.481)" fill="#91ffab"/><path d="M98,240h10.594v10.594H98Zm0,0" transform="translate(-81.778 -200.272)" fill="#91ffab"/><path d="M98,350h10.594v10.594H98Zm0,0" transform="translate(-81.778 -292.064)" fill="#f98473"/><path d="M193.655,452a1.656,1.656,0,1,0,1.17.485A1.669,1.669,0,0,0,193.655,452Zm0,0" transform="translate(-160.218 -377.179)"/><path d="M82.986,22.565a6.04,6.04,0,0,0-8.532,0l-7.578,7.578V5.627A5.635,5.635,0,0,0,61.247,0H5.628A5.635,5.635,0,0,0,0,5.627v73.5a5.635,5.635,0,0,0,5.628,5.628H61.247a5.635,5.635,0,0,0,5.628-5.628V47.208L82.986,31.1a6.04,6.04,0,0,0,0-8.532ZM63.565,5.628V33.454l-3.311,3.311V8.276A1.655,1.655,0,0,0,58.6,6.621H47.536V3.31H61.247a2.32,2.32,0,0,1,2.317,2.317Zm-9.038,45.4L56.761,46l2.786,2.786ZM44.225,3.31v6.745a1.864,1.864,0,0,1-1.862,1.862H24.512a1.864,1.864,0,0,1-1.862-1.862V3.31ZM61.247,81.442H5.628A2.32,2.32,0,0,1,3.31,79.124V5.628A2.32,2.32,0,0,1,5.628,3.31H19.339V6.621H8.276A1.655,1.655,0,0,0,6.621,8.276v68.2a1.655,1.655,0,0,0,1.655,1.655h18.54a1.655,1.655,0,0,0,0-3.311H9.932V9.931h9.408v.124a5.179,5.179,0,0,0,5.173,5.173h17.85a5.179,5.179,0,0,0,5.173-5.173V9.931h9.408V40.075L55.058,41.96a1.675,1.675,0,0,0-.341.5l-4.969,11.16A1.656,1.656,0,0,0,51.933,55.8l5.01-2.231V74.821H40.059a1.655,1.655,0,1,0,0,3.311H58.6a1.656,1.656,0,0,0,1.655-1.655V52.1l2.839-1.264a1.65,1.65,0,0,0,.471-.318V79.124a2.32,2.32,0,0,1-2.317,2.317ZM74.475,34.926,62.42,46.981,58.57,43.131,73.5,28.2l3.851,3.851Zm6.17-6.169-.958.958-3.85-3.85.958-.958a2.723,2.723,0,1,1,3.851,3.85Zm0,0" transform="translate(0)"/><path d="M100.249,120H89.655A1.655,1.655,0,0,0,88,121.655v10.594a1.655,1.655,0,0,0,1.655,1.655h10.594a1.655,1.655,0,0,0,1.655-1.655V121.655A1.655,1.655,0,0,0,100.249,120Zm-1.655,10.594H91.311v-7.283h7.283Zm0,0" transform="translate(-73.433 -100.137)"/><path d="M100.249,230H89.655A1.655,1.655,0,0,0,88,231.655v10.594a1.655,1.655,0,0,0,1.655,1.655h10.594a1.655,1.655,0,0,0,1.655-1.655V231.655A1.655,1.655,0,0,0,100.249,230Zm-1.655,10.594H91.311v-7.283h7.283Zm0,0" transform="translate(-73.433 -191.928)"/><path d="M100.249,340H89.655A1.655,1.655,0,0,0,88,341.655v10.594a1.655,1.655,0,0,0,1.655,1.655h10.594a1.655,1.655,0,0,0,1.655-1.655V341.655A1.655,1.655,0,0,0,100.249,340Zm-1.655,10.594H91.311v-7.283h7.283Zm0,0" transform="translate(-73.433 -283.719)"/><path d="M212.569,139.726a1.655,1.655,0,0,0,2.341,0l7.474-7.474a1.655,1.655,0,1,0-2.341-2.341l-6.3,6.3-2.512-2.512a1.655,1.655,0,0,0-2.341,2.341Zm0,0" transform="translate(-173.904 -108.003)"/><path d="M212.569,249.728a1.655,1.655,0,0,0,2.341,0l7.474-7.473a1.656,1.656,0,0,0-2.341-2.341l-6.3,6.3-2.512-2.512a1.655,1.655,0,0,0-2.341,2.341Zm0,0" transform="translate(-173.904 -199.796)"/><path d="M224.918,357.16l2.566,2.566a1.655,1.655,0,1,0,2.341-2.341l-2.566-2.566,2.566-2.566a1.655,1.655,0,1,0-2.341-2.341l-2.566,2.566-2.566-2.566a1.655,1.655,0,1,0-2.341,2.341l2.566,2.566-2.566,2.566a1.655,1.655,0,0,0,2.341,2.341Zm0,0" transform="translate(-183.188 -291.585)"/></g></svg>