<svg xmlns="http://www.w3.org/2000/svg" xmlns:xlink="http://www.w3.org/1999/xlink" width="94" height="94" viewBox="0 0 94 94"><defs><linearGradient id="a" x1="0.5" x2="0.5" y2="1" gradientUnits="objectBoundingBox"><stop offset="0" stop-color="#05dbf3"/><stop offset="1" stop-color="#04b1d9"/></linearGradient></defs><g transform="translate(-196 -1184)"><rect width="94" height="94" transform="translate(196 1184)" fill="none"/><g transform="translate(-266.782 1159)"><g transform="translate(471.525 39.964)"><circle cx="35.145" cy="35.145" r="35.145" transform="translate(0 0)" fill="#f98473"/></g><g transform="translate(481.477 49.916)"><circle cx="25.192" cy="25.192" r="25.192" fill="#fff"/></g><g transform="translate(491.43 59.869)"><circle cx="15.24" cy="15.24" r="15.24" fill="#f98473"/></g><g transform="translate(501.382 69.821)"><circle cx="5.287" cy="5.287" r="5.287" fill="#fff"/></g><g transform="translate(510.427 33.744)"><g transform="translate(5.57 11.968)"><path d="M528.1,64l14.734-14.734,5.336,5.336L533.435,69.337Z" transform="translate(-528.099 -49.267)" fill="url(#a)"/></g><g transform="translate(0 26.699)"><path d="M526.4,78.786l-5.327-.01-.01-5.327,5.578-5.578,5.337,5.338Z" transform="translate(-521.064 -67.871)" fill="#c193dc"/></g><g transform="translate(19.147 0)"><g transform="translate(2.168 6.227)"><path d="M558.268,54.257l-10.285-2.168,8.784-8.784a4.4,4.4,0,0,1,6.226,6.226Z" transform="translate(-547.983 -42.016)" fill="#ffa726"/></g><path d="M545.245,40.167l2.168,10.285,8.784-8.784a4.4,4.4,0,1,0-6.227-6.227Z" transform="translate(-545.245 -34.152)" fill="#ffa726"/></g></g><g transform="translate(469.97 32.191)"><path d="M541.705,53.733a1.582,1.582,0,0,0,.321.033,1.555,1.555,0,0,0,1.1-.455l4.726-4.726a5.958,5.958,0,0,0-4.213-10.171c-.092,0-.183,0-.275.006,0-.091.006-.183.006-.275A5.958,5.958,0,0,0,533.2,33.934l-4.726,4.725a1.559,1.559,0,0,0-.422,1.421l1.066,5.053-.536.536a36.7,36.7,0,1,0,7.536,7.537l.537-.537Zm-20.364,9.848L518.2,60.443l11.679-11.678.337,1.6a1.556,1.556,0,0,0,1.2,1.2l1.6.337Zm-.987,11.527a13.68,13.68,0,1,1-8.534-12.679l-2.493,2.493a1.555,1.555,0,0,0-.455,1.1l0,2.61a6.849,6.849,0,1,0,4.27,4.275l2.614,0h0a1.557,1.557,0,0,0,1.1-.455l2.489-2.49a13.708,13.708,0,0,1,1,5.14ZM515.121,69.8l-3.133-.006-.005-3.132L516,62.643l3.138,3.138ZM510.4,75.108a3.734,3.734,0,1,1-2.428-3.5L506.182,73.4a1.555,1.555,0,0,0,2.2,2.2l1.788-1.788A3.711,3.711,0,0,1,510.4,75.108Zm33.236-33.583a2.847,2.847,0,0,1,2.014,4.861l-4.129,4.129-6.652-1.4,6.753-6.754h0a2.832,2.832,0,0,1,2.014-.834Zm-8.24-5.392a2.848,2.848,0,0,1,4.027,4.027h0l-6.753,6.753-1.4-6.652Zm4.861,38.976a33.59,33.59,0,1,1-33.59-33.59,33.19,33.19,0,0,1,19.688,6.373l-4.916,4.916A26.753,26.753,0,0,0,483.278,88.09,1.555,1.555,0,1,0,486,86.579a23.643,23.643,0,0,1,33.2-31.521l-5.022,5.022a16.782,16.782,0,1,0,7.535,7.537l5.022-5.022A23.644,23.644,0,0,1,495.2,95.779a1.555,1.555,0,0,0-1.512,2.718,26.752,26.752,0,0,0,35.291-38.152l4.915-4.916A33.691,33.691,0,0,1,540.259,75.108Z" transform="translate(-469.97 -32.191)"/><path d="M493.413,106.925a1.556,1.556,0,1,0,1.1.456A1.565,1.565,0,0,0,493.413,106.925Z" transform="translate(-474.527 -47.75)"/></g></g></g></svg>