<svg xmlns="http://www.w3.org/2000/svg" xmlns:xlink="http://www.w3.org/1999/xlink" width="816.392" height="599.04" viewBox="0 0 816.392 599.04"><defs><filter id="a" x="49.261" y="451.477" width="90.522" height="90.522" filterUnits="userSpaceOnUse"><feOffset dx="3" dy="5" input="SourceAlpha"/><feGaussianBlur stdDeviation="3" result="b"/><feFlood flood-opacity="0.102"/><feComposite operator="in" in2="b"/><feComposite in="SourceGraphic"/></filter><filter id="c" x="667.87" y="451.477" width="90.522" height="90.522" filterUnits="userSpaceOnUse"><feOffset dx="3" dy="5" input="SourceAlpha"/><feGaussianBlur stdDeviation="3" result="d"/><feFlood flood-opacity="0.102"/><feComposite operator="in" in2="d"/><feComposite in="SourceGraphic"/></filter><filter id="e" x="725.87" y="295.477" width="90.522" height="90.522" filterUnits="userSpaceOnUse"><feOffset dx="3" dy="5" input="SourceAlpha"/><feGaussianBlur stdDeviation="3" result="f"/><feFlood flood-opacity="0.102"/><feComposite operator="in" in2="f"/><feComposite in="SourceGraphic"/></filter><filter id="g" x="704.131" y="139.477" width="90.522" height="90.522" filterUnits="userSpaceOnUse"><feOffset dx="3" dy="5" input="SourceAlpha"/><feGaussianBlur stdDeviation="3" result="h"/><feFlood flood-opacity="0.102"/><feComposite operator="in" in2="h"/><feComposite in="SourceGraphic"/></filter><filter id="i" x="615.131" y="3.477" width="90.522" height="90.522" filterUnits="userSpaceOnUse"><feOffset dx="3" dy="5" input="SourceAlpha"/><feGaussianBlur stdDeviation="3" result="j"/><feFlood flood-opacity="0.102"/><feComposite operator="in" in2="j"/><feComposite in="SourceGraphic"/></filter><filter id="k" x="0" y="295.477" width="90.522" height="90.522" filterUnits="userSpaceOnUse"><feOffset dx="3" dy="5" input="SourceAlpha"/><feGaussianBlur stdDeviation="3" result="l"/><feFlood flood-opacity="0.102"/><feComposite operator="in" in2="l"/><feComposite in="SourceGraphic"/></filter><filter id="m" x="25" y="139.477" width="90.522" height="90.522" filterUnits="userSpaceOnUse"><feOffset dx="3" dy="5" input="SourceAlpha"/><feGaussianBlur stdDeviation="3" result="n"/><feFlood flood-opacity="0.102"/><feComposite operator="in" in2="n"/><feComposite in="SourceGraphic"/></filter><filter id="o" x="121.784" y="3.477" width="90.522" height="90.522" filterUnits="userSpaceOnUse"><feOffset dx="3" dy="5" input="SourceAlpha"/><feGaussianBlur stdDeviation="3" result="p"/><feFlood flood-opacity="0.102"/><feComposite operator="in" in2="p"/><feComposite in="SourceGraphic"/></filter></defs><g transform="translate(-399.739 -2300)"><g transform="translate(15.5 47)"><path d="M546.469,118.388c-36.873-1.594-75.277,15.2-111.278,1.217-24.37-9.466-39.593-33.228-59.2-50.517C343.706,40.625,296.7,29.883,255.257,41.5s-76.017,45.228-88.8,86.323c-9.2,29.562-9.382,65.1-33.121,84.969-15.254,12.771-36.35,15.269-54.737,22.863-29.787,12.3-52.962,39.521-60.354,70.887s1.189,66.072,22.348,90.378c30.24,34.739,84.553,50.653,97.151,94.954,3.941,13.863,2.935,28.594,4.6,42.91,4.4,37.719,28.85,72.506,62.85,89.42s76.5,15.428,109.232-3.815c37.647-22.131,62.5-65.418,104.57-77.12,50.888-14.153,107.9,23.879,156.273,2.676,35.9-15.735,51.932-59.38,50.089-98.534-1.848-39.26-16.958-76.455-27.341-114.063q-1.028-3.728-1.99-7.459c-5.529-21.519-9.809-45.516-5.464-67.658,3.734-19.029,16.718-33.908,22.5-52.182C627.236,161.268,589.91,120.266,546.469,118.388Z" transform="translate(468.867 2216.112)" fill="#fedfdd" opacity="0.21"/><path d="M402.19,96.237c-26.851-1.161-54.817,11.068-81.033.886-17.746-6.893-28.832-24.2-43.111-36.787-23.509-20.727-57.741-28.549-87.918-20.09s-55.356,32.935-64.666,62.861c-6.7,21.527-6.832,47.4-24.119,61.875-11.108,9.3-26.47,11.119-39.86,16.649A74.284,74.284,0,0,0,33.807,299.065c22.021,25.3,61.572,36.886,70.746,69.146,2.87,10.1,2.137,20.822,3.353,31.247A83.538,83.538,0,0,0,233.217,461.8c27.415-16.116,45.51-47.638,76.148-56.159,37.057-10.306,78.571,17.389,113.8,1.949,26.143-11.458,37.817-43.241,36.475-71.753-1.346-28.589-12.349-55.675-19.91-83.061q-.748-2.715-1.449-5.432c-4.026-15.67-7.143-33.145-3.979-49.269,2.719-13.857,12.174-24.692,16.385-38C461.005,127.462,433.824,97.6,402.19,96.237Z" transform="translate(562.367 2297.521)" fill="#f98473" opacity="0.21"/><g transform="translate(477.78 2274.77)"><g transform="translate(268.826 82.679)"><g transform="translate(0)"><path d="M270.035,92.78a10.547,10.547,0,0,0-7.935-9.427v-.011l-.015.006-.015-.006v.011a10.548,10.548,0,0,0-7.934,9.427c-2.548,33.971-5.759,78.242-37.8,94.328,1.314,5.758,3.886,14.555,5.084,20.338,4.13-5.781,18.345-14.63,23.36-19.69a165.8,165.8,0,0,0,17.3-20.469,165.926,165.926,0,0,0,17.3,20.469c5.015,5.061,19.23,13.909,23.358,19.69,1.2-5.783,3.772-14.58,5.084-20.338C275.794,171.022,272.583,126.751,270.035,92.78Z" transform="translate(-215.544 -82.423)" fill="#ba4e47"/><path d="M303.325,209.394l-.922-1.29c-2.377-3.327-8.419-7.875-13.75-11.89a100.951,100.951,0,0,1-9.538-7.713,166.184,166.184,0,0,1-16.808-19.771A166.23,166.23,0,0,1,245.5,188.5a100.472,100.472,0,0,1-9.541,7.716c-5.33,4.013-11.37,8.561-13.747,11.887l-.92,1.29-.322-1.551c-.665-3.209-1.763-7.379-2.826-11.41-.861-3.27-1.674-6.358-2.256-8.915l-.121-.529.485-.244c31.572-15.852,34.8-58.848,37.389-93.4l.026-.364a11.226,11.226,0,0,1,7.932-9.9v-.363l.7.166.728-.208,0,.406a11.226,11.226,0,0,1,7.929,9.9l.026.374c2.594,34.544,5.82,77.535,37.389,93.386l.485.244-.121.529c-.583,2.558-1.4,5.651-2.259,8.924-1.061,4.028-2.158,8.194-2.823,11.4Zm-85.966-21.658c.567,2.429,1.325,5.308,2.124,8.344.915,3.476,1.856,7.051,2.529,10.045,2.845-3.286,8.054-7.207,13.111-11.014a100.322,100.322,0,0,0,9.39-7.587,164.761,164.761,0,0,0,17.231-20.383l.564-.788.563.788A164.493,164.493,0,0,0,280.1,187.524a100.041,100.041,0,0,0,9.387,7.584c5.057,3.808,10.269,7.73,13.114,11.017.672-2.992,1.613-6.564,2.526-10.036.8-3.039,1.56-5.921,2.127-8.353-31.816-16.394-35.057-59.556-37.662-94.273l-.028-.374a9.843,9.843,0,0,0-7.257-8.768,9.844,9.844,0,0,0-7.26,8.768l-.026.364C252.416,128.172,249.176,171.341,217.359,187.736Z" transform="translate(-215.765 -82.679)" fill="#271c22"/></g><g transform="translate(29.686 59.961)"><path d="M266.709,133.053H240.99a3.3,3.3,0,0,1-3.3-3.3h0a3.3,3.3,0,0,1,3.3-3.3h25.719a3.3,3.3,0,0,1,3.3,3.3h0A3.3,3.3,0,0,1,266.709,133.053Z" transform="translate(-236.994 -125.755)" fill="#fe8980"/><path d="M266.9,133.938h-25.72a4,4,0,1,1,0-7.99H266.9a4,4,0,0,1,0,7.99Zm-25.72-6.6a2.609,2.609,0,1,0,0,5.219H266.9a2.609,2.609,0,1,0,0-5.219Z" transform="translate(-237.187 -125.948)" fill="#191919"/></g><g transform="translate(33.141 42.924)"><path d="M262.3,120.759H243.481a3.3,3.3,0,0,1-3.3-3.3h0a3.3,3.3,0,0,1,3.3-3.3H262.3a3.3,3.3,0,0,1,3.3,3.3h0A3.3,3.3,0,0,1,262.3,120.759Z" transform="translate(-239.487 -113.461)" fill="#fe8980"/><path d="M262.488,121.643H243.674a3.994,3.994,0,0,1,0-7.989h18.815a3.994,3.994,0,0,1,0,7.989Zm-18.815-6.6a2.609,2.609,0,0,0,0,5.217h18.815a2.609,2.609,0,0,0,0-5.217Z" transform="translate(-239.68 -113.654)" fill="#191919"/></g><g transform="translate(35.481 25.886)"><path d="M259.3,108.464H245.171a3.3,3.3,0,0,1-3.3-3.3h0a3.3,3.3,0,0,1,3.3-3.3H259.3a3.3,3.3,0,0,1,3.3,3.3h0A3.3,3.3,0,0,1,259.3,108.464Z" transform="translate(-241.176 -101.166)" fill="#fe8980"/><path d="M259.495,109.349H245.364a4,4,0,0,1,0-7.99h14.131a4,4,0,1,1,0,7.99Zm-14.131-6.6a2.609,2.609,0,0,0,0,5.219h14.131a2.609,2.609,0,1,0,0-5.219Z" transform="translate(-241.369 -101.359)" fill="#191919"/></g><g transform="translate(0.795 83.127)" opacity="0.6" style="mix-blend-mode:multiply;isolation:isolate"><path d="M216.339,164.223c1.314,5.758,3.886,14.555,5.084,20.338,3.857-5.4,16.507-13.472,22.247-18.639a103.97,103.97,0,0,0-5.24-23.257C233.22,151.749,226.132,159.307,216.339,164.223Z" transform="translate(-216.339 -142.665)" fill="#ba4e47"/><g transform="translate(65.486 3.101)"><path d="M269.41,144.9a103.961,103.961,0,0,0-5.815,21.3c6.171,5.155,17.339,12.477,20.921,17.494,1.2-5.783,3.772-14.58,5.084-20.338A51.415,51.415,0,0,1,269.41,144.9Z" transform="translate(-263.595 -144.903)" fill="#ba4e47"/></g></g></g><g transform="translate(333.238 96.799)"><path d="M472.274,270.708q-3.417-14.247-8-28.157C451.755,204.629,433.14,167.4,407.31,136.692c-18.533-22.032-47.74-47.45-78.706-42.763-40.23,6.092-49.974,50.448-56.056,84.01-10.079,55.632-16.19,115.986.811,171.374C290.411,404.876,333.077,451.4,390.98,464.4q2.621.588,5.263,1.081l1.7.309a150.525,150.525,0,0,0,30.088,2.158c36.045-1.027,48.817-37.9,52.153-68.2A378.584,378.584,0,0,0,472.274,270.708Z" transform="translate(-262.07 -92.677)" fill="#9c504a"/><path d="M423.906,468.891a151.1,151.1,0,0,1-25.9-2.23l-1.709-.309c-1.772-.33-3.55-.7-5.291-1.085-54.762-12.292-100.028-56.573-118.133-115.562-17.8-58-9.793-122.225-.83-171.7,6.85-37.805,17.439-78.636,56.634-84.571,33.319-5.046,64.01,24.778,79.341,43,24.1,28.652,43.311,64.345,57.092,106.089,3.029,9.175,5.727,18.668,8.017,28.212h0a381.442,381.442,0,0,1,7.929,129.279c-2.779,25.217-13.334,67.689-52.824,68.815Q426.069,468.891,423.906,468.891ZM336.245,94.254a49.244,49.244,0,0,0-7.361.55c-38.292,5.8-48.713,46.114-55.477,83.448-8.937,49.321-16.924,113.334.789,171.047,17.961,58.516,62.835,102.433,117.113,114.614,1.724.388,3.487.75,5.237,1.075l1.7.309a150.158,150.158,0,0,0,29.944,2.147c38.44-1.093,48.758-42.812,51.486-67.581a380.028,380.028,0,0,0-7.9-128.8h0c-2.281-9.508-4.968-18.963-7.983-28.1-13.726-41.575-32.85-77.114-56.839-105.63C392.957,120.689,366.024,94.254,336.245,94.254Z" transform="translate(-262.246 -92.868)" fill="#191919"/></g><g transform="translate(333.871 146.635)" opacity="0.49" style="mix-blend-mode:multiply;isolation:isolate"><path d="M448.093,402.1c-13.26,4.2-27.648,3.492-41.259.632-39.449-8.288-73.957-34.435-96.45-67.885s-33.59-73.7-36.083-113.937c-1.908-30.8,1.034-61.674,6.577-92.083-3.85,11.794-6.3,24.209-8.331,35.424-10.079,55.632-16.19,115.986.811,171.373,17.053,55.565,59.718,102.094,117.621,115.088q2.621.588,5.263,1.081l1.7.309a150.525,150.525,0,0,0,30.088,2.158c36.045-1.027,48.817-37.9,52.153-68.2q.4-3.654.728-7.321C472.168,389.357,461.111,397.982,448.093,402.1Z" transform="translate(-262.703 -128.831)" fill="#9c504a"/></g><g transform="translate(377.794 162.823)"><path d="M333.441,149.3l-8.792-8.792-10.73,10.73-10.73-10.73L294.4,149.3l10.73,10.73-10.73,10.73,8.792,8.792,10.73-10.73,10.73,10.73,8.792-8.792-10.73-10.73Z" transform="translate(-294.399 -140.512)" fill="#fff"/></g><g transform="translate(383.745 97.486)" opacity="0.3" style="mix-blend-mode:screen;isolation:isolate"><path d="M316.5,242.854c16.237,35.079,46.1,64.915,83.261,75.545a104.929,104.929,0,0,0,66.4-3.272,367.906,367.906,0,0,0-7.769-44.42q-3.417-14.247-8-28.157c-12.519-37.922-31.134-75.153-56.965-105.859-18.533-22.032-47.74-47.45-78.706-42.763a53.786,53.786,0,0,0-9.16,2.228,166.34,166.34,0,0,0-5.822,33.258C296.545,167.938,300.266,207.776,316.5,242.854Z" transform="translate(-298.693 -93.364)" fill="#9c504a"/></g><g transform="translate(421.852 127.155)" opacity="0.5" style="mix-blend-mode:screen;isolation:isolate"><path d="M371.343,231.673q.549.673,1.107,1.341c7.015,8.4,18.682,18.826,30.668,13.626,23.554-10.223,12.716-41.26,5-58.572-11.638-26.1-26.871-44.964-49.719-62.418-10.244-7.825-36.489-21.676-31.6,3.685C333.847,165.96,347.529,202.549,371.343,231.673Z" transform="translate(-326.192 -114.774)" fill="#9c504a"/></g><g transform="translate(361.411 219.721)" opacity="0.49" style="mix-blend-mode:multiply;isolation:isolate"><path d="M288.658,184.613a3.041,3.041,0,1,1-3.04-3.042A3.04,3.04,0,0,1,288.658,184.613Z" transform="translate(-282.576 -181.571)" fill="#9c504a"/></g><g transform="translate(406.929 157.064)" opacity="0.49" style="mix-blend-mode:multiply;isolation:isolate"><path d="M321.507,139.4a3.042,3.042,0,1,1-3.042-3.042A3.042,3.042,0,0,1,321.507,139.4Z" transform="translate(-315.423 -136.357)" fill="#9c504a"/></g><g transform="translate(474.858 208.909)" opacity="0.49" style="mix-blend-mode:multiply;isolation:isolate"><path d="M370.526,176.809a3.042,3.042,0,1,1-3.042-3.04A3.041,3.041,0,0,1,370.526,176.809Z" transform="translate(-364.442 -173.769)" fill="#9c504a"/></g><g transform="translate(429.043 247.041)" opacity="0.49" style="mix-blend-mode:multiply;isolation:isolate"><path d="M337.465,204.328a3.042,3.042,0,1,1-3.042-3.042A3.041,3.041,0,0,1,337.465,204.328Z" transform="translate(-331.381 -201.286)" fill="#9c504a"/></g><g transform="translate(510.062 318.435)" opacity="0.49" style="mix-blend-mode:multiply;isolation:isolate"><path d="M395.93,255.847a3.042,3.042,0,1,1-3.042-3.042A3.042,3.042,0,0,1,395.93,255.847Z" transform="translate(-389.846 -252.805)" fill="#9c504a"/></g><g transform="translate(445.2 365.249)" opacity="0.49" style="mix-blend-mode:multiply;isolation:isolate"><path d="M349.124,289.629a3.042,3.042,0,1,1-3.042-3.042A3.042,3.042,0,0,1,349.124,289.629Z" transform="translate(-343.04 -286.587)" fill="#9c504a"/></g><g transform="translate(371.367 378.887)" opacity="0.49" style="mix-blend-mode:multiply;isolation:isolate"><path d="M295.845,299.469a3.042,3.042,0,1,1-3.042-3.04A3.041,3.041,0,0,1,295.845,299.469Z" transform="translate(-289.761 -296.429)" fill="#9c504a"/></g><g transform="translate(432.085 441.247)" opacity="0.49" style="mix-blend-mode:multiply;isolation:isolate"><path d="M339.658,344.469a3.041,3.041,0,1,1-3.04-3.04A3.04,3.04,0,0,1,339.658,344.469Z" transform="translate(-333.576 -341.429)" fill="#9c504a"/></g><g transform="translate(468.823 398.485)" opacity="0.49" style="mix-blend-mode:multiply;isolation:isolate"><path d="M366.171,313.613a3.042,3.042,0,1,1-3.042-3.042A3.042,3.042,0,0,1,366.171,313.613Z" transform="translate(-360.087 -310.571)" fill="#9c504a"/></g><g transform="translate(516.146 385.398)" opacity="0.49" style="mix-blend-mode:multiply;isolation:isolate"><path d="M400.318,304.167a3.041,3.041,0,1,1-3.042-3.04A3.04,3.04,0,0,1,400.318,304.167Z" transform="translate(-394.236 -301.127)" fill="#9c504a"/></g><g transform="translate(499.421 455.23)" opacity="0.49" style="mix-blend-mode:multiply;isolation:isolate"><path d="M388.249,354.561a3.041,3.041,0,1,1-3.042-3.042A3.04,3.04,0,0,1,388.249,354.561Z" transform="translate(-382.167 -351.519)" fill="#9c504a"/></g><g transform="translate(418.812 398.485)" opacity="0.49" style="mix-blend-mode:multiply;isolation:isolate"><path d="M330.08,313.613a3.041,3.041,0,1,1-3.042-3.042A3.041,3.041,0,0,1,330.08,313.613Z" transform="translate(-323.998 -310.571)" fill="#9c504a"/></g><g transform="translate(368.326 323.372)" opacity="0.49" style="mix-blend-mode:multiply;isolation:isolate"><path d="M293.65,259.41a3.042,3.042,0,1,1-3.042-3.042A3.042,3.042,0,0,1,293.65,259.41Z" transform="translate(-287.566 -256.368)" fill="#9c504a"/></g><g transform="translate(523.177 253.834)" opacity="0.49" style="mix-blend-mode:multiply;isolation:isolate"><path d="M405.394,209.23a3.042,3.042,0,1,1-3.042-3.042A3.042,3.042,0,0,1,405.394,209.23Z" transform="translate(-399.31 -206.188)" fill="#9c504a"/></g><g transform="translate(538.617 348.751)" opacity="0.49" style="mix-blend-mode:multiply;isolation:isolate"><path d="M416.536,277.724a3.042,3.042,0,1,1-3.042-3.042A3.041,3.041,0,0,1,416.536,277.724Z" transform="translate(-410.452 -274.682)" fill="#9c504a"/></g><g transform="translate(410.754 206.969)" opacity="0.49" style="mix-blend-mode:multiply;isolation:isolate"><path d="M324.267,175.411a3.042,3.042,0,1,1-3.042-3.042A3.041,3.041,0,0,1,324.267,175.411Z" transform="translate(-318.183 -172.369)" fill="#9c504a"/></g><g transform="translate(361.411 160.106)" opacity="0.49" style="mix-blend-mode:multiply;isolation:isolate"><path d="M288.658,141.594a3.041,3.041,0,1,1-3.04-3.042A3.041,3.041,0,0,1,288.658,141.594Z" transform="translate(-282.576 -138.552)" fill="#9c504a"/></g><g transform="translate(460.14 163.148)" opacity="0.49" style="mix-blend-mode:multiply;isolation:isolate"><path d="M359.9,143.789a3.042,3.042,0,1,1-3.042-3.042A3.041,3.041,0,0,1,359.9,143.789Z" transform="translate(-353.821 -140.747)" fill="#9c504a"/></g><g transform="translate(403.887 107.16)" opacity="0.49" style="mix-blend-mode:multiply;isolation:isolate"><path d="M319.312,103.387a3.042,3.042,0,1,1-3.042-3.042A3.041,3.041,0,0,1,319.312,103.387Z" transform="translate(-313.228 -100.345)" fill="#9c504a"/></g><g transform="translate(78.22 96.797)"><path d="M88.906,270.708q3.417-14.247,8-28.157c12.519-37.922,31.134-75.153,56.965-105.859,18.533-22.032,47.74-47.45,78.706-42.763,40.23,6.092,49.974,50.448,56.056,84.01,10.079,55.632,16.189,115.986-.811,171.374C270.769,404.876,228.1,451.4,170.2,464.4q-2.619.588-5.262,1.081l-1.7.309a150.525,150.525,0,0,1-30.088,2.158c-36.045-1.027-48.817-37.9-52.153-68.2A378.585,378.585,0,0,1,88.906,270.708Z" transform="translate(-78.034 -92.676)" fill="#fe8980"/><path d="M137.636,468.892q-2.162,0-4.324-.061c-39.488-1.125-50.046-43.6-52.824-68.815a381.432,381.432,0,0,1,7.931-129.279c2.287-9.534,4.983-19.025,8.015-28.212,13.78-41.744,32.99-77.437,57.092-106.089,15.331-18.224,46.028-48.054,79.341-43,39.194,5.935,49.784,46.766,56.634,84.571,8.963,49.475,16.972,113.7-.83,171.7C270.566,408.7,225.3,452.976,170.539,465.268c-1.743.391-3.523.757-5.287,1.084l-1.709.31A151.18,151.18,0,0,1,137.636,468.892ZM89.093,270.9l.673.162a379.981,379.981,0,0,0-7.9,128.8c2.729,24.769,13.047,66.488,51.484,67.581A150.175,150.175,0,0,0,163.3,465.3l1.7-.31c1.743-.324,3.506-.686,5.233-1.074,54.278-12.181,99.152-56.1,117.111-114.614,17.714-57.712,9.727-121.726.79-171.047C281.373,140.919,270.949,100.6,232.66,94.8c-32.653-4.944-62.929,24.523-78.072,42.525-23.99,28.516-43.113,64.056-56.839,105.63-3.018,9.15-5.705,18.6-7.983,28.1Z" transform="translate(-78.22 -92.867)" fill="#191919"/><g transform="translate(2.231 49.838)" opacity="0.49" style="mix-blend-mode:multiply;isolation:isolate"><path d="M112.653,402.1c13.259,4.2,27.648,3.492,41.259.632,39.449-8.288,73.957-34.435,96.45-67.885s33.59-73.7,36.083-113.937c1.908-30.8-1.034-61.674-6.577-92.083,3.85,11.794,6.3,24.209,8.331,35.424,10.079,55.632,16.189,115.986-.811,171.373-17.053,55.565-59.72,102.094-117.623,115.088q-2.619.588-5.262,1.081l-1.7.309a150.532,150.532,0,0,1-30.088,2.158c-36.045-1.027-48.817-37.9-52.153-68.2q-.4-3.654-.728-7.321C88.577,389.357,99.635,397.982,112.653,402.1Z" transform="translate(-79.83 -128.831)" fill="#fe8980"/></g><g transform="translate(2.355)" opacity="0.3" style="mix-blend-mode:screen;isolation:isolate"><path d="M230.117,242.854c-16.237,35.079-46.1,64.915-83.261,75.545a104.934,104.934,0,0,1-66.4-3.272,368.184,368.184,0,0,1,7.77-44.42q3.417-14.247,8-28.157c12.519-37.922,31.134-75.153,56.965-105.859,18.533-22.032,47.74-47.45,78.706-42.763a53.789,53.789,0,0,1,9.16,2.228,166.335,166.335,0,0,1,5.822,33.258C250.075,167.938,246.354,207.776,230.117,242.854Z" transform="translate(-79.711 -92.676)" fill="#fe8980"/><path d="M118.949,323.143a105.829,105.829,0,0,1-38.535-7.18l-.495-.193.061-.529a370.089,370.089,0,0,1,7.784-44.5c2.287-9.534,4.983-19.025,8.015-28.212,13.78-41.744,32.99-77.437,57.092-106.089,15.331-18.224,46.028-48.054,79.341-43a54.064,54.064,0,0,1,9.276,2.256l.341.115.1.345a165.031,165.031,0,0,1,5.848,33.4c3.613,43.577-2.048,81.86-16.826,113.787-17.365,37.516-48.654,65.9-83.7,75.919A103.258,103.258,0,0,1,118.949,323.143Zm-37.532-8.276a104.9,104.9,0,0,0,65.455,3.057c34.665-9.914,65.627-38.016,82.823-75.17,14.677-31.706,20.3-69.756,16.7-113.09a164.47,164.47,0,0,0-5.694-32.773A52.564,52.564,0,0,0,232,94.8c-32.653-4.944-62.929,24.523-78.072,42.525-23.99,28.516-43.113,64.056-56.839,105.63-3.018,9.15-5.705,18.605-7.983,28.1A368.674,368.674,0,0,0,81.417,314.867Z" transform="translate(-79.919 -92.867)" fill="#191919"/></g><g transform="translate(40.532 29.655)" opacity="0.5" style="mix-blend-mode:screen;isolation:isolate"><path d="M154.059,231.673q-.549.673-1.107,1.341c-7.015,8.4-18.682,18.826-30.668,13.626-23.554-10.223-12.716-41.26-5-58.572,11.636-26.1,26.87-44.964,49.719-62.418,10.244-7.825,36.489-21.676,31.6,3.685C191.555,165.96,177.874,202.549,154.059,231.673Z" transform="translate(-107.279 -114.071)" fill="#fe8980"/><path d="M129.133,248.935a17.269,17.269,0,0,1-6.936-1.462,22.853,22.853,0,0,1-12.8-12.886c-4.121-10.6-1.614-26.276,7.451-46.6,11.48-25.743,26.88-45.076,49.931-62.685,5.666-4.328,22.038-14.527,29.657-9.811,3.426,2.122,4.451,6.891,3.049,14.176-8.024,41.654-23.061,76.187-44.694,102.647q-.553.676-1.113,1.346C147.475,241.077,138.661,248.935,129.133,248.935Zm62.4-133.289c-7.076,0-17.738,6.031-23.917,10.752-23.167,17.7-37.973,36.282-49.508,62.149-8.909,19.977-11.406,35.3-7.424,45.538A21.506,21.506,0,0,0,122.749,246.2c11.312,4.9,22.483-4.6,29.861-13.436q.557-.665,1.1-1.335h0c21.486-26.278,36.426-60.607,44.406-102.032,1.285-6.664.471-10.949-2.415-12.737A7.841,7.841,0,0,0,191.534,115.646Z" transform="translate(-107.469 -114.267)" fill="#191919"/></g><g transform="translate(186.13 122.23)" opacity="0.49" style="mix-blend-mode:multiply;isolation:isolate"><path d="M213.034,184.613a3.042,3.042,0,1,0,3.042-3.042A3.041,3.041,0,0,0,213.034,184.613Z" transform="translate(-212.342 -180.878)" fill="#fe8980"/><path d="M216.268,188.54A3.735,3.735,0,1,1,220,184.806,3.739,3.739,0,0,1,216.268,188.54Zm0-6.084a2.349,2.349,0,1,0,2.349,2.349A2.351,2.351,0,0,0,216.268,182.457Z" transform="translate(-212.535 -181.071)" fill="#191919"/></g><g transform="translate(140.61 59.574)" opacity="0.49" style="mix-blend-mode:multiply;isolation:isolate"><path d="M180.187,139.4a3.042,3.042,0,1,0,3.042-3.042A3.042,3.042,0,0,0,180.187,139.4Z" transform="translate(-179.494 -135.664)" fill="#fe8980"/><path d="M183.422,143.326a3.735,3.735,0,1,1,3.735-3.735A3.739,3.739,0,0,1,183.422,143.326Zm0-6.084a2.349,2.349,0,1,0,2.349,2.349A2.351,2.351,0,0,0,183.422,137.243Z" transform="translate(-179.687 -135.857)" fill="#191919"/></g><g transform="translate(72.681 111.418)" opacity="0.49" style="mix-blend-mode:multiply;isolation:isolate"><path d="M131.168,176.809a3.041,3.041,0,1,0,3.042-3.04A3.04,3.04,0,0,0,131.168,176.809Z" transform="translate(-130.475 -173.076)" fill="#fe8980"/><path d="M134.4,180.737A3.734,3.734,0,1,1,138.137,177,3.739,3.739,0,0,1,134.4,180.737Zm0-6.082A2.348,2.348,0,1,0,136.752,177,2.351,2.351,0,0,0,134.4,174.655Z" transform="translate(-130.668 -173.269)" fill="#191919"/></g><g transform="translate(118.496 149.551)" opacity="0.49" style="mix-blend-mode:multiply;isolation:isolate"><path d="M164.229,204.328a3.042,3.042,0,1,0,3.042-3.042A3.041,3.041,0,0,0,164.229,204.328Z" transform="translate(-163.536 -200.593)" fill="#fe8980"/><path d="M167.464,208.254a3.734,3.734,0,1,1,3.735-3.735A3.739,3.739,0,0,1,167.464,208.254Zm0-6.082a2.348,2.348,0,1,0,2.349,2.347A2.351,2.351,0,0,0,167.464,202.172Z" transform="translate(-163.729 -200.786)" fill="#191919"/></g><g transform="translate(37.477 220.944)" opacity="0.49" style="mix-blend-mode:multiply;isolation:isolate"><path d="M105.764,255.847a3.042,3.042,0,1,0,3.042-3.042A3.042,3.042,0,0,0,105.764,255.847Z" transform="translate(-105.071 -252.112)" fill="#fe8980"/><path d="M109,259.773a3.734,3.734,0,1,1,3.735-3.733A3.739,3.739,0,0,1,109,259.773Zm0-6.082a2.348,2.348,0,1,0,2.349,2.349A2.351,2.351,0,0,0,109,253.691Z" transform="translate(-105.264 -252.305)" fill="#191919"/></g><g transform="translate(102.339 267.758)" opacity="0.49" style="mix-blend-mode:multiply;isolation:isolate"><path d="M152.57,289.629a3.042,3.042,0,1,0,3.042-3.042A3.042,3.042,0,0,0,152.57,289.629Z" transform="translate(-151.877 -285.894)" fill="#fe8980"/><path d="M155.8,293.556a3.735,3.735,0,1,1,3.735-3.735A3.739,3.739,0,0,1,155.8,293.556Zm0-6.083a2.349,2.349,0,1,0,2.349,2.349A2.353,2.353,0,0,0,155.8,287.473Z" transform="translate(-152.07 -286.087)" fill="#191919"/></g><g transform="translate(176.172 281.397)" opacity="0.49" style="mix-blend-mode:multiply;isolation:isolate"><path d="M205.849,299.469a3.042,3.042,0,1,0,3.042-3.04A3.041,3.041,0,0,0,205.849,299.469Z" transform="translate(-205.156 -295.736)" fill="#fe8980"/><path d="M209.084,303.4a3.734,3.734,0,1,1,3.735-3.735A3.739,3.739,0,0,1,209.084,303.4Zm0-6.082a2.348,2.348,0,1,0,2.349,2.348A2.35,2.35,0,0,0,209.084,297.315Z" transform="translate(-205.349 -295.929)" fill="#191919"/></g><g transform="translate(115.456 343.757)" opacity="0.49" style="mix-blend-mode:multiply;isolation:isolate"><path d="M162.034,344.469a3.042,3.042,0,1,0,3.042-3.04A3.041,3.041,0,0,0,162.034,344.469Z" transform="translate(-161.342 -340.736)" fill="#fe8980"/><path d="M165.268,348.4A3.734,3.734,0,1,1,169,344.662,3.739,3.739,0,0,1,165.268,348.4Zm0-6.082a2.348,2.348,0,1,0,2.349,2.347A2.349,2.349,0,0,0,165.268,342.315Z" transform="translate(-161.535 -340.929)" fill="#191919"/></g><g transform="translate(78.716 300.995)" opacity="0.49" style="mix-blend-mode:multiply;isolation:isolate"><path d="M135.523,313.613a3.041,3.041,0,1,0,3.042-3.042A3.041,3.041,0,0,0,135.523,313.613Z" transform="translate(-134.83 -309.878)" fill="#fe8980"/><path d="M138.758,317.54a3.735,3.735,0,1,1,3.735-3.733A3.739,3.739,0,0,1,138.758,317.54Zm0-6.083a2.349,2.349,0,1,0,2.349,2.35A2.352,2.352,0,0,0,138.758,311.457Z" transform="translate(-135.023 -310.071)" fill="#191919"/></g><g transform="translate(37.477 287.479)" opacity="0.49" style="mix-blend-mode:multiply;isolation:isolate"><path d="M105.764,303.86a3.042,3.042,0,1,0,3.042-3.042A3.042,3.042,0,0,0,105.764,303.86Z" transform="translate(-105.071 -300.125)" fill="#fe8980"/><path d="M109,307.787a3.735,3.735,0,1,1,3.735-3.735A3.739,3.739,0,0,1,109,307.787Zm0-6.084a2.349,2.349,0,1,0,2.349,2.349A2.351,2.351,0,0,0,109,301.7Z" transform="translate(-105.264 -300.318)" fill="#191919"/></g><g transform="translate(48.118 357.739)" opacity="0.49" style="mix-blend-mode:multiply;isolation:isolate"><path d="M113.444,354.561a3.041,3.041,0,1,0,3.04-3.042A3.04,3.04,0,0,0,113.444,354.561Z" transform="translate(-112.75 -350.826)" fill="#fe8980"/><path d="M116.679,358.487a3.734,3.734,0,1,1,3.733-3.733A3.739,3.739,0,0,1,116.679,358.487Zm0-6.082a2.348,2.348,0,1,0,2.347,2.349A2.352,2.352,0,0,0,116.679,352.4Z" transform="translate(-112.943 -351.019)" fill="#191919"/></g><g transform="translate(128.729 300.995)" opacity="0.49" style="mix-blend-mode:multiply;isolation:isolate"><path d="M171.613,313.613a3.041,3.041,0,1,0,3.04-3.042A3.041,3.041,0,0,0,171.613,313.613Z" transform="translate(-170.92 -309.878)" fill="#fe8980"/><path d="M174.848,317.54a3.735,3.735,0,1,1,3.733-3.733A3.739,3.739,0,0,1,174.848,317.54Zm0-6.083a2.349,2.349,0,1,0,2.348,2.35A2.352,2.352,0,0,0,174.848,311.457Z" transform="translate(-171.113 -310.071)" fill="#191919"/></g><g transform="translate(179.214 225.882)" opacity="0.49" style="mix-blend-mode:multiply;isolation:isolate"><path d="M208.044,259.41a3.042,3.042,0,1,0,3.042-3.042A3.042,3.042,0,0,0,208.044,259.41Z" transform="translate(-207.351 -255.675)" fill="#fe8980"/><path d="M211.279,263.337a3.735,3.735,0,1,1,3.735-3.735A3.739,3.739,0,0,1,211.279,263.337Zm0-6.084a2.349,2.349,0,1,0,2.349,2.349A2.351,2.351,0,0,0,211.279,257.254Z" transform="translate(-207.544 -255.868)" fill="#191919"/></g><g transform="translate(24.362 156.344)" opacity="0.49" style="mix-blend-mode:multiply;isolation:isolate"><path d="M96.3,209.23a3.042,3.042,0,1,0,3.042-3.042A3.042,3.042,0,0,0,96.3,209.23Z" transform="translate(-95.607 -205.495)" fill="#fe8980"/><path d="M99.535,213.157a3.735,3.735,0,1,1,3.735-3.735A3.739,3.739,0,0,1,99.535,213.157Zm0-6.084a2.349,2.349,0,1,0,2.349,2.349A2.353,2.353,0,0,0,99.535,207.074Z" transform="translate(-95.8 -205.688)" fill="#191919"/></g><g transform="translate(8.922 251.261)" opacity="0.49" style="mix-blend-mode:multiply;isolation:isolate"><path d="M85.158,277.724a3.042,3.042,0,1,0,3.042-3.042A3.041,3.041,0,0,0,85.158,277.724Z" transform="translate(-84.465 -273.989)" fill="#fe8980"/><path d="M88.393,281.65a3.734,3.734,0,1,1,3.733-3.733A3.739,3.739,0,0,1,88.393,281.65Zm0-6.082a2.348,2.348,0,1,0,2.347,2.349A2.351,2.351,0,0,0,88.393,275.568Z" transform="translate(-84.658 -274.182)" fill="#191919"/></g><g transform="translate(136.785 109.48)" opacity="0.49" style="mix-blend-mode:multiply;isolation:isolate"><path d="M177.427,175.411a3.042,3.042,0,1,0,3.042-3.042A3.041,3.041,0,0,0,177.427,175.411Z" transform="translate(-176.734 -171.677)" fill="#fe8980"/><path d="M180.662,179.338A3.734,3.734,0,1,1,184.4,175.6,3.739,3.739,0,0,1,180.662,179.338Zm0-6.082a2.348,2.348,0,1,0,2.349,2.347A2.351,2.351,0,0,0,180.662,173.256Z" transform="translate(-176.927 -171.87)" fill="#191919"/></g><g transform="translate(186.13 62.616)" opacity="0.49" style="mix-blend-mode:multiply;isolation:isolate"><path d="M213.034,141.594a3.042,3.042,0,1,0,3.042-3.042A3.042,3.042,0,0,0,213.034,141.594Z" transform="translate(-212.342 -137.859)" fill="#fe8980"/><path d="M216.268,145.521A3.735,3.735,0,1,1,220,141.787,3.739,3.739,0,0,1,216.268,145.521Zm0-6.084a2.349,2.349,0,1,0,2.349,2.349A2.351,2.351,0,0,0,216.268,139.438Z" transform="translate(-212.535 -138.052)" fill="#191919"/></g><g transform="translate(87.399 65.658)" opacity="0.49" style="mix-blend-mode:multiply;isolation:isolate"><path d="M141.789,143.789a3.042,3.042,0,1,0,3.042-3.042A3.041,3.041,0,0,0,141.789,143.789Z" transform="translate(-141.096 -140.054)" fill="#fe8980"/><path d="M145.024,147.716a3.735,3.735,0,1,1,3.735-3.735A3.739,3.739,0,0,1,145.024,147.716Zm0-6.084a2.349,2.349,0,1,0,2.349,2.349A2.351,2.351,0,0,0,145.024,141.633Z" transform="translate(-141.289 -140.247)" fill="#191919"/></g><g transform="translate(143.652 9.67)" opacity="0.49" style="mix-blend-mode:multiply;isolation:isolate"><path d="M182.382,103.387a3.042,3.042,0,1,0,3.042-3.042A3.041,3.041,0,0,0,182.382,103.387Z" transform="translate(-181.689 -99.652)" fill="#fe8980"/><path d="M185.617,107.313a3.734,3.734,0,1,1,3.733-3.733A3.739,3.739,0,0,1,185.617,107.313Zm0-6.082a2.348,2.348,0,1,0,2.347,2.349A2.351,2.351,0,0,0,185.617,101.231Z" transform="translate(-181.882 -99.845)" fill="#191919"/></g></g><g transform="translate(390.915 251.164)"><g transform="translate(10.056 29.543)"><path d="M324.669,232.352a6.772,6.772,0,1,1-6.772-6.772,6.772,6.772,0,0,1,6.772,6.772Z" transform="translate(-311.124 -225.58)" fill="#271c22"/></g><g transform="translate(86.742 29.543)"><path d="M380.007,232.352a6.772,6.772,0,1,1-6.772-6.772,6.772,6.772,0,0,1,6.772,6.772Z" transform="translate(-366.462 -225.58)" fill="#271c22"/></g><g transform="translate(0 0.627)"><path d="M337.073,214.114a18.721,18.721,0,0,1-7.374,2.5c-2.713.528-5.434,1.142-7.776,1.749s-5.018,1.4-7.652,2.256a18.665,18.665,0,0,1-7.644,1.4c-2.235-.33-3.683-2.557-2.079-6.171,1.48-3.5,6.514-8.2,14.275-10.228s14.347-.316,17.256,2.045C339.147,210.055,338.878,212.735,337.073,214.114Z" transform="translate(-303.867 -204.714)" fill="#271c22"/></g><g transform="translate(77.104)"><path d="M360.685,212.926a18.687,18.687,0,0,0,7.181,2.992c2.676.719,5.341,1.512,7.643,2.273s4.91,1.739,7.485,2.772a18.682,18.682,0,0,0,7.512,1.917c2.246-.184,3.854-2.3,2.5-6.018-1.24-3.6-5.945-8.62-13.549-11.179s-14.29-1.286-17.355.869C358.879,208.743,358.968,211.424,360.685,212.926Z" transform="translate(-359.507 -204.261)" fill="#271c22"/></g><g transform="translate(30.606 50.808)"><path d="M359.587,251.523a31.436,31.436,0,0,1,16.23-2.532,30.224,30.224,0,0,0-20.256-7.565,35.231,35.231,0,0,0-23.153,8.475,16.835,16.835,0,0,0-5.553,7.806,8.385,8.385,0,0,0,2.411,8.834c3.595,2.773,7.019,1.68,10.582.021a21.9,21.9,0,0,1,5.382-1.689A31.518,31.518,0,0,1,359.587,251.523Z" transform="translate(-325.761 -240.732)" fill="#271c22"/><path d="M334.157,269.113a8.161,8.161,0,0,1-5.12-1.829,9.09,9.09,0,0,1-2.647-9.6,17.475,17.475,0,0,1,5.784-8.14,36.085,36.085,0,0,1,23.584-8.622h.259a30.867,30.867,0,0,1,20.45,7.74l1.639,1.448-2.173-.24a30.077,30.077,0,0,0-29.9,15.53l-.159.29-.326.057a21.135,21.135,0,0,0-5.212,1.635A14.96,14.96,0,0,1,334.157,269.113Zm21.374-26.8a34.555,34.555,0,0,0-22.48,8.309,16.122,16.122,0,0,0-5.348,7.505,7.693,7.693,0,0,0,2.216,8.092c3.028,2.331,5.9,1.739,9.829-.091a22.649,22.649,0,0,1,5.23-1.682,32,32,0,0,1,14.509-13.357l.01,0a32.128,32.128,0,0,1,14.377-2.754,29.376,29.376,0,0,0-18.115-6.018Z" transform="translate(-325.953 -240.925)" fill="#271c22"/><g transform="translate(18.165 7.36)"><path d="M370.582,246.942A30.786,30.786,0,0,0,340,262.827a21.088,21.088,0,0,1,7.536-.014c3.478.64,6.745,2.14,10.181,2.972a27.31,27.31,0,0,0,10.349.474c3.068-.45,7.856-1.788,8.793-5.059,1.052-3.67-1.061-8.286-3.276-11.1A26.2,26.2,0,0,0,370.582,246.942Z" transform="translate(-338.7 -246.042)" fill="#f44c5d"/><path d="M364.473,267.434a27.931,27.931,0,0,1-6.555-.782c-1.535-.373-3.047-.877-4.511-1.368a42.019,42.019,0,0,0-5.635-1.6,20.324,20.324,0,0,0-7.284.015l-1.427.261.693-1.274a31.333,31.333,0,0,1,31.27-16.243l.218.025.163.145a26.953,26.953,0,0,1,3.081,3.244c2.289,2.906,4.551,7.716,3.4,11.722-1.128,3.937-6.921,5.2-9.359,5.554A28.113,28.113,0,0,1,364.473,267.434Zm-20.3-5.453a21.686,21.686,0,0,1,3.848.344,43.062,43.062,0,0,1,5.826,1.646c1.436.481,2.918.976,4.4,1.333a26.448,26.448,0,0,0,10.087.463c1.693-.249,7.295-1.312,8.227-4.565.94-3.279-.908-7.624-3.154-10.476a25.692,25.692,0,0,0-2.756-2.927,29.946,29.946,0,0,0-28.971,14.325A21.829,21.829,0,0,1,344.173,261.981Z" transform="translate(-339.062 -246.236)" fill="#271c22"/></g></g></g><g transform="translate(451.723 326.548)"><g transform="translate(0 0)"><path d="M365.253,261.076c-5.194.635-8.352.459-15.36-1.347l14.124,11.244,12.6-1.077Z" transform="translate(-346.919 -258.248)" fill="#fbaf41"/><path d="M364.63,272.1l-.217-.17L347.747,258.66l3.147.811c7.1,1.829,10.129,1.937,15.1,1.33l.283-.035,12.994,10.083ZM353.6,261.551l11.458,9.121,10.564-.9-9.742-7.559A32.648,32.648,0,0,1,353.6,261.551Z" transform="translate(-347.747 -258.66)" fill="#271c22"/><g transform="translate(15.304 10.936)"><path d="M400.818,289.458l-28.129-22.392-12.6,1.077,35.32,28.117Z" transform="translate(-358.292 -266.354)" fill="#fff"/><path d="M396.016,297.432,358.791,267.8l14.613-1.246.216.17,28.67,22.824Zm-33.638-28.55,33.416,26.6,4.549-5.716-27.37-21.79Z" transform="translate(-358.791 -266.552)" fill="#271c22"/></g></g><g transform="translate(51.737 33.191)"><path d="M386.867,287.548a1.872,1.872,0,0,1,.887-.861,1.557,1.557,0,0,0,.55-.193c.33-.28.071-.844.254-1.235.226-.482.951-.441,1.339-.805a2.6,2.6,0,0,0,.442-.827c.136-.285.406-.565.716-.509a.6.6,0,0,1,.437.586,1.553,1.553,0,0,1-.231.748,8.652,8.652,0,0,1-.646,1.032c-.243.331-.507.646-.773.96l-1.765,2.088c-.485.575-1.041,1.559-1.716,1.921-.539.288-.845-.281-.765-.783A7.062,7.062,0,0,1,386.867,287.548Z" transform="translate(-384.889 -282.418)" fill="#331311"/><path d="M386.273,291.42a1.085,1.085,0,0,1-.636-.206,1.509,1.509,0,0,1-.534-1.456,4.643,4.643,0,0,1,1.013-1.889c.134-.18.263-.349.363-.5h0a2.475,2.475,0,0,1,1.253-1.142c.079-.026.161-.044.244-.064.005.065.01-.054.008-.133a1.921,1.921,0,0,1,.137-.866,1.726,1.726,0,0,1,1.114-.844,1.47,1.47,0,0,0,.378-.17,1.3,1.3,0,0,0,.172-.341c.037-.1.076-.191.119-.281a1.4,1.4,0,0,1,1.465-.894,1.281,1.281,0,0,1,1.007,1.251,2.176,2.176,0,0,1-.312,1.089,9.125,9.125,0,0,1-.7,1.117c-.249.345-.527.672-.8,1l-1.765,2.09c-.129.154-.265.338-.4.531a5.106,5.106,0,0,1-1.512,1.553A1.285,1.285,0,0,1,386.273,291.42Zm1.371-3.3h0c-.115.179-.263.376-.419.583a5.258,5.258,0,0,0-.711,1.12,7.107,7.107,0,0,0,.759-.931c.162-.222.317-.432.466-.607l.679-.8q-.077.021-.141.033A1.316,1.316,0,0,0,387.643,288.117Zm2.463-2.658c-.141.067-.279.116-.4.161a1.557,1.557,0,0,0-.338.147c0,.015,0,.15.005.24a2.923,2.923,0,0,1-.01.356l.144-.17C389.709,285.951,389.913,285.71,390.106,285.459Z" transform="translate(-385.082 -282.611)" fill="#271c22"/></g></g><g transform="translate(134.009 260.317)"><g transform="translate(8.681 28.168)"><circle cx="6.772" cy="6.772" r="6.772" transform="matrix(0.973, -0.23, 0.23, 0.973, 0, 3.112)" fill="#271c22"/></g><g transform="translate(86.742 29.543)"><circle cx="6.772" cy="6.772" r="6.772" fill="#271c22"/></g><g transform="translate(0 0.627)"><path d="M150.69,214.265c-2.909-2.361-9.5-4.076-17.256-2.045s-12.795,6.728-14.275,10.228c-1.6,3.614-.157,5.84,2.079,6.171a18.665,18.665,0,0,0,7.644-1.4c2.634-.856,5.31-1.649,7.652-2.256s5.062-1.221,7.774-1.749a18.742,18.742,0,0,0,7.375-2.5C153.488,219.338,153.758,216.66,150.69,214.265Z" transform="translate(-118.478 -211.319)" fill="#271c22"/></g><g transform="translate(77.104 0)"><path d="M207.615,223.465c-1.24-3.6-5.945-8.619-13.549-11.179s-14.29-1.286-17.355.869c-3.221,2.192-3.132,4.874-1.415,6.376a18.708,18.708,0,0,0,7.181,2.992c2.676.719,5.341,1.512,7.643,2.273s4.91,1.739,7.483,2.772a18.693,18.693,0,0,0,7.514,1.917C207.363,229.3,208.97,227.183,207.615,223.465Z" transform="translate(-174.118 -210.866)" fill="#271c22"/></g><g transform="translate(26.896 54.858)"><path d="M179.21,258.456a21.06,21.06,0,0,1,13.916,5.244,16.943,16.943,0,0,0,.775-1.858,8.388,8.388,0,0,0-2.413-8.834c-3.593-2.772-7.019-1.678-10.582-.019a21.922,21.922,0,0,1-5.381,1.688v0a21.08,21.08,0,0,1-7.534.015c-3.48-.642-6.746-2.141-10.183-2.972a27.31,27.31,0,0,0-10.349-.475c-3.068.45-7.856,1.789-8.793,5.059-1.052,3.671,1.062,8.287,3.276,11.1a26.318,26.318,0,0,0,3,3.161c.316.037.629.047.944.073-.317-.025-.635-.037-.951-.073a30.2,30.2,0,0,0,13.233,6.767A21.168,21.168,0,0,1,179.21,258.456Zm-22.034,11.031.241-.073Z" transform="translate(-137.693 -250.26)" fill="#271c22"/><path d="M158.97,278.369l-.761-.175a31.023,31.023,0,0,1-13.536-6.922l-1.642-1.451.162.018q-.84-.873-1.6-1.814c-2.288-2.907-4.549-7.717-3.4-11.722,1.127-3.938,6.919-5.2,9.357-5.554a27.865,27.865,0,0,1,10.612.486c1.534.371,3.045.876,4.505,1.365a42.161,42.161,0,0,0,5.64,1.6,20.277,20.277,0,0,0,7.286-.014,21.116,21.116,0,0,0,5.212-1.632c3.524-1.639,7.3-2.984,11.3.1a9.1,9.1,0,0,1,2.65,9.6,17.581,17.581,0,0,1-.809,1.946l-.395.82-.685-.6a20.45,20.45,0,0,0-33.811,13.179Zm-12.872-7.7a29.609,29.609,0,0,0,11.677,5.992,21.833,21.833,0,0,1,35.293-13.884c.14-.333.263-.653.371-.967a7.692,7.692,0,0,0-2.217-8.092c-3.031-2.335-5.9-1.736-9.829.09a22.551,22.551,0,0,1-5.553,1.742,21.721,21.721,0,0,1-7.776.012,43.172,43.172,0,0,1-5.833-1.649c-1.434-.479-2.916-.974-4.392-1.332a26.465,26.465,0,0,0-10.086-.463c-1.693.249-7.295,1.314-8.226,4.565-.94,3.279.906,7.625,3.154,10.478a25.507,25.507,0,0,0,2.752,2.923l.322.022.387.028Zm11.462-.323-.38-1.332.143-.044.288.636.2.664Z" transform="translate(-137.887 -250.453)" fill="#271c22"/></g><g transform="translate(46.618 62.362)"><path d="M182.839,267.561a16.827,16.827,0,0,0,4.78-5.949,21.141,21.141,0,0,0-34.955,13.625,30.123,30.123,0,0,0,7.022.8A35.229,35.229,0,0,0,182.839,267.561Z" transform="translate(-151.909 -255.675)" fill="#f44c5d"/><path d="M159.67,276.923a31.13,31.13,0,0,1-6.951-.818l-.6-.139.067-.611a21.834,21.834,0,0,1,36.1-14.073l.4.346-.229.475a17.609,17.609,0,0,1-4.965,6.183,35.928,35.928,0,0,1-23.363,8.635C159.974,276.922,159.824,276.923,159.67,276.923Zm-6.031-2.034a29.721,29.721,0,0,0,6.251.647,34.736,34.736,0,0,0,22.709-8.31l.024-.018a16.211,16.211,0,0,0,4.344-5.228,20.448,20.448,0,0,0-33.328,12.91Z" transform="translate(-152.119 -255.868)" fill="#271c22"/></g></g><g transform="translate(513.103 260.945)" opacity="0.6"><path d="M400.65,300.91c-.542-4.742-3-9.009-5.134-13.278s-4.031-8.969-3.325-13.689c1.178-7.86,8.992-13.019,11.866-20.429,3.84-9.9-1.843-21.614,2.083-31.478,3.2-8.028,13.116-12.652,21.319-9.937s13.407,12.344,11.182,20.694c-.926,3.474-2.948,6.695-3.11,10.287-.42,9.333,11.6,16.595,9.344,25.66-1.334,5.364-7.106,8.209-12.355,9.939s-11.135,3.421-14.023,8.133c-2.6,4.239-1.941,9.638-3.046,14.485-1.649,7.245-8.424,13.948-15.9,15.048-4.523.667-4.511.15-2.943-3.538C398.427,308.525,401.24,306.074,400.65,300.91Z" transform="translate(-392.04 -211.319)" fill="#fff"/></g></g><g transform="translate(540 2313.042)"><path d="M442.519,51.487a7.277,7.277,0,0,1-5.942-5.942,22.172,22.172,0,0,0-.7-3.135,22.2,22.2,0,0,0-.7,3.132,7.294,7.294,0,0,1-5.964,5.946,21.934,21.934,0,0,0-3.114.7,22.028,22.028,0,0,0,3.136.7,7.281,7.281,0,0,1,5.939,5.939,22.026,22.026,0,0,0,.7,3.136,21.854,21.854,0,0,0,.7-3.114,7.3,7.3,0,0,1,5.947-5.964,22.344,22.344,0,0,0,3.132-.7A22.2,22.2,0,0,0,442.519,51.487Z" transform="translate(-14 9.777)" fill="#636363"/><path d="M477.532,286.766a7.277,7.277,0,0,1-5.942-5.942,22.172,22.172,0,0,0-.7-3.135,22.2,22.2,0,0,0-.7,3.132,7.294,7.294,0,0,1-5.964,5.946,21.932,21.932,0,0,0-3.114.7,22.03,22.03,0,0,0,3.136.7,7.28,7.28,0,0,1,5.939,5.939,22.025,22.025,0,0,0,.7,3.136,21.854,21.854,0,0,0,.7-3.114,7.3,7.3,0,0,1,5.947-5.964,22.348,22.348,0,0,0,3.132-.7A22.2,22.2,0,0,0,477.532,286.766Z" transform="translate(-229 122)" fill="#636363"/><path d="M356.419,447.112a7.28,7.28,0,0,1-5.942-5.942,22.217,22.217,0,0,0-.7-3.136,22.33,22.33,0,0,0-.7,3.133,7.3,7.3,0,0,1-5.964,5.946,21.851,21.851,0,0,0-3.114.7,22.03,22.03,0,0,0,3.136.7,7.279,7.279,0,0,1,5.939,5.939,22,22,0,0,0,.7,3.136,21.791,21.791,0,0,0,.7-3.114,7.3,7.3,0,0,1,5.946-5.964,22.081,22.081,0,0,0,3.133-.7A22.247,22.247,0,0,0,356.419,447.112Z" transform="translate(169 -208.594)" fill="#636363"/><path d="M106.481,53.431a7.28,7.28,0,0,1-5.942-5.942,22.391,22.391,0,0,0-.7-3.136,22.046,22.046,0,0,0-.7,3.133,7.3,7.3,0,0,1-5.964,5.946,21.819,21.819,0,0,0-3.114.7,21.968,21.968,0,0,0,3.136.7,7.277,7.277,0,0,1,5.938,5.939,21.982,21.982,0,0,0,.7,3.135,21.971,21.971,0,0,0,.7-3.113,7.3,7.3,0,0,1,5.946-5.965,22.046,22.046,0,0,0,3.133-.7A22.248,22.248,0,0,0,106.481,53.431Z" transform="translate(86 -23.721)" fill="#636363"/><path d="M35.754,298.739a7.279,7.279,0,0,1-5.943-5.942,22.053,22.053,0,0,0-.7-3.135,22.2,22.2,0,0,0-.7,3.132,7.294,7.294,0,0,1-5.964,5.946,21.932,21.932,0,0,0-3.114.7,22.03,22.03,0,0,0,3.136.7,7.28,7.28,0,0,1,5.939,5.939,22.026,22.026,0,0,0,.7,3.136,21.851,21.851,0,0,0,.7-3.114,7.3,7.3,0,0,1,5.947-5.964,22.344,22.344,0,0,0,3.132-.7A22.23,22.23,0,0,0,35.754,298.739Z" transform="translate(-53 -25)" fill="#636363"/><path d="M85.561,444.025a7.28,7.28,0,0,1-5.942-5.942,22.223,22.223,0,0,0-.7-3.136,22.366,22.366,0,0,0-.7,3.133,7.292,7.292,0,0,1-5.964,5.946,21.857,21.857,0,0,0-3.114.7,22.168,22.168,0,0,0,3.136.7,7.278,7.278,0,0,1,5.939,5.939,22.029,22.029,0,0,0,.7,3.136,21.86,21.86,0,0,0,.7-3.114,7.3,7.3,0,0,1,5.946-5.965,22.252,22.252,0,0,0,3.133-.7A22.22,22.22,0,0,0,85.561,444.025Z" transform="translate(258 34)" fill="#636363"/></g></g><g transform="translate(99.156 -27)"><g transform="translate(355.844 2782.478)"><g transform="matrix(1, 0, 0, 1, -55.26, -455.48)" filter="url(#a)"><circle cx="36.261" cy="36.261" r="36.261" transform="translate(55.26 455.48)" fill="#fff"/></g><g transform="translate(9.392 9.392)"><circle cx="26.869" cy="26.869" r="26.869" fill="#f98473"/><g transform="translate(17.311 7.989)"><text transform="translate(0 29)" fill="#fff" font-size="31" font-family="Roboto-Black, Roboto" font-weight="800"><tspan x="0" y="0">1</tspan></text></g></g></g></g><g transform="translate(717.765 -27)"><g transform="translate(355.844 2782.478)"><g transform="matrix(1, 0, 0, 1, -673.87, -455.48)" filter="url(#c)"><circle cx="36.261" cy="36.261" r="36.261" transform="translate(673.87 455.48)" fill="#fff"/></g><g transform="translate(9.392 9.392)"><circle cx="26.869" cy="26.869" r="26.869" fill="#f98473"/><g transform="translate(17.311 7.989)"><text transform="translate(0 29)" fill="#fff" font-size="31" font-family="Roboto-Black, Roboto" font-weight="800"><tspan x="0" y="0">8</tspan></text></g></g></g></g><g transform="translate(775.765 -183)"><g transform="translate(355.844 2782.478)"><g transform="matrix(1, 0, 0, 1, -731.87, -299.48)" filter="url(#e)"><circle cx="36.261" cy="36.261" r="36.261" transform="translate(731.87 299.48)" fill="#fff"/></g><g transform="translate(9.392 9.392)"><circle cx="26.869" cy="26.869" r="26.869" fill="#f98473"/><g transform="translate(17.311 7.989)"><text transform="translate(0 29)" fill="#fff" font-size="31" font-family="Roboto-Black, Roboto" font-weight="800"><tspan x="0" y="0">7</tspan></text></g></g></g></g><g transform="translate(754.026 -339)"><g transform="translate(355.844 2782.478)"><g transform="matrix(1, 0, 0, 1, -710.13, -143.48)" filter="url(#g)"><circle cx="36.261" cy="36.261" r="36.261" transform="translate(710.13 143.48)" fill="#fff"/></g><g transform="translate(9.392 9.392)"><circle cx="26.869" cy="26.869" r="26.869" fill="#f98473"/><g transform="translate(17.311 7.989)"><text transform="translate(0 29)" fill="#fff" font-size="31" font-family="Roboto-Black, Roboto" font-weight="800"><tspan x="0" y="0">6</tspan></text></g></g></g></g><g transform="translate(665.026 -475)"><g transform="translate(355.844 2782.478)"><g transform="matrix(1, 0, 0, 1, -621.13, -7.48)" filter="url(#i)"><circle cx="36.261" cy="36.261" r="36.261" transform="translate(621.13 7.48)" fill="#fff"/></g><g transform="translate(9.392 9.392)"><circle cx="26.869" cy="26.869" r="26.869" fill="#f98473"/><g transform="translate(17.311 7.989)"><text transform="translate(0 29)" fill="#fff" font-size="31" font-family="Roboto-Black, Roboto" font-weight="800"><tspan x="0" y="0">5</tspan></text></g></g></g></g><g transform="translate(49.895 -183)"><g transform="translate(355.844 2782.478)"><g transform="matrix(1, 0, 0, 1, -6, -299.48)" filter="url(#k)"><circle cx="36.261" cy="36.261" r="36.261" transform="translate(6 299.48)" fill="#fff"/></g><g transform="translate(9.392 9.392)"><circle cx="26.869" cy="26.869" r="26.869" fill="#f98473"/><g transform="translate(17.311 7.989)"><text transform="translate(0 29)" fill="#fff" font-size="31" font-family="Roboto-Black, Roboto" font-weight="800"><tspan x="0" y="0">2</tspan></text></g></g></g></g><g transform="translate(74.895 -339)"><g transform="translate(355.844 2782.478)"><g transform="matrix(1, 0, 0, 1, -31, -143.48)" filter="url(#m)"><circle cx="36.261" cy="36.261" r="36.261" transform="translate(31 143.48)" fill="#fff"/></g><g transform="translate(9.392 9.392)"><circle cx="26.869" cy="26.869" r="26.869" fill="#f98473"/><g transform="translate(17.311 7.989)"><text transform="translate(0 29)" fill="#fff" font-size="31" font-family="Roboto-Black, Roboto" font-weight="800"><tspan x="0" y="0">3</tspan></text></g></g></g></g><g transform="translate(171.679 -475)"><g transform="translate(355.844 2782.478)"><g transform="matrix(1, 0, 0, 1, -127.78, -7.48)" filter="url(#o)"><circle cx="36.261" cy="36.261" r="36.261" transform="translate(127.78 7.48)" fill="#fff"/></g><g transform="translate(9.392 9.392)"><circle cx="26.869" cy="26.869" r="26.869" fill="#f98473"/><g transform="translate(17.311 7.989)"><text transform="translate(0 29)" fill="#fff" font-size="31" font-family="Roboto-Black, Roboto" font-weight="800"><tspan x="0" y="0">4</tspan></text></g></g></g></g></g></svg>