<svg xmlns="http://www.w3.org/2000/svg" xmlns:xlink="http://www.w3.org/1999/xlink" width="472" height="222" viewBox="0 0 472 222"><defs><linearGradient id="a" x1="0.07" y1="1" x2="1" y2="1" gradientUnits="objectBoundingBox"><stop offset="0" stop-color="#b8d3f1"/><stop offset="0.49" stop-color="#0069a9"/><stop offset="0.676" stop-color="#146298"/><stop offset="1" stop-color="#38557a"/></linearGradient><linearGradient id="b" y1="1" x2="0.945" y2="1" gradientUnits="objectBoundingBox"><stop offset="0" stop-color="#006c59"/><stop offset="0.243" stop-color="#169633"/><stop offset="0.498" stop-color="#99c812"/><stop offset="0.745" stop-color="#fdde10"/><stop offset="1" stop-color="#e16f16"/></linearGradient><linearGradient id="c" x1="0.07" y1="1" x2="1" y2="1" gradientUnits="objectBoundingBox"><stop offset="0" stop-color="#da3f17"/><stop offset="0.49" stop-color="#d52d19"/><stop offset="1" stop-color="#882321"/></linearGradient></defs><g transform="translate(-758 -2152)"><rect width="472" height="222" transform="translate(758 2152)" fill="#fff"/><g transform="translate(375 5)"><g transform="translate(0 31)"><rect width="105" height="35" transform="translate(418 2248)" fill="url(#a)"/><rect width="175" height="35" transform="translate(532 2248)" fill="url(#b)"/><rect width="105" height="35" transform="translate(716 2248)" fill="url(#c)"/><line y2="24" transform="translate(567 2248)" fill="none" stroke="#fff" stroke-width="1"/><line y2="24" transform="translate(601.5 2248)" fill="none" stroke="#fff" stroke-width="1"/><line y2="24" transform="translate(636 2248)" fill="none" stroke="#fff" stroke-width="1"/><line y2="24" transform="translate(672 2248)" fill="none" stroke="#fff" stroke-width="1"/><line y2="24" transform="translate(453.5 2248)" fill="none" stroke="#fff" stroke-width="1"/><line y2="24" transform="translate(488 2248)" fill="none" stroke="#fff" stroke-width="1"/><line y2="24" transform="translate(751.25 2248)" fill="none" stroke="#fff" stroke-width="1"/><line y2="24" transform="translate(785.75 2248)" fill="none" stroke="#fff" stroke-width="1"/></g><g transform="translate(0 31)"><text transform="translate(431 2254)" fill="#fff" font-size="20" font-family="Roboto-Black, Roboto" font-weight="800"><tspan x="0" y="21">0</tspan></text><text transform="translate(543 2254)" fill="#fff" font-size="20" font-family="Roboto-Black, Roboto" font-weight="800"><tspan x="0" y="21">3</tspan></text><text transform="translate(465 2254)" fill="#fff" font-size="20" font-family="Roboto-Black, Roboto" font-weight="800"><tspan x="0" y="21">1</tspan></text><text transform="translate(577 2254)" fill="#fff" font-size="20" font-family="Roboto-Black, Roboto" font-weight="800"><tspan x="0" y="21">4</tspan></text><text transform="translate(650 2254)" fill="#fff" font-size="20" font-family="Roboto-Black, Roboto" font-weight="800"><tspan x="0" y="21">6</tspan></text><text transform="translate(762 2254)" fill="#fff" font-size="20" font-family="Roboto-Black, Roboto" font-weight="800"><tspan x="0" y="21">9</tspan></text><text transform="translate(499 2254)" fill="#fff" font-size="20" font-family="Roboto-Black, Roboto" font-weight="800"><tspan x="0" y="21">2</tspan></text><text transform="translate(613 2254)" fill="#fff" font-size="20" font-family="Roboto-Black, Roboto" font-weight="800"><tspan x="0" y="21">5</tspan></text><text transform="translate(729 2254)" fill="#fff" font-size="20" font-family="Roboto-Black, Roboto" font-weight="800"><tspan x="0" y="21">8</tspan></text><text transform="translate(684 2254)" fill="#fff" font-size="20" font-family="Roboto-Black, Roboto" font-weight="800"><tspan x="0" y="21">7</tspan></text><text transform="translate(790 2254)" fill="#fff" font-size="20" font-family="Roboto-Black, Roboto" font-weight="800"><tspan x="0" y="21">10</tspan></text></g><g transform="translate(0 35)"><text transform="translate(589 2235)" fill="#12263f" font-size="13" font-family="Roboto-Regular, Roboto"><tspan x="0" y="0">Moderada</tspan></text><text transform="translate(747 2235)" fill="#12263f" font-size="13" font-family="Roboto-Regular, Roboto"><tspan x="0" y="0">Intensa</tspan></text><text transform="translate(458 2235)" fill="#12263f" font-size="13" font-family="Roboto-Regular, Roboto"><tspan x="0" y="0">Leve</tspan></text><path d="M-2612.667-9469.5H-2524" transform="translate(3106 11700)" fill="none" stroke="#12263f" stroke-width="1"/><path d="M-2612.667-9469.5H-2524" transform="translate(3265 11700)" fill="none" stroke="#12263f" stroke-width="1"/><path d="M-2612.667-9469.5h27" transform="translate(3406.667 11700)" fill="none" stroke="#12263f" stroke-width="1"/><path d="M-2612.667-9469.5h33.333" transform="translate(3030.667 11700)" fill="none" stroke="#12263f" stroke-width="1"/><path d="M-2579.333-9477v13.667" transform="translate(3290.667 11700)" fill="none" stroke="#12263f" stroke-width="4"/><path d="M-2579.333-9477v13.667" transform="translate(3106 11700)" fill="none" stroke="#12263f" stroke-width="4"/></g><text transform="translate(418 2214)" fill="#12263f" font-size="13" font-family="Roboto-Regular, Roboto"><tspan x="0" y="0">----------------------------------------------------------------------------------------------------------------</tspan></text><text transform="translate(418 2233)" fill="#12263f" font-size="13" font-family="Roboto-Regular, Roboto"><tspan x="0" y="0" xml:space="preserve">0         1          2          3         4          5          6          7           8         9         10</tspan></text><g transform="translate(601 2216)" fill="none" stroke="#c32a1a" stroke-width="2"><circle cx="12.5" cy="12.5" r="12.5" stroke="none"/><circle cx="12.5" cy="12.5" r="11.5" fill="none"/></g></g></g></svg>