<svg xmlns="http://www.w3.org/2000/svg" width="94" height="94" viewBox="0 0 94 94"><rect width="94" height="94" fill="none"/><g transform="translate(7.001 7.502)"><path d="M13.78,94.212,7.864,88.3a1.273,1.273,0,0,1,0-1.8L57.352,37.007l7.717,7.717L15.581,94.212a1.274,1.274,0,0,1-1.8,0Zm0,0" transform="translate(-6.321 -31.224)" fill="#cfd8dc"/><path d="M83.892,66.391,33.5,116.779,35.729,119a1.273,1.273,0,0,0,1.8,0L87.017,69.515Zm0,0" transform="translate(-28.27 -56.016)" fill="#90a4ae"/><path d="M13.78,246.5l-5.916-5.916a1.273,1.273,0,0,1,0-1.8L29.151,217.5l7.717,7.717L15.581,246.5a1.274,1.274,0,0,1-1.8,0Zm0,0" transform="translate(-6.321 -183.512)" fill="#ffa726"/><path d="M55.691,246.879,33.5,269.066l2.225,2.225a1.273,1.273,0,0,0,1.8,0L58.816,250Zm0,0" transform="translate(-28.27 -208.303)" fill="#f57c00"/><path d="M122.712,217.492l7.717,7.717-4.334,4.334-7.716-7.717Zm0,0" transform="translate(-99.882 -183.508)" fill="#78909c"/><path d="M106.342,339.365l-5.916-5.916a1.274,1.274,0,0,1,0-1.8l21.19-21.19a.137.137,0,0,1,.194,0l7.523,7.523a.137.137,0,0,1,0,.194l-21.19,21.19a1.274,1.274,0,0,1-1.8,0Zm0,0" transform="translate(-84.42 -261.915)" fill="#ffa726"/><path d="M155.5,317.98l-7.522-7.522a.137.137,0,0,0-.194,0l-2.247,2.247,5.275,5.276a.137.137,0,0,1,0,.194L131.063,337.92l1.443,1.444a1.274,1.274,0,0,0,1.8,0l21.19-21.19a.137.137,0,0,0,0-.194Zm0,0" transform="translate(-110.585 -261.914)" fill="#f57c00"/><path d="M218.65,322.412l-7.717-7.716,4.237-4.237a.137.137,0,0,1,.194,0l7.523,7.522a.137.137,0,0,1,0,.194Zm0,0" transform="translate(-177.975 -261.915)" fill="#78909c"/><path d="M147.758,251.213l4.334-4.334L155.217,250l-4.334,4.334Zm0,0" transform="translate(-124.671 -208.303)" fill="#455a64"/><path d="M233.639,317.98l-7.522-7.522a.137.137,0,0,0-.194,0l-2.247,2.247,4.2,4.2a1.654,1.654,0,0,1,0,2.339l-.821.821,2.344,2.344,4.237-4.237A.138.138,0,0,0,233.639,317.98Zm0,0" transform="translate(-188.727 -261.914)" fill="#455a64"/><path d="M334.318,28.132,326.6,20.416l2.93-2.93a.489.489,0,0,1,.691,0l7.025,7.026a.488.488,0,0,1,0,.691Zm0,0" transform="translate(-275.57 -14.633)" fill="#78909c"/><path d="M345.651,24.513l-7.025-7.025a.488.488,0,0,0-.691,0l-1.373,1.373,3.6,3.6a1.4,1.4,0,0,1,0,1.979l-.566.567,3.125,3.125,2.929-2.93a.488.488,0,0,0,0-.691Zm0,0" transform="translate(-283.975 -14.634)" fill="#455a64"/><path d="M359.764,15.535l-5.678-5.678,2.168-2.169a.635.635,0,0,1,.9,0l4.78,4.781a.634.634,0,0,1,0,.9Zm0,0" transform="translate(-298.761 -6.329)" fill="#78909c"/><path d="M251.089,291.366l-5.581-5.581,5.579-5.579a.615.615,0,0,1,.87,0l4.711,4.711a.616.616,0,0,1,0,.87Zm0,0" transform="translate(-207.148 -236.27)" fill="#cfd8dc"/><path d="M274.15,284.917l-4.711-4.711a.614.614,0,0,0-.87,0l-1.909,1.909,1.592,1.593a2.325,2.325,0,0,1,0,3.289l-2.026,2.026,2.344,2.344,5.579-5.579A.615.615,0,0,0,274.15,284.917Zm0,0" transform="translate(-224.63 -236.271)" fill="#90a4ae"/><path d="M316.045,208.485a4.1,4.1,0,0,1,0,5.791l-6.449,6.449a.638.638,0,0,1-.9,0l-4.888-4.888a.638.638,0,0,1,0-.9l6.449-6.449a4.1,4.1,0,0,1,5.791,0Zm0,0" transform="translate(-256.178 -174.896)" fill="#42a5f5"/><path d="M333.236,208.487a4.1,4.1,0,0,0-5.239-.462,4.094,4.094,0,0,1,.552,6.253l-4.556,4.557,1.892,1.892a.638.638,0,0,0,.9,0l6.449-6.449A4.1,4.1,0,0,0,333.236,208.487Zm0,0" transform="translate(-273.368 -174.898)" fill="#1976d2"/><path d="M422.92,93.441l7.194,7.194-6.58,6.58-7.194-7.194Zm0,0" transform="translate(-351.287 -78.84)" fill="#cfd8dc"/><path d="M329.737,132.5l-11.365-11.365a.736.736,0,0,0-1.041,0L302.9,135.564a.737.737,0,0,0,0,1.041l2.787,2.786,3.78-3.779a4.095,4.095,0,1,1,5.791,5.791l-3.779,3.78,2.786,2.787a.737.737,0,0,0,1.041,0l14.431-14.431a.736.736,0,0,0,0-1.041Zm0,0" transform="translate(-255.391 -102.023)" fill="#42a5f5"/><path d="M445.8,93.445l-2.344,2.344,3.373,3.373a2.09,2.09,0,0,1,0,2.955l-2.759,2.759,2.344,2.344,6.58-6.58Zm0,0" transform="translate(-374.167 -78.844)" fill="#90a4ae"/><path d="M378.2,132.5,366.84,121.132a.736.736,0,0,0-1.041,0l-2.605,2.6,5.425,5.425a5.453,5.453,0,0,1,0,7.711l-8.491,8.491,2.6,2.6a.737.737,0,0,0,1.041,0L378.2,133.538a.736.736,0,0,0,0-1.041Zm0,0" transform="translate(-303.859 -102.023)" fill="#1976d2"/><path d="M277.457,309.172A1.172,1.172,0,1,1,276.285,308,1.172,1.172,0,0,1,277.457,309.172Zm0,0" transform="translate(-232.127 -259.874)"/><path d="M446.848,123.852a1.172,1.172,0,1,1-1.172-1.172A1.172,1.172,0,0,1,446.848,123.852Zm0,0" transform="translate(-375.051 -103.51)"/><path d="M462.778,139.781a1.172,1.172,0,1,1-1.172-1.172A1.171,1.171,0,0,1,462.778,139.781Zm0,0" transform="translate(-388.492 -116.951)"/><path d="M62.506,11.4a1.661,1.661,0,0,0,.143-2.181L64,7.866a1.81,1.81,0,0,0,0-2.555L59.22.531a1.806,1.806,0,0,0-2.556,0L55.314,1.881a1.656,1.656,0,0,0-2.182.144C37.327,17.829,44.9,10.253,42.76,12.4a1.172,1.172,0,1,0,1.657,1.657L51.031,7.44,57.09,13.5,30.546,40.044l-6.059-6.059L40.55,17.922a1.172,1.172,0,0,0-1.658-1.657L.714,54.443a2.447,2.447,0,0,0,0,3.457L6.63,63.816a2.443,2.443,0,0,0,3.458,0L62.506,11.4Zm-.542-4.81-.96.96L56.983,3.527l.96-.959ZM54.306,4.166c12.25,12.249,1.352,1.352,6.059,6.059l-1.617,1.617L52.689,5.783ZM28.889,41.7l-2.677,2.677-6.059-6.059,2.676-2.677ZM8.288,62.159,2.372,56.243c-.111-.111-1.1.958,16.124-16.267l6.059,6.06C7.329,63.261,8.4,62.27,8.288,62.159Zm0,0" transform="translate(0)"/><path d="M123.728,273.047a1.787,1.787,0,0,0-2.527,0l-4.751,4.751-.141-.142a1.309,1.309,0,0,0-1.852,0l-21.19,21.19a2.443,2.443,0,0,0,0,3.457l5.916,5.916a2.443,2.443,0,0,0,3.458,0l7.682-7.682a1.172,1.172,0,0,0-1.658-1.657c-8.14,8.14-7.714,7.793-7.825,7.682l-5.916-5.916c-.111-.111-1.1.958,16.124-16.267l6.059,6.06-4.575,4.575a1.172,1.172,0,1,0,1.658,1.657l9.639-9.64a1.3,1.3,0,0,0,.385-.926,1.4,1.4,0,0,0-.526-1.068l4.75-4.75a1.787,1.787,0,0,0,0-2.527Zm-4.963,15.734-6.059-6.059,2.676-2.677,6.06,6.059Zm3.267-5.4-3.924-3.924,4.357-4.357,3.924,3.923Zm0,0" transform="translate(-78.09 -229.941)"/><path d="M219.419,149.331a1.172,1.172,0,0,0-1.428-.842l-4.493,1.159a1.173,1.173,0,0,0-.536,1.964l1.237,1.237-3.11.947a1.172,1.172,0,0,0,.341,2.293c.249,0-.1.085,5.32-1.567a1.172,1.172,0,0,0,.488-1.949l-1.167-1.167,2.506-.647A1.171,1.171,0,0,0,219.419,149.331Zm0,0" transform="translate(-177.406 -125.255)"/><path d="M328.717,93.483l-7.194-7.194a1.173,1.173,0,0,0-1.658,0l-5.751,5.751L312.87,90.8a1.907,1.907,0,0,0-2.7,0l-14.431,14.431a1.907,1.907,0,0,0,0,2.7l1.958,1.957-1.841,1.841a1.81,1.81,0,0,0,0,2.56l4.888,4.888a1.81,1.81,0,0,0,2.56,0l1.841-1.84,1.958,1.958a1.907,1.907,0,0,0,2.7,0l1.674-1.674a1.172,1.172,0,1,0-1.657-1.658l-1.366,1.366-1.65-1.649,2.951-2.951a5.267,5.267,0,1,0-7.449-7.449l-2.951,2.951-1.65-1.65,13.814-13.814,10.748,10.748-8.582,8.582a1.172,1.172,0,1,0,1.658,1.657l8.889-8.889a1.907,1.907,0,0,0,0-2.7l-1.27-1.27,5.752-5.751a1.172,1.172,0,0,0,0-1.657Zm-24.752,13.45a2.923,2.923,0,0,1,4.133,4.135l-6.071,6.072L297.893,113Zm17.343-7.7L315.771,93.7l4.923-4.923,5.537,5.537Zm0,0" transform="translate(-249.06 -72.515)"/></g></svg>