<svg xmlns="http://www.w3.org/2000/svg" width="94" height="94" viewBox="0 0 94 94"><g transform="translate(-196 -1184)"><rect width="94" height="94" transform="translate(196 1184)" fill="none"/><g transform="translate(10.471 1159.549)"><g transform="translate(193.35 42.636)"><path d="M194.668,56.274c.988,2.784,2.963,5.037,4.724,7.365l1.957,2.253a1.851,1.851,0,0,0,3.052,0l1.962-2.253c1.761-2.328,3.731-4.581,4.724-7.365,2.355-6.619-1.171-13.05-8.209-13.05S192.308,49.655,194.668,56.274Zm11.865-4.053a3.656,3.656,0,1,1-3.655-3.629A3.646,3.646,0,0,1,206.533,52.221Z" transform="translate(-193.938 -43.224)" fill="#ffd772" fill-rule="evenodd"/></g><g transform="translate(197.351 72.825)"><path d="M204.868,88.433a4.938,4.938,0,1,0,4.938,4.939A4.937,4.937,0,0,0,204.868,88.433Z" transform="translate(-199.929 -88.433)" fill="#a7e9a6" fill-rule="evenodd"/></g><g transform="translate(227.588 72.825)"><path d="M250.149,88.433a4.938,4.938,0,1,0,4.938,4.939A4.94,4.94,0,0,0,250.149,88.433Z" transform="translate(-245.211 -88.433)" fill="#a7e9a6" fill-rule="evenodd"/></g><g transform="translate(223.589 42.636)"><path d="M246.636,65.892a1.851,1.851,0,0,0,3.052,0l1.958-2.253c1.761-2.328,3.736-4.581,4.723-7.365,2.356-6.619-1.166-13.05-8.209-13.05s-10.565,6.431-8.209,13.05c.992,2.784,2.963,5.037,4.724,7.365Zm5.18-13.671a3.656,3.656,0,1,1-3.656-3.629A3.643,3.643,0,0,1,251.815,52.221Z" transform="translate(-239.222 -43.224)" fill="#75cef8" fill-rule="evenodd"/></g><g transform="translate(257.83 72.825)"><path d="M300.376,93.372a4.938,4.938,0,1,0-4.939,4.938A4.94,4.94,0,0,0,300.376,93.372Z" transform="translate(-290.499 -88.433)" fill="#a7e9a6" fill-rule="evenodd"/></g><g transform="translate(201.279 42.636)"><path d="M215.032,56.274c2.355-6.619-1.171-13.05-8.209-13.05-.345,0-.684.013-1.01.045.3,1.613.541,3.406.71,5.336.1-.009.2-.013.3-.013a3.629,3.629,0,1,1,0,7.258,72.445,72.445,0,0,1-.787,10.645,1.684,1.684,0,0,0,.787.2,2.048,2.048,0,0,0,1.524-.8l1.962-2.253c1.761-2.328,3.731-4.581,4.724-7.365Z" transform="translate(-205.812 -43.224)" fill="#fbba58" fill-rule="evenodd"/></g><g transform="translate(231.521 42.632)"><path d="M260.315,56.267c2.355-6.618-1.166-13.049-8.209-13.049-.344,0-.679.013-1.006.045.3,1.613.536,3.4.71,5.336.1-.009.2-.013.3-.013a3.629,3.629,0,1,1,0,7.258,71.743,71.743,0,0,1-.782,10.645,1.667,1.667,0,0,0,.782.2,2.05,2.05,0,0,0,1.529-.8l1.957-2.252C257.352,61.3,259.327,59.052,260.315,56.267Z" transform="translate(-251.1 -43.218)" fill="#60b7ff" fill-rule="evenodd"/></g><g transform="translate(200.265 72.825)"><path d="M211.256,93.372a4.938,4.938,0,0,0-6.963-4.5,4.94,4.94,0,0,1,0,9.014,4.948,4.948,0,0,0,6.963-4.509Z" transform="translate(-204.293 -88.433)" fill="#7fdbae" fill-rule="evenodd"/></g><g transform="translate(230.507 72.825)"><path d="M249.581,88.866a4.943,4.943,0,0,1,0,9.015,4.941,4.941,0,1,0,0-9.015Z" transform="translate(-249.581 -88.433)" fill="#7fdbae" fill-rule="evenodd"/></g><g transform="translate(260.744 72.825)"><path d="M294.863,88.866a4.94,4.94,0,0,1,0,9.015,4.941,4.941,0,1,0,0-9.015Z" transform="translate(-294.863 -88.433)" fill="#7fdbae" fill-rule="evenodd"/></g><g transform="translate(253.829 42.636)"><path d="M285.237,56.274c.988,2.784,2.963,5.037,4.724,7.365l1.958,2.253a1.85,1.85,0,0,0,3.052,0l1.962-2.253c1.761-2.328,3.731-4.581,4.724-7.365,2.355-6.619-1.171-13.05-8.209-13.05S282.878,49.655,285.237,56.274ZM297.1,52.221a3.656,3.656,0,1,1-3.656-3.629A3.646,3.646,0,0,1,297.1,52.221Z" transform="translate(-284.507 -43.224)" fill="#eb5468" fill-rule="evenodd"/></g><g transform="translate(261.758 42.636)"><path d="M305.6,56.274c2.356-6.619-1.171-13.05-8.209-13.05-.344,0-.684.013-1.01.045.3,1.613.541,3.406.711,5.336.1-.009.2-.013.3-.013a3.629,3.629,0,1,1,0,7.258,72.261,72.261,0,0,1-.787,10.645,1.686,1.686,0,0,0,.787.2,2.047,2.047,0,0,0,1.524-.8l1.962-2.253c1.762-2.328,3.732-4.581,4.724-7.365Z" transform="translate(-296.382 -43.224)" fill="#e5384f" fill-rule="evenodd"/></g><g transform="translate(192.169 41.454)"><path d="M255.038,54.3a4.838,4.838,0,1,0-4.839,4.811A4.831,4.831,0,0,0,255.038,54.3Zm-7.312,0a2.474,2.474,0,1,1,2.473,2.446A2.463,2.463,0,0,1,247.726,54.3Z" transform="translate(-209.841 -44.125)"/><path d="M200.079,54.3a4.838,4.838,0,1,0,4.839-4.811A4.831,4.831,0,0,0,200.079,54.3Zm7.311,0a2.473,2.473,0,1,1-2.473-2.447A2.462,2.462,0,0,1,207.39,54.3Z" transform="translate(-194.797 -44.125)"/><path d="M271.706,76.581h-2.933a6.136,6.136,0,0,0-4.822-4.823V67.025a3.657,3.657,0,0,0,1.233-.945l1.963-2.253c.018-.021.915-1.188.915-1.188a1.182,1.182,0,1,0-1.87-1.447s-.6.777-.855,1.114L263.4,64.529a.7.7,0,0,1-1.266,0L260.2,62.306c-.282-.373-.57-.745-.859-1.116a21.869,21.869,0,0,1-3.67-5.9,9.271,9.271,0,0,1,.76-8.432,8.123,8.123,0,0,1,12.667,0,9.275,9.275,0,0,1,.765,8.434,12.73,12.73,0,0,1-.9,1.959,1.182,1.182,0,1,0,2.061,1.159,15.1,15.1,0,0,0,1.071-2.324,11.629,11.629,0,0,0-1.06-10.591,10.479,10.479,0,0,0-16.532,0,11.623,11.623,0,0,0-1.056,10.588,24.009,24.009,0,0,0,4.029,6.557c.291.375.9,1.168.917,1.188l1.956,2.251a3.667,3.667,0,0,0,1.239.95v4.731a6.138,6.138,0,0,0-4.822,4.823H238.531a6.137,6.137,0,0,0-4.822-4.823V67.027a3.66,3.66,0,0,0,1.239-.948l1.957-2.252c.017-.02.626-.813.917-1.189a24,24,0,0,0,4.029-6.555,11.631,11.631,0,0,0-1.06-10.593,10.477,10.477,0,0,0-16.527,0,11.63,11.63,0,0,0-1.06,10.592,24.14,24.14,0,0,0,4.035,6.564c.288.373.893,1.161.91,1.181l1.961,2.251a3.67,3.67,0,0,0,1.234.946v4.733a6.136,6.136,0,0,0-4.822,4.823H208.294a6.138,6.138,0,0,0-4.823-4.823V67.025a3.659,3.659,0,0,0,1.233-.945l1.962-2.253c.018-.021.915-1.188.915-1.188a1.182,1.182,0,1,0-1.87-1.447s-.608.787-.855,1.114l-1.936,2.223a.7.7,0,0,1-1.267,0l-1.931-2.222c-.282-.373-.571-.745-.859-1.117a21.88,21.88,0,0,1-3.669-5.9,9.269,9.269,0,0,1,.761-8.432,8.122,8.122,0,0,1,12.666,0,9.275,9.275,0,0,1,.765,8.434,12.73,12.73,0,0,1-.9,1.959,1.182,1.182,0,0,0,2.061,1.159,15.035,15.035,0,0,0,1.071-2.324,11.63,11.63,0,0,0-1.06-10.592,10.479,10.479,0,0,0-16.531,0,11.621,11.621,0,0,0-1.056,10.588,24,24,0,0,0,4.028,6.556c.291.376.9,1.169.918,1.189l1.956,2.251a3.66,3.66,0,0,0,1.24.95v4.731a6.139,6.139,0,0,0-4.823,4.823h-2.933a1.183,1.183,0,0,0,0,2.365h2.933a6.12,6.12,0,0,0,12.01,0h18.227a6.12,6.12,0,0,0,12.01,0h18.232a6.12,6.12,0,0,0,12.01,0h2.933a1.183,1.183,0,1,0,0-2.365ZM202.29,81.519a3.756,3.756,0,1,1,3.755-3.755A3.76,3.76,0,0,1,202.29,81.519ZM229.959,62.3c-.28-.37-.566-.738-.851-1.106a22.049,22.049,0,0,1-3.677-5.909,9.276,9.276,0,0,1,.765-8.435,8.12,8.12,0,0,1,12.662,0,9.275,9.275,0,0,1,.763,8.437,21.878,21.878,0,0,1-3.668,5.9c-.289.372-.577.744-.859,1.117l-1.932,2.224a.7.7,0,0,1-1.265,0l0,0Zm2.568,19.214a3.756,3.756,0,1,1,3.756-3.755A3.76,3.76,0,0,1,232.527,81.519Zm30.242,0a3.756,3.756,0,1,1,3.756-3.755A3.76,3.76,0,0,1,262.768,81.519Z" transform="translate(-192.169 -41.454)"/><path d="M207.374,113.516a1.183,1.183,0,1,0,0-2.365h-3.482a1.183,1.183,0,0,0,0,2.365Z" transform="translate(-195.671 -64.61)"/><path d="M208.759,119.457H199.75a1.182,1.182,0,1,0,0,2.365h9.009a1.182,1.182,0,0,0,0-2.365Z" transform="translate(-194.295 -67.37)"/><path d="M253.365,113.516a1.183,1.183,0,0,0,0-2.365h-3.482a1.183,1.183,0,0,0,0,2.365Z" transform="translate(-210.951 -64.61)"/><path d="M254.75,119.457h-9.009a1.182,1.182,0,1,0,0,2.365h9.009a1.182,1.182,0,0,0,0-2.365Z" transform="translate(-209.575 -67.37)"/><path d="M299.356,113.516a1.183,1.183,0,0,0,0-2.365h-3.482a1.183,1.183,0,0,0,0,2.365Z" transform="translate(-226.231 -64.61)"/><path d="M300.74,119.457h-9.009a1.182,1.182,0,1,0,0,2.365h9.009a1.182,1.182,0,1,0,0-2.365Z" transform="translate(-224.855 -67.37)"/><path d="M208.759,127.756H199.75a1.182,1.182,0,1,0,0,2.365h9.009a1.182,1.182,0,0,0,0-2.365Z" transform="translate(-194.295 -70.127)"/><path d="M254.75,127.756h-9.009a1.182,1.182,0,1,0,0,2.365h9.009a1.182,1.182,0,0,0,0-2.365Z" transform="translate(-209.575 -70.127)"/><path d="M300.74,127.756h-9.009a1.182,1.182,0,1,0,0,2.365h9.009a1.182,1.182,0,1,0,0-2.365Z" transform="translate(-224.855 -70.127)"/><path d="M290.649,54.3a4.838,4.838,0,1,0,4.838-4.811A4.83,4.83,0,0,0,290.649,54.3Zm7.311,0a2.473,2.473,0,1,1-2.473-2.447A2.462,2.462,0,0,1,297.96,54.3Z" transform="translate(-224.888 -44.125)"/></g></g></g></svg>