<svg xmlns="http://www.w3.org/2000/svg" width="94" height="94" viewBox="0 0 94 94"><g transform="translate(-196 -1184)"><rect width="94" height="94" transform="translate(196 1184)" fill="none"/><g transform="translate(-393.043 1170.899)"><path d="M638.631,74.347h26.091v4.779H638.631Z" transform="translate(-15.483 -17.91)" fill="#fff89c"/><path d="M706.45,55.766h-4.78L706.45,79.9a2.391,2.391,0,0,0,4.779,0V60.545A4.793,4.793,0,0,0,706.45,55.766Z" transform="translate(-37.987 -11.277)" fill="#f46551"/><path d="M680.271,55.766h4.779l-4.779,24.055a2.39,2.39,0,1,1-4.78,0V60.545A4.793,4.793,0,0,1,680.271,55.766Z" transform="translate(-28.641 -11.277)" fill="#f98473"/><path d="M699.757,60.545a4.793,4.793,0,0,0-4.78-4.779H687.7a4.793,4.793,0,0,0-4.779,4.779v42.549a3.014,3.014,0,1,0,6.027,0V79.821h4.779v23.273a3.014,3.014,0,1,0,6.027,0Z" transform="translate(-31.295 -11.277)" fill="#f98473"/><path d="M695.932,26.035V40.373a7.169,7.169,0,1,0,0-14.338Z" transform="translate(-35.939 -0.663)" fill="#f46551"/><path d="M694.341,33.2c0-3.959-1.07-7.169-2.389-7.169a7.169,7.169,0,1,0,0,14.338C693.271,40.373,694.341,37.163,694.341,33.2Z" transform="translate(-31.958 -0.663)" fill="#f98473"/><path d="M631.793,55.766h-4.78L631.793,79.9a2.391,2.391,0,0,0,4.78,0V60.545a4.793,4.793,0,0,0-4.779-4.779Z" transform="translate(-11.336 -11.277)" fill="#00357b"/><path d="M605.614,55.766h4.779l-4.779,24.055a2.39,2.39,0,1,1-4.78,0V60.545A4.793,4.793,0,0,1,605.614,55.766Z" transform="translate(-1.99 -11.277)" fill="#01459f"/><path d="M625.1,60.545a4.793,4.793,0,0,0-4.78-4.779h-7.275a4.793,4.793,0,0,0-4.779,4.779v42.549a3.014,3.014,0,1,0,6.028,0V79.821h4.779v23.273a3.014,3.014,0,1,0,6.028,0Z" transform="translate(-4.643 -11.277)" fill="#01459f"/><path d="M713.882,76.736,709.1,74.347v7.169h4.779a2.39,2.39,0,0,0,0-4.78Z" transform="translate(-40.64 -17.91)" fill="#ffbd6f"/><path d="M698.167,79.127a2.39,2.39,0,0,0-2.389-2.39V74.347H674.164v2.389a2.39,2.39,0,0,0,0,4.78h21.613a2.39,2.39,0,0,0,2.389-2.389Z" transform="translate(-27.315 -17.91)" fill="#ffd072"/><path d="M713.882,70.631H709.1V75.41h4.779a2.389,2.389,0,1,0,0-4.779Z" transform="translate(-40.64 -16.583)" fill="#ffd072"/><path d="M698.167,73.02a2.389,2.389,0,0,0-2.389-2.389H674.164a2.389,2.389,0,0,0,0,4.779h21.613a2.389,2.389,0,0,0,2.389-2.389Z" transform="translate(-27.315 -16.583)" fill="#ffea70"/><path d="M639.226,76.736l-4.779-2.389v7.169h4.779a2.39,2.39,0,1,0,0-4.78Z" transform="translate(-13.989 -17.91)" fill="#ffbd6f"/><path d="M623.51,79.127a2.39,2.39,0,0,0-2.389-2.39V74.347H599.508v2.389a2.39,2.39,0,1,0,0,4.78h21.613A2.39,2.39,0,0,0,623.51,79.127Z" transform="translate(-0.663 -17.91)" fill="#ffd072"/><path d="M639.226,70.631h-4.779V75.41h4.779a2.389,2.389,0,1,0,0-4.779Z" transform="translate(-13.989 -16.583)" fill="#ffd072"/><path d="M623.51,73.02a2.39,2.39,0,0,0-2.389-2.389H599.508a2.389,2.389,0,1,0,0,4.779h21.613A2.389,2.389,0,0,0,623.51,73.02Z" transform="translate(-0.663 -16.583)" fill="#ffea70"/><path d="M621.275,26.035V40.373a7.169,7.169,0,0,0,0-14.338Z" transform="translate(-9.287 -0.663)" fill="#00357b"/><path d="M619.685,33.2c0-3.959-1.07-7.169-2.39-7.169a7.169,7.169,0,1,0,0,14.338C618.615,40.373,619.685,37.163,619.685,33.2Z" transform="translate(-5.307 -0.663)" fill="#01459f"/><path d="M616.632,40.9a8.364,8.364,0,1,0-8.364-8.364A8.373,8.373,0,0,0,616.632,40.9Zm0-14.338a5.974,5.974,0,1,1-5.974,5.974A5.981,5.981,0,0,1,616.632,26.566Z" transform="translate(-4.644 0)"/><path d="M691.289,40.9a8.364,8.364,0,1,0-8.364-8.364A8.373,8.373,0,0,0,691.289,40.9Zm0-14.338a5.974,5.974,0,1,1-5.974,5.974A5.981,5.981,0,0,1,691.289,26.566Z" transform="translate(-31.295 0)"/><path d="M676.826,67.05a3.591,3.591,0,0,0-2.389-3.379v-3.79a5.981,5.981,0,0,0-5.974-5.974H651.629a5.981,5.981,0,0,0-5.974,5.974v3.79a3.6,3.6,0,0,0-2.184,2.184H628.616a3.6,3.6,0,0,0-2.184-2.184v-3.79a5.98,5.98,0,0,0-5.974-5.974H603.624a5.981,5.981,0,0,0-5.974,5.974v3.79a3.581,3.581,0,0,0-1.475,5.768,3.582,3.582,0,0,0,1.474,5.769v3.949a3.583,3.583,0,0,0,4.78,3.379V102.51a4.209,4.209,0,0,0,8.417-.08V80.353h2.39V102.43a4.209,4.209,0,0,0,8.417.08V82.549a3.733,3.733,0,0,0,1.195.194,3.507,3.507,0,0,0,3.584-3.505V75.209a3.6,3.6,0,0,0,2.184-2.184h14.855a3.6,3.6,0,0,0,2.184,2.184v3.949a3.582,3.582,0,0,0,4.779,3.379V102.51a4.209,4.209,0,0,0,8.417-.08V80.353h2.389V102.43a4.209,4.209,0,0,0,8.417.08V82.549a3.754,3.754,0,0,0,1.195.193,3.508,3.508,0,0,0,3.585-3.5V75.209a3.581,3.581,0,0,0,1.474-5.768,3.571,3.571,0,0,0,.916-2.39ZM651.629,56.3h16.833a3.588,3.588,0,0,1,3.585,3.584v3.585h-2.39V59.961a1.195,1.195,0,0,0-2.389,0v3.505H652.824V59.961a1.195,1.195,0,0,0-2.389,0v3.505h-2.39V59.881A3.588,3.588,0,0,1,651.629,56.3Zm-4.779,9.558h26.393a1.195,1.195,0,0,1,0,2.389H646.85a1.195,1.195,0,1,1,0-2.389ZM627.906,69.44a3.573,3.573,0,0,0,.706-1.195h14.858a3.59,3.59,0,0,0,.71,1.195,3.588,3.588,0,0,0-.71,1.2H628.612A3.582,3.582,0,0,0,627.906,69.44ZM603.624,56.3h16.834a3.588,3.588,0,0,1,3.584,3.584v3.585h-2.389V59.961a1.2,1.2,0,0,0-2.39,0v3.505H604.818V59.961a1.195,1.195,0,1,0-2.389,0v3.505h-2.39V59.881a3.588,3.588,0,0,1,3.584-3.584Zm-1.195,22.86a1.195,1.195,0,1,1-2.39,0V75.414h2.39Zm15.015,25.092a1.821,1.821,0,0,1-1.819-1.819V79.157a1.2,1.2,0,0,0-1.195-1.195h-4.779a1.2,1.2,0,0,0-1.195,1.195V102.43a1.82,1.82,0,0,1-3.638.08v-27.1h14.444v27.1A1.8,1.8,0,0,1,617.444,104.249Zm5.4-23.9a1.132,1.132,0,0,1-1.195-1.116V75.414h2.389v3.823A1.132,1.132,0,0,1,622.847,80.353Zm-19.224-9.718h21.613a1.195,1.195,0,1,1,0,2.389H598.845a1.195,1.195,0,0,1,0-2.389,1.2,1.2,0,0,0,0-2.39,1.195,1.195,0,0,1,0-2.389h26.392a1.195,1.195,0,1,1,0,2.389H603.624a1.2,1.2,0,0,0,0,2.39Zm46.81,8.522a1.195,1.195,0,1,1-2.389,0V75.414h2.389Zm15.015,25.092a1.821,1.821,0,0,1-1.818-1.819V79.157a1.2,1.2,0,0,0-1.2-1.195h-4.779a1.2,1.2,0,0,0-1.195,1.195V102.43a1.82,1.82,0,0,1-3.638.08v-27.1h14.444v27.1A1.8,1.8,0,0,1,665.449,104.249Zm5.4-23.9a1.132,1.132,0,0,1-1.195-1.116V75.414h2.389v3.823A1.132,1.132,0,0,1,670.852,80.353Zm2.39-7.328H646.85a1.195,1.195,0,1,1,0-2.389h26.393a1.195,1.195,0,0,1,0,2.389Z" transform="translate(0 -10.613)"/></g></g></svg>