<svg xmlns="http://www.w3.org/2000/svg" width="94" height="94" viewBox="0 0 94 94"><g transform="translate(-196 -1184)"><rect width="94" height="94" transform="translate(196 1184)" fill="none"/><g transform="translate(203.25 1193.235)"><path d="M41.054,10.5A31.054,31.054,0,1,0,71.486,47.764V35.343A31.063,31.063,0,0,0,41.054,10.5Zm0,0" transform="translate(-8.447 -8.447)" fill="#f98473"/><path d="M385.829,176.707l4.658,6.21H374.65l-4.658-6.21,4.658-6.211h15.838Zm0,0" transform="translate(-312.542 -143.6)" fill="#f2df33"/><path d="M91.738,70.5a21.738,21.738,0,1,0,21.724,22.532A21.761,21.761,0,0,0,91.738,70.5Zm0,0" transform="translate(-59.131 -59.128)" fill="#ede9e8"/><path d="M154.839,142.918A12.422,12.422,0,1,1,142.418,130.5,12.436,12.436,0,0,1,154.839,142.918Zm0,0" transform="translate(-109.811 -109.811)" fill="#f98473"/><path d="M193.1,190.5A3.105,3.105,0,1,1,190,193.6,3.109,3.109,0,0,1,193.1,190.5Zm0,0" transform="translate(-160.495 -160.495)" fill="#ede9e8"/><path d="M101.549,103.6A1.553,1.553,0,1,0,100,102.049,1.553,1.553,0,0,0,101.549,103.6Zm0,0" transform="translate(-84.469 -84.469)"/><path d="M77.945,31.554H76.393l2.795-3.727a1.554,1.554,0,0,0-1.242-2.484H64.281A32.61,32.61,0,1,0,19.365,62.911L16,71.924H10.869a1.553,1.553,0,0,0,0,3.105H54.344a1.553,1.553,0,0,0,0-3.105H49.211l-3.364-9.016A32.649,32.649,0,0,0,64.28,40.87H77.945a1.554,1.554,0,0,0,1.242-2.484l-2.795-3.726h1.553a1.553,1.553,0,1,0,0-3.105ZM19.316,71.924l2.943-7.887a32.781,32.781,0,0,0,20.694,0L45.9,71.924Zm13.29-9.316A29.5,29.5,0,1,1,61.161,25.668c-.325.25-.075.039-4.487,5.886h-.83a23.285,23.285,0,0,0-34.411-18.88A1.553,1.553,0,1,0,22.925,15.4,20.181,20.181,0,0,1,52.733,31.554H46.494a13.975,13.975,0,1,0,0,3.1h6.239A20.185,20.185,0,1,1,14.9,23.427a1.553,1.553,0,0,0-2.722-1.5A23.289,23.289,0,1,0,55.845,34.66h.829c4.41,5.844,4.161,5.634,4.487,5.885A29.438,29.438,0,0,1,32.607,62.608ZM37,31.554a4.659,4.659,0,1,0,0,3.1h6.365a10.868,10.868,0,1,1,0-3.1ZM34.16,33.107a1.553,1.553,0,1,1-1.553-1.553A1.555,1.555,0,0,1,34.16,33.107Zm40.68,4.658H62.884l-3.493-4.658,3.493-4.658H74.84l-2.329,3.105H66.766a1.553,1.553,0,0,0,0,3.105h5.745Zm0,0"/></g></g></svg>