<svg xmlns="http://www.w3.org/2000/svg" width="157" height="157" viewBox="0 0 157 157"><g transform="translate(-802 -2294)"><g transform="translate(733 2301)"><g transform="translate(108.8 2.8)"><path d="M235.458,108.823l13.667-13.667a5.6,5.6,0,0,0-7.919-7.919L231.5,96.944l-3.293-3.293a5.6,5.6,0,1,0-7.919,7.919l7.253,7.253A5.6,5.6,0,0,0,235.458,108.823Z" transform="translate(-189.906 -64.429)" fill="#fff" fill-rule="evenodd"/><path d="M204.019,40.726,190.352,54.393a5.6,5.6,0,0,1-7.919,0l-7.253-7.253a5.6,5.6,0,1,1,7.919-7.919l3.293,3.293,9.708-9.708a5.6,5.6,0,0,1,7.919,7.919ZM189.6,10a33.6,33.6,0,1,0,33.6,33.6A33.6,33.6,0,0,0,189.6,10Z" transform="translate(-144.8 -10)" fill="#cbe558" fill-rule="evenodd"/><path d="M266.059,247.876a33.951,33.951,0,0,1-12.654,0v20.539h12.654V247.876Z" transform="translate(-214.932 -181.271)" fill="#6d91ac" fill-rule="evenodd"/><path d="M167.128,313.9H154.474v-2.85h-3.265a26.644,26.644,0,0,0-20.312,9.386H116l.02,34.693H130.91a26.7,26.7,0,0,0,20.3,9.386h28.7a6.327,6.327,0,0,0,0-12.654h4.313a6.327,6.327,0,0,0,0-12.654h2.4a6.327,6.327,0,0,0,0-12.654h-4.559a6.327,6.327,0,1,0,0-12.654H167.128Z" transform="translate(-116.001 -226.758)" fill="#ffdcd5" fill-rule="evenodd"/></g><g transform="translate(106)"><path d="M188.551,108.926a9.142,9.142,0,0,0-5.6-8.419,9.125,9.125,0,0,0-8.084-13.362H162.727v-15.5A36.4,36.4,0,1,0,139.149,2.985a2.8,2.8,0,1,0,2.225,5.139,30.781,30.781,0,1,1-16.05,16.05,2.8,2.8,0,1,0-5.138-2.226,36.419,36.419,0,0,0,24.287,49.694V84.295h-.464a29.464,29.464,0,0,0-21.565,9.386H108.8a2.8,2.8,0,0,0-2.8,2.8l.02,34.693a2.8,2.8,0,0,0,2.8,2.8h13.639a29.5,29.5,0,0,0,21.551,9.386h28.7a9.125,9.125,0,0,0,8.038-13.449,9.122,9.122,0,0,0,3.826-13.453A9.124,9.124,0,0,0,188.551,108.926ZM153.6,72.8c1.19,0,2.366-.059,3.527-.171V87.145h-7.054V72.629q1.741.168,3.527.171Zm25.824,39.653h-2.4a2.8,2.8,0,0,0,0,5.6,3.527,3.527,0,0,1,0,7.053h-4.313a2.8,2.8,0,0,0,0,5.6,3.527,3.527,0,0,1,0,7.054h-28.7a23.923,23.923,0,0,1-18.173-8.408,2.8,2.8,0,0,0-2.127-.979H111.618L111.6,99.281H123.7a2.8,2.8,0,0,0,2.13-.982,23.882,23.882,0,0,1,18.182-8.4h.464v.05a2.8,2.8,0,0,0,2.8,2.8h27.592a3.527,3.527,0,1,1,0,7.054,2.8,2.8,0,1,0,0,5.6h4.558a3.527,3.527,0,0,1,0,7.055Z" transform="translate(-106)"/><path d="M218.359,103.613a8.409,8.409,0,0,0,11.879,0L243.9,89.945a8.4,8.4,0,0,0-11.879-11.879L224.3,85.795l-1.313-1.313A8.4,8.4,0,0,0,211.106,96.36Zm-3.293-15.171a2.8,2.8,0,0,1,3.959,0l3.293,3.293a2.8,2.8,0,0,0,3.96,0l9.708-9.708a2.8,2.8,0,1,1,3.959,3.959L226.277,99.653a2.8,2.8,0,0,1-3.959,0L215.066,92.4a2.8,2.8,0,0,1,0-3.959Z" transform="translate(-179.905 -54.44)"/><path d="M183.948,40.742a2.8,2.8,0,1,0-1.979-4.78h0a2.8,2.8,0,0,0,1.98,4.779Z" transform="translate(-160.106 -25.302)"/></g></g><rect width="157" height="157" transform="translate(802 2294)" fill="none"/></g></svg>