<svg xmlns="http://www.w3.org/2000/svg" width="94" height="94" viewBox="0 0 94 94"><g transform="translate(-253 -1413)"><g transform="translate(259 1419)"><path d="M238.222,151.611v-4.37a2.986,2.986,0,1,0-5.972,0v4.37Zm0,0" transform="translate(-195.353 -121.337)" fill="#ffab91"/><path d="M235.236,144.254c-.085,0-.168.006-.251.013a2.978,2.978,0,0,1,.059.59v2.667a1.7,1.7,0,0,1-1.7,1.7H232.25v2.383h5.972v-4.37a2.986,2.986,0,0,0-2.986-2.986Zm0,0" transform="translate(-195.353 -121.337)" fill="#f1aaa3"/><path d="M332.617,196.086h3.216a.32.32,0,0,0,.32-.32v-3.794a.32.32,0,0,0-.32-.32h-3.216Zm0,0" transform="translate(-279.776 -161.206)" fill="#ef5350"/><path d="M248.115,195.34H232.25v-4.782h15.865a.08.08,0,0,1,.08.079v4.622A.08.08,0,0,1,248.115,195.34Zm0,0" transform="translate(-195.353 -160.285)" fill="#cfd8dc"/><path d="M162.993,195.337h-5.568a.356.356,0,0,1-.356-.356V190.91a.356.356,0,0,1,.356-.356h5.568a.049.049,0,0,1,.048.049v4.684A.049.049,0,0,1,162.993,195.337Zm0,0" transform="translate(-132.117 -160.282)" fill="#ffa726"/><path d="M172,195.145a14.929,14.929,0,0,1-14.929-14.929v-4.994a2.986,2.986,0,0,1,2.986-2.986h2.986V154.025a2.986,2.986,0,0,1,5.972,0V162.1h5.972v0h2.986a2.986,2.986,0,0,1,2.986,2.986v0h2.986a2.986,2.986,0,0,1,2.986,2.986v12.145A14.93,14.93,0,0,1,172,195.145Zm0,0" transform="translate(-132.117 -127.044)" fill="#f5b7b1"/><path d="M214.847,227.8a2.986,2.986,0,0,0-2.986-2.986h-2.986a2.984,2.984,0,0,0-1.858-2.763,2.98,2.98,0,0,1,1.476,2.572v12.145a14.941,14.941,0,0,1-18.231,14.562,14.928,14.928,0,0,0,24.585-11.385Zm0,0" transform="translate(-160.036 -186.778)" fill="#f1aaa3"/><path d="M46.974,7.5A39.474,39.474,0,1,0,86.448,46.974,39.473,39.473,0,0,0,46.974,7.5Zm25.92,59.116a.814.814,0,0,1-1.222.082L61.12,56.146V59.48a14.885,14.885,0,0,1-1.066,5.548L66.7,71.672a.814.814,0,0,1-.082,1.222A32.522,32.522,0,0,1,21.054,27.331a.813.813,0,0,1,1.221-.082l9.333,9.333h5.577a.048.048,0,0,1,.048.048V33.289a2.993,2.993,0,0,1,.137-.894L27.25,22.275a.813.813,0,0,1,.081-1.222A32.523,32.523,0,0,1,72.894,66.616Zm0,0" transform="translate(-6.309 -6.309)" fill="#ef5350"/><path d="M147.3,39.648A39.477,39.477,0,0,1,103.676,105.2,39.476,39.476,0,1,0,147.3,39.648Zm0,0" transform="translate(-87.205 -33.35)" fill="#d32f2f"/><path d="M296.563,118.5a1.191,1.191,0,0,0,1.191,1.191h4.216a1.3,1.3,0,0,1,1.3,1.3v4.163a1.191,1.191,0,1,0,2.382,0v-4.163a3.681,3.681,0,0,0-3.677-3.677h-4.216a1.191,1.191,0,0,0-1.191,1.191Zm0,0" transform="translate(-249.449 -98.669)"/><path d="M213.88,84.757h6.342a1.191,1.191,0,1,0,0-2.382H213.88a.5.5,0,1,1,0-1h11.142a2.8,2.8,0,1,0,0-5.6h-1.363a1.191,1.191,0,1,0,0,2.383h1.363a.415.415,0,1,1,0,.83H213.88a2.883,2.883,0,1,0,0,5.766Zm0,0" transform="translate(-177.476 -63.739)"/><path d="M66.551,65.9H62.609l-8.983-8.983a2.005,2.005,0,0,0-3.013.2,33.714,33.714,0,0,0,47.232,47.232,2.005,2.005,0,0,0,.2-3.012l-6.105-6.106a16.275,16.275,0,0,0,.876-5.7l8.519,8.518a2,2,0,0,0,3.012-.2A33.713,33.713,0,0,0,57.118,50.614a2.005,2.005,0,0,0-.2,3.012l9.667,9.667a23.926,23.926,0,0,0-.031,2.606Zm-3.589,2.382h3.589v2.4H62.961Zm33.094,34.434A31.332,31.332,0,0,1,52.249,58.909l8.343,8.343c-.019.153-.013-.189-.013,4.265a1.548,1.548,0,0,0,1.546,1.546H66.55v1.242a1.191,1.191,0,0,0,2.383,0V63.8a1.794,1.794,0,0,1,3.589,0V81.149a1.191,1.191,0,0,0,2.383,0V73.063h3.589v8.086a1.191,1.191,0,1,0,2.382,0V73.063h1.795a1.8,1.8,0,0,1,1.794,1.795v6.291a1.191,1.191,0,0,0,2.383,0v-5.1h1.795a1.8,1.8,0,0,1,1.794,1.794V89.989a13.738,13.738,0,1,1-27.475,0V85A1.8,1.8,0,0,1,64.756,83.2h1.795v2.438a1.191,1.191,0,1,0,2.382,0V79.865a1.191,1.191,0,0,0-2.382,0v.953H64.756A4.182,4.182,0,0,0,60.579,85v4.994a16.118,16.118,0,0,0,30.339,7.588ZM88.467,70.68H74.9v-2.4H88.467ZM78.494,65.9H74.9V62.72a1.794,1.794,0,1,1,3.589,0ZM58.908,52.249a30.979,30.979,0,0,1,18.574-6.094,31.362,31.362,0,0,1,31.327,31.327,30.979,30.979,0,0,1-6.094,18.574l-9.9-9.9V77.843a4.182,4.182,0,0,0-4.177-4.177H86.675a4.286,4.286,0,0,0-.233-.6c3.427,0,3.379.058,3.776-.174h2.657a1.513,1.513,0,0,0,1.511-1.511V67.584a1.513,1.513,0,0,0-1.511-1.511H90.217c-.417-.244.089-.174-9.341-.174V62.72A4.176,4.176,0,0,0,73.2,60.437a4.168,4.168,0,0,0-5.561.547ZM92,68.456v2.05H90.849v-2.05Zm0,0" transform="translate(-36.817 -36.817)"/><path d="M40.665,0A40.666,40.666,0,0,0,9.957,67.325a1.191,1.191,0,1,0,1.8-1.563,38.273,38.273,0,1,1,3.813,3.814,1.191,1.191,0,0,0-1.563,1.8A40.666,40.666,0,1,0,40.665,0Zm0,0"/></g><rect width="94" height="94" transform="translate(253 1413)" fill="none"/></g></svg>