<svg xmlns="http://www.w3.org/2000/svg" width="94" height="94" viewBox="0 0 94 94"><g transform="translate(-253 -1413)"><rect width="94" height="94" transform="translate(253 1413)" fill="none"/><g transform="translate(234.032 1419.384)"><g transform="translate(31.395 1.271)"><path d="M108.985,33.614a26.841,26.841,0,0,1-4.5-15.134,11.537,11.537,0,0,0,4.928,0c4.528-1.221,8.984-10.205,16.834-10.467s9.372,3.4,9.372,3.4a11.93,11.93,0,0,1,7.2-1.134c6.455.872,12.124,10.706,6.362,24.214" transform="translate(-93.947 -8)" fill="#e5907b"/><path d="M189.919,86.542a57.235,57.235,0,0,1-7.175-8.925.794.794,0,0,0-1.247-.088,33.934,33.934,0,0,1-18.173,9.92,2.377,2.377,0,0,0-1.92,2.335v7.391a15.008,15.008,0,1,0,30.015,0V90.01A4.714,4.714,0,0,0,189.919,86.542Z" transform="translate(-141.838 -66.278)" fill="#fdd4bb"/><path d="M124.693,171.587v-5.3a4.674,4.674,0,1,0,.251,8.046A15.084,15.084,0,0,1,124.693,171.587Z" transform="translate(-105.127 -140.69)" fill="#ebbaa1"/><path d="M349.262,171.587v-5.3a4.674,4.674,0,1,1-.251,8.046A15.1,15.1,0,0,0,349.262,171.587Z" transform="translate(-299.682 -140.69)" fill="#ebbaa1"/><path d="M176.411,199.758A15.008,15.008,0,0,1,161.4,184.75v2.856a15.008,15.008,0,0,0,30.015,0V184.75A15.008,15.008,0,0,1,176.411,199.758Z" transform="translate(-141.838 -156.709)" fill="#f7c4a8"/><path d="M122.445,189.417a4.675,4.675,0,0,1-4.451-3.246,4.673,4.673,0,0,0,6.951,5.376,15.1,15.1,0,0,1-.251-2.708,4.646,4.646,0,0,1-2.249.578Z" transform="translate(-105.127 -157.904)" fill="#e8a990"/><path d="M351.511,189.417a4.646,4.646,0,0,1-2.249-.578,15.081,15.081,0,0,1-.251,2.708,4.674,4.674,0,0,0,6.951-5.376A4.675,4.675,0,0,1,351.511,189.417Z" transform="translate(-299.682 -157.904)" fill="#e8a990"/><path d="M131.71,286.343a15.024,15.024,0,0,1-14.058,0A22.339,22.339,0,0,0,99.919,308.2v12.674h49.524V308.2A22.339,22.339,0,0,0,131.71,286.343Z" transform="translate(-90.108 -242.184)" fill="#b3e59f"/><path d="M99.919,486h49.524v2.856H99.919Z" transform="translate(-90.108 -410.166)" fill="#95d6a4"/><path d="M218.348,287.957a14.941,14.941,0,0,1-7.076-1.77c-.014.185-.024.37-.024.559a7.1,7.1,0,0,0,14.2,0c0-.188-.01-.374-.024-.559A14.939,14.939,0,0,1,218.348,287.957Z" transform="translate(-183.774 -242.053)" fill="#ebbaa1"/><path d="M230.277,217.065a4.85,4.85,0,0,0-4.85,4.85h9.7A4.85,4.85,0,0,0,230.277,217.065Z" transform="translate(-195.704 -183.897)" fill="#f4594e"/><path d="M385.01,245.117a3.382,3.382,0,0,0-4.564-4.51,3.387,3.387,0,0,0-6.5,1.342c0,.112.006.223.017.332H369.9a.793.793,0,0,0-.488,1.418l3.573,2.792a3.7,3.7,0,0,0,.012,1.84,3.791,3.791,0,0,0,3.452,2.817,3.746,3.746,0,0,0,2.148-.547,4.25,4.25,0,0,0,6.419-5.484Z" transform="translate(-316.584 -201.984)" fill="#ebf2f8"/><g transform="translate(56.286 44.2)"><path d="M401.358,289.64a4.339,4.339,0,0,1-2.593-.855.791.791,0,0,0-.8-.083,3.848,3.848,0,0,1-5.007-1.757,3.7,3.7,0,0,0,.074,1.989,3.757,3.757,0,0,0,5.546,2.085,4.249,4.249,0,0,0,6.935-4.418A4.362,4.362,0,0,1,401.358,289.64Z" transform="translate(-392.857 -286.601)" fill="#d6e3ed"/></g><path d="M38.8,245.117a3.382,3.382,0,0,1,4.564-4.51,3.387,3.387,0,0,1,6.5,1.342c0,.112-.006.223-.017.332H53.91A.793.793,0,0,1,54.4,243.7l-3.572,2.792a3.7,3.7,0,0,1-.012,1.84,3.79,3.79,0,0,1-3.452,2.817,3.746,3.746,0,0,1-2.148-.547,4.25,4.25,0,0,1-6.419-5.484Z" transform="translate(-38.075 -201.984)" fill="#ebf2f8"/><g transform="translate(0 44.196)"><path d="M47.6,289.01a3.843,3.843,0,0,1-1.775-.335.792.792,0,0,0-.8.083,4.357,4.357,0,0,1-6.742-2.178A4.249,4.249,0,0,0,45.215,291a3.757,3.757,0,0,0,5.549-2.1,3.7,3.7,0,0,0,.067-2A3.877,3.877,0,0,1,47.6,289.01Z" transform="translate(-38.075 -286.58)" fill="#d6e3ed"/></g><path d="M271.1,358.983s3.215-4.189,1.185-6.219c-1.413-1.413-4.288-.035-5.908.934.973,2.992.118,6.929-4.3,9.8l10.76,12.747h13Z" transform="translate(-226.538 -297.559)" fill="#ebbaa1"/><path d="M122.548,350.274l-9.386,11.082h-13L114.123,345s-3.256-4.4-1.226-6.429,4.249,1.062,4.249,1.062,2.3-5.175,7.74-5.175C130.65,334.458,134.857,345.492,122.548,350.274Z" transform="translate(-90.313 -282.666)" fill="#fdd4bb"/><path d="M314.7,486l2.411,2.856h13L327.677,486Z" transform="translate(-270.817 -410.166)" fill="#e8a990"/><path d="M102.6,486l-2.437,2.856h13L115.581,486Z" transform="translate(-90.313 -410.166)" fill="#f7c4a8"/></g><g transform="translate(30.135 0.002)"><path d="M219.045,216.719h9.72a1.192,1.192,0,0,0,1.192-1.192,6.052,6.052,0,0,0-12.1,0A1.192,1.192,0,0,0,219.045,216.719Zm4.86-4.86a3.674,3.674,0,0,1,3.469,2.475h-6.938A3.674,3.674,0,0,1,223.9,211.859Z" transform="translate(-188.072 -176.242)"/><path d="M193.639,163.9c.027-.007.255-.071.608-.21v.168a1.192,1.192,0,1,0,2.384,0v-1.514a9.125,9.125,0,0,0,.857-.741,1.192,1.192,0,0,0-1.671-1.7,7.388,7.388,0,0,1-2.811,1.7,1.192,1.192,0,0,0,.632,2.3Z" transform="translate(-166.432 -134.247)"/><path d="M285.072,162.344v1.514a1.192,1.192,0,1,0,2.384,0v-.168a6.431,6.431,0,0,0,.608.21,1.192,1.192,0,0,0,.628-2.3,7.367,7.367,0,0,1-2.807-1.7,1.192,1.192,0,0,0-1.671,1.7A9.124,9.124,0,0,0,285.072,162.344Z" transform="translate(-243.606 -134.247)"/><path d="M380.252,238.674a4.581,4.581,0,0,0-5.373-5.867,4.586,4.586,0,0,0-8.144,1.932h-2.951a1.987,1.987,0,0,0-1.223,3.553l3.027,2.365a4.872,4.872,0,0,0,.146,1.639,5.011,5.011,0,0,0,4.553,3.711,4.945,4.945,0,0,0,2.063-.338,5.452,5.452,0,0,0,7.9-6.994Zm-4.859,5.538a3.056,3.056,0,0,1-2.084-.818,1.192,1.192,0,0,0-1.433-.143,2.569,2.569,0,0,1-1.471.374,2.606,2.606,0,0,1-2.363-1.935,2.524,2.524,0,0,1-.008-1.256,1.192,1.192,0,0,0-.424-1.224l-2.67-2.087h2.925a1.192,1.192,0,0,0,1.186-1.308c-.008-.079-.011-.15-.011-.217a2.2,2.2,0,0,1,4.223-.871,1.192,1.192,0,0,0,1.633.59,2.164,2.164,0,0,1,1.239-.225,2.225,2.225,0,0,1,1.946,2,2.179,2.179,0,0,1-.22,1.149,1.192,1.192,0,0,0,.08,1.191,3.067,3.067,0,0,1-2.547,4.774Z" transform="translate(-309.177 -194.363)"/><path d="M40.691,246.007a5.011,5.011,0,0,0,4.553-3.711,4.867,4.867,0,0,0,.146-1.639l3.027-2.365a1.987,1.987,0,0,0-1.223-3.553H44.243a4.586,4.586,0,0,0-8.144-1.932,4.579,4.579,0,0,0-5.373,5.867,5.451,5.451,0,0,0,7.9,6.994A4.956,4.956,0,0,0,40.691,246.007ZM39.1,243.251a1.192,1.192,0,0,0-1.433.143,3.066,3.066,0,0,1-4.632-3.955,1.192,1.192,0,0,0,.08-1.191,2.177,2.177,0,0,1-.22-1.149,2.225,2.225,0,0,1,1.946-2.005,2.272,2.272,0,0,1,.251-.014,2.166,2.166,0,0,1,.988.239,1.192,1.192,0,0,0,1.633-.59,2.2,2.2,0,0,1,4.223.871c0,.067,0,.138-.011.217a1.192,1.192,0,0,0,1.187,1.308H46.04l-2.67,2.087a1.192,1.192,0,0,0-.424,1.224,2.52,2.52,0,0,1-.008,1.256,2.605,2.605,0,0,1-2.363,1.935A2.56,2.56,0,0,1,39.1,243.251Z" transform="translate(-30.135 -194.363)"/><path d="M138.1,53.423a1.192,1.192,0,0,0-.281,1.662,21.038,21.038,0,0,1,3.9,12.253V76.85L129.606,62.657a12.778,12.778,0,0,0,.956-1.807c1.169-2.766.415-4.347-.425-5.186-.939-.939-2.757-1.612-6.174.1a7.676,7.676,0,0,0-1.983-2.444,8.324,8.324,0,0,0,4.367-6.352,21.172,21.172,0,0,1,8.475,4.735,1.192,1.192,0,1,0,1.609-1.76,23.556,23.556,0,0,0-8.415-4.95,16.278,16.278,0,0,0,5.7-8.412,5.871,5.871,0,0,0,6.459-9.034c2.943-7.305,2.957-14.412.015-19.59a10.664,10.664,0,0,0-7.6-5.655,13.806,13.806,0,0,0-6.965.81,6.975,6.975,0,0,0-1.506-1.3C122.1.5,119.295-.1,115.784.016c-2.909.1-5.643,1.244-8.6,3.609a1.192,1.192,0,0,0,1.488,1.863c2.539-2.028,4.825-3.01,7.2-3.089,6.575-.218,8.148,2.487,8.255,2.688a1.136,1.136,0,0,0,.7.677,1.176,1.176,0,0,0,1-.124,10.748,10.748,0,0,1,6.445-.979,8.323,8.323,0,0,1,5.848,4.47c1.2,2.1,3.491,7.805.165,16.7a5.839,5.839,0,0,0-3.952-.666v-.2a5.928,5.928,0,0,0-1.887-4.352,56.388,56.388,0,0,1-7.007-8.73,1.987,1.987,0,0,0-3.119-.229,33.039,33.039,0,0,1-17.558,9.575,3.581,3.581,0,0,0-2.887,3.509v.423a5.832,5.832,0,0,0-2.9.2A26.427,26.427,0,0,1,95.23,13.091a11.481,11.481,0,0,0,4.036-.244c2.087-.563,4.044-2.43,5.937-4.235a1.192,1.192,0,1,0-1.646-1.725c-1.677,1.6-3.412,3.254-4.912,3.658a10.412,10.412,0,0,1-4.351-.009,1.192,1.192,0,0,0-1.468,1.142A28.345,28.345,0,0,0,96.9,26.565a5.872,5.872,0,0,0,5.582,10.013,16.279,16.279,0,0,0,5.7,8.411A23.572,23.572,0,0,0,92.1,67.339v12.7a1.192,1.192,0,0,0,1.192,1.192h49.621a1.192,1.192,0,0,0,1.192-1.192v-12.7a23.409,23.409,0,0,0-4.342-13.634,1.191,1.191,0,0,0-1.662-.282ZM135.39,27.456a3.491,3.491,0,1,1-1.193,6.771,16.329,16.329,0,0,0,.132-2.076v-4.53A3.5,3.5,0,0,1,135.39,27.456Zm-34.579,6.981a3.491,3.491,0,1,1,1.061-6.816v4.53A16.3,16.3,0,0,0,102,34.227,3.483,3.483,0,0,1,100.811,34.437Zm3.445-2.286V24.746a1.192,1.192,0,0,1,.96-1.169,35.6,35.6,0,0,0,18.521-9.941,56.835,56.835,0,0,0,7.089,8.738,3.537,3.537,0,0,1,1.119,2.6v7.179a13.845,13.845,0,1,1-27.689,0ZM118.1,48.38a16.147,16.147,0,0,0,5.765-1.059,5.92,5.92,0,0,1-11.53,0A16.147,16.147,0,0,0,118.1,48.38ZM95.914,78.845l5.191-6.082a1.192,1.192,0,1,0-1.814-1.548L94.483,76.85V67.339a21.19,21.19,0,0,1,15.372-20.374,8.317,8.317,0,0,0,3.841,6.046,10.773,10.773,0,0,0-3.587,3.313,4.25,4.25,0,0,0-2.26-.99,3.231,3.231,0,0,0-2.6,1.031c-.837.837-1.587,2.433-.407,5.283a13.766,13.766,0,0,0,.989,1.911l-3.435,4.024a1.192,1.192,0,0,0,1.814,1.548l4.018-4.707a1.194,1.194,0,0,0,.052-1.482c-.828-1.125-2.317-3.918-1.345-4.89a.877.877,0,0,1,.722-.341,3.209,3.209,0,0,1,1.725,1.257,1.194,1.194,0,0,0,2.056-.207c.083-.183,2.085-4.481,6.668-4.481,2.013,0,3.879,1.85,4.339,4.3.265,1.416.537,6.267-7.113,9.239a1.193,1.193,0,0,0-.478.341L105.8,78.845Zm13.012,0,7.549-8.913a20.135,20.135,0,0,0,2.339-1.118l8.467,10.031Zm21.475,0-9.589-11.36a11.7,11.7,0,0,0,2.633-2.845,8.939,8.939,0,0,0,1.338-6.5c-.007-.038-.016-.075-.023-.113,1.766-.928,3.174-1.2,3.692-.682.972.972-.45,3.562-1.29,4.662a1.192,1.192,0,0,0,.039,1.5l13.087,15.333Z" transform="translate(-82.268 -0.002)"/></g></g></g></svg>