<svg xmlns="http://www.w3.org/2000/svg" width="94" height="94" viewBox="0 0 94 94"><g transform="translate(-196 -1184)"><rect width="94" height="94" transform="translate(196 1184)" fill="none"/><g transform="translate(176.016 1165.582)"><g transform="translate(27.208 25.642)"><path d="M65.865,104.818H29.239a1.6,1.6,0,0,1-1.6-1.6V44.93a1.6,1.6,0,0,1,1.6-1.6H65.865a1.6,1.6,0,0,1,1.6,1.6v58.287a1.6,1.6,0,0,1-1.6,1.6Z" transform="translate(-27.639 -30.644)" fill="#e1ebf0"/><path d="M68.876,44.929V99.276a1.6,1.6,0,0,1-1.6,1.6H34.569a1.6,1.6,0,0,1-1.6-1.6V44.929a1.6,1.6,0,0,1,1.6-1.6H67.275A1.6,1.6,0,0,1,68.876,44.929Z" transform="translate(-29.05 -30.643)" fill="#d2e4e7"/><path d="M80.871,96.191H37.834a1.6,1.6,0,0,1-1.6-1.6V36.3a1.6,1.6,0,0,1,1.6-1.6H80.871a1.6,1.6,0,0,1,1.6,1.6V94.59A1.6,1.6,0,0,1,80.871,96.191Z" transform="translate(-29.915 -28.359)" fill="#e1ebf0"/><path d="M83.884,36.3V90.65a1.6,1.6,0,0,1-1.6,1.6H43.162a1.6,1.6,0,0,1-1.6-1.6V36.3a1.6,1.6,0,0,1,1.6-1.6H82.283A1.6,1.6,0,0,1,83.884,36.3Z" transform="translate(-31.326 -28.359)" fill="#d2e4e7"/><path d="M44.828,85.963V27.675a1.6,1.6,0,0,1,1.6-1.6H89.466a1.6,1.6,0,0,1,1.6,1.6V85.963a1.6,1.6,0,0,1-1.6,1.6H46.428A1.6,1.6,0,0,1,44.828,85.963Z" transform="translate(-32.191 -26.074)" fill="#e1ebf0"/><path d="M82.03,50.349H94.7a.8.8,0,0,0,.8-.8V36.822a.8.8,0,0,0-.8-.8H82.03a.8.8,0,0,0-.8.8V49.549A.8.8,0,0,0,82.03,50.349Z" transform="translate(-41.831 -28.708)" fill="#f3d332"/><path d="M85.231,50.35h-3.2a.8.8,0,0,1-.8-.8V36.823a.8.8,0,0,1,.8-.8h3.2a.8.8,0,0,0-.8.8V49.549A.8.8,0,0,0,85.231,50.35Z" transform="translate(-41.831 -28.708)" fill="#ecc52e"/><g transform="translate(16.64 18.5)"><path d="M67.828,53.639H51.474a1.2,1.2,0,1,1,0-2.4H67.828a1.2,1.2,0,0,1,0,2.4Z" transform="translate(-50.273 -51.238)" fill="#b4d2d7"/></g><g transform="translate(26.304 28.649)"><path d="M81.122,67.443h-16.5a1.2,1.2,0,1,1,0-2.4h16.5a1.2,1.2,0,1,1,0,2.4Z" transform="translate(-63.418 -65.042)" fill="#b4d2d7"/></g><g transform="translate(16.64 13.277)"><path d="M67.828,46.534H51.474a1.2,1.2,0,1,1,0-2.4H67.828a1.2,1.2,0,0,1,0,2.4Z" transform="translate(-50.273 -44.133)" fill="#b4d2d7"/></g><g transform="translate(16.64 8.053)"><path d="M67.828,39.429H51.474a1.2,1.2,0,1,1,0-2.4H67.828a1.2,1.2,0,0,1,0,2.4Z" transform="translate(-50.273 -37.028)" fill="#b4d2d7"/></g><g transform="translate(16.64 41.932)"><path d="M76.1,85.51H51.474a1.2,1.2,0,1,1,0-2.4H76.1a1.2,1.2,0,1,1,0,2.4Z" transform="translate(-50.273 -83.11)" fill="#b4d2d7"/></g><g transform="translate(16.64 35.216)"><path d="M70.95,76.375H51.474a1.2,1.2,0,1,1,0-2.4H70.95a1.2,1.2,0,1,1,0,2.4Z" transform="translate(-50.273 -73.975)" fill="#b4d2d7"/></g><g transform="translate(41.321 35.216)"><path d="M96.269,76.375H85.045a1.2,1.2,0,1,1,0-2.4H96.269a1.2,1.2,0,1,1,0,2.4Z" transform="translate(-83.844 -73.975)" fill="#b4d2d7"/></g><path d="M98.036,95.907a1.6,1.6,0,0,1,1.6,1.6v1.087a7.448,7.448,0,0,1-7.433,7.462l-24.271.8-13.2-.8a7.45,7.45,0,0,0,7.436-7.462V97.507a1.6,1.6,0,0,1,1.6-1.6Z" transform="translate(-34.815 -44.567)" fill="#d2e4e7"/><path d="M101.713,82.083v10.16H85.031a17.7,17.7,0,0,1,15.992-10.173Q101.369,82.069,101.713,82.083Z" transform="translate(-42.837 -40.902)" fill="#d2e4e7"/><path d="M94.791,95.907v10.951a1.6,1.6,0,0,1-1.6,1.6H83.471a17.428,17.428,0,0,1-.439-1.853,17.847,17.847,0,0,1,.715-9.039q.3-.852.679-1.659Z" transform="translate(-42.234 -44.567)" fill="#b4d2d7"/><path d="M121.709,116.777l8.126,7.231a3.316,3.316,0,0,1,.11,4.719,3.367,3.367,0,0,1-4.744-.118l-8.116-7.269Z" transform="translate(-51.326 -50.094)" fill="#f3d332"/><path d="M124.121,118.923a17.806,17.806,0,0,1-4.575,4.619l-2.46-2.2,4.624-4.563Z" transform="translate(-51.326 -50.093)" fill="#ecc52e"/><path d="M95.051,110.8v3.941a1.6,1.6,0,0,1-1.6,1.6H85.439a17.5,17.5,0,0,1-1.708-3.941H93.45A1.6,1.6,0,0,0,95.051,110.8Z" transform="translate(-42.493 -48.511)" fill="#d2e4e7"/><path d="M87.1,100.935a14.467,14.467,0,1,1,14.466,14.512A14.534,14.534,0,0,1,87.1,100.935Z" transform="translate(-43.387 -42.056)" fill="#3a67c1"/><path d="M112.653,111.265A14.456,14.456,0,0,1,87.1,101.939a14.485,14.485,0,0,1,5.942-11.723,14.486,14.486,0,0,0,19.607,21.049Z" transform="translate(-43.387 -43.06)" fill="#30569f"/><path d="M94.5,102.9a9.032,9.032,0,1,1,9.032,9.06A9.065,9.065,0,0,1,94.5,102.9Z" transform="translate(-45.344 -44.019)" fill="#e1ebf0"/><path d="M111.3,107.96A9.041,9.041,0,1,1,98.955,95.535a8.932,8.932,0,0,0-.746,1.6,9.07,9.07,0,0,0,8.522,12.07A8.963,8.963,0,0,0,111.3,107.96Z" transform="translate(-45.344 -44.468)" fill="#d2e4e7"/></g><g transform="translate(26.011 24.441)"><path d="M81.6,51.117H94.276a2,2,0,0,0,2-2V36.389a2,2,0,0,0-2-2H81.6a2,2,0,0,0-2,2V39.4a1.2,1.2,0,1,0,2.4,0V36.79H93.876V48.716H82V45.177a1.2,1.2,0,1,0-2.4,0v3.939A2,2,0,0,0,81.6,51.117Z" transform="translate(-40.203 -27.075)"/><path d="M51.48,53.639H67.834a1.2,1.2,0,1,0,0-2.4H51.48a1.2,1.2,0,0,0,0,2.4Z" transform="translate(-32.438 -31.537)"/><path d="M82.328,66.243a1.2,1.2,0,0,0-1.2-1.2h-16.5a1.2,1.2,0,0,0,0,2.4h16.5A1.2,1.2,0,0,0,82.328,66.243Z" transform="translate(-35.919 -35.193)"/><path d="M51.48,46.534H67.834a1.2,1.2,0,1,0,0-2.4H51.48a1.2,1.2,0,0,0,0,2.4Z" transform="translate(-32.438 -29.656)"/><path d="M51.48,39.429H67.834a1.2,1.2,0,1,0,0-2.4H51.48a1.2,1.2,0,0,0,0,2.4Z" transform="translate(-32.438 -27.774)"/><path d="M51.48,85.51H76.107a1.2,1.2,0,1,0,0-2.4H51.48a1.2,1.2,0,1,0,0,2.4Z" transform="translate(-32.438 -39.978)"/><path d="M51.48,76.375H70.956a1.2,1.2,0,1,0,0-2.4H51.48a1.2,1.2,0,1,0,0,2.4Z" transform="translate(-32.438 -37.558)"/><path d="M96.275,73.975H85.051a1.2,1.2,0,1,0,0,2.4H96.275a1.2,1.2,0,1,0,0-2.4Z" transform="translate(-41.328 -37.558)"/><path d="M106.564,98.7a.605.605,0,0,0-.045-.042l-7.387-6.573a15.667,15.667,0,0,0,1.922-6.993,1.2,1.2,0,1,0-2.4-.086,13.292,13.292,0,1,1-.759-4.96,1.2,1.2,0,0,0,2.262-.8A15.715,15.715,0,0,0,87.288,68.925V26.442a2,2,0,0,0-2-2H40.65a2,2,0,0,0-2,2v4.342H34.331a2,2,0,0,0-2,2v4.342H28.012a2,2,0,0,0-2,2V99.016a2,2,0,0,0,2,2H66.238a2,2,0,0,0,2-2V94.674h5.212a15.632,15.632,0,0,0,19.368,3.688l7.444,6.667a4.468,4.468,0,1,0,6.3-6.329ZM41.05,26.842H84.887V68.82a15.689,15.689,0,0,0-12.51,6.962H67.5a1.2,1.2,0,0,0,0,2.4h3.555q-.241.548-.443,1.12a15.716,15.716,0,0,0-.885,5.218c0,.476.022.945.063,1.409h-16.7a8.647,8.647,0,0,0,2.678-6.262V78.183H62.3a1.2,1.2,0,1,0,0-2.4H54.568a1.2,1.2,0,0,0-1.2,1.2v2.686a6.254,6.254,0,0,1-6.233,6.262H41.05ZM34.731,92.273V75.863a1.2,1.2,0,1,0-2.4,0V92.673a2,2,0,0,0,2,2H65.838v3.942H28.412V39.528H32.33v31.26a1.2,1.2,0,0,0,2.4,0v-37.6h3.918V87.131a1.2,1.2,0,0,0,1.2,1.2H70.2a15.62,15.62,0,0,0,1.577,3.942Zm70.256,11.148a2.18,2.18,0,0,1-3.1-.16l-6.981-6.253a15.888,15.888,0,0,0,2.9-2.891l7.093,6.312a2.126,2.126,0,0,1,.089,2.992Z" transform="translate(-26.011 -24.441)"/><path d="M103.1,92.2a10.261,10.261,0,1,0,10.233,10.261A10.293,10.293,0,0,0,103.1,92.2Zm0,18.121a7.86,7.86,0,1,1,7.832-7.86A7.855,7.855,0,0,1,103.1,110.325Z" transform="translate(-43.716 -42.386)"/></g></g></g></svg>