<svg xmlns="http://www.w3.org/2000/svg" width="94" height="94" viewBox="0 0 94 94"><g transform="translate(-0.5)"><rect width="94" height="94" transform="translate(0.5)" fill="none"/><g transform="translate(7.5 7)"><path d="M32.58,49l-6.819,2.923a4.607,4.607,0,0,0-2.654,3.117l0,.015a4.606,4.606,0,0,1-3.62,3.41L5.756,61.039A4.6,4.6,0,0,0,2,65.564H78.451a4.607,4.607,0,0,0-3.758-4.527L60.967,58.463a4.608,4.608,0,0,1-3.62-3.41l0-.015a4.607,4.607,0,0,0-2.654-3.117L47.871,49Z" transform="translate(0.274 13.161)" fill="#d19e6d"/><path d="M30.409,49.73l-4.648,1.993a4.607,4.607,0,0,0-2.654,3.117l0,.015a4.606,4.606,0,0,1-3.62,3.41L5.756,60.838A4.6,4.6,0,0,0,2,65.364H19.442A21.34,21.34,0,0,0,30.409,49.73Z" transform="translate(0.274 13.361)" fill="#e2b88f"/><path d="M26,2H41.29V24.935H26Z" transform="translate(6.855 0.274)" fill="#976947"/><path d="M26,20.8A34.917,34.917,0,0,0,35.824,2H26Z" transform="translate(6.855 0.274)" fill="#c18e59"/><path d="M10.584,61.5,2,52.919,10.919,44,23.154,56.235c-.017.057-.033.116-.047.175l0,.015a4.606,4.606,0,0,1-3.62,3.41Z" transform="translate(0.274 11.79)" fill="#c18e59"/><path d="M57.968,61.5l-8.9-1.669a4.608,4.608,0,0,1-3.62-3.41l0-.015c-.014-.059-.031-.116-.047-.175h0L57.633,44l8.919,8.919Z" transform="translate(12.173 11.79)" fill="#976947"/><path d="M26,20v8.919l1.274,6.371L26,41.661l2.548,7.645L26,55.677V59.5H41.29V55.677l-2.548-6.371,2.548-7.645L40.016,35.29l1.274-6.371V20Z" transform="translate(6.855 5.21)" fill="#e7e4dd"/><g transform="translate(11.192 14.114)"><path d="M18.173,52.756l-1.8-1.8,2.021-2.02a4.883,4.883,0,0,0,0-6.9l-.22-.219a7.426,7.426,0,0,1,0-10.5l2.02-2.021,1.8,1.8-2.021,2.021a4.877,4.877,0,0,0,0,6.9l.22.219a7.429,7.429,0,0,1,0,10.5Z" transform="translate(-7.08 -6.357)" fill="#9d958c"/><path d="M11.173,34.756l-1.8-1.8,2.021-2.02a4.883,4.883,0,0,0,0-6.9l-.22-.219a7.426,7.426,0,0,1,0-10.5l2.02-2.021,1.8,1.8-2.021,2.021a4.877,4.877,0,0,0,0,6.9l.22.219a7.429,7.429,0,0,1,0,10.5Z" transform="translate(-8.999 -11.292)" fill="#9d958c"/><path d="M52.175,34.755l-1.8-1.8,2.02-2.02a4.876,4.876,0,0,0,0-6.9l-.22-.219a7.429,7.429,0,0,1,0-10.5l2.02-2.021,1.8,1.8-2.021,2.021a4.88,4.88,0,0,0,0,6.9l.22.219a7.423,7.423,0,0,1,0,10.5Z" transform="translate(2.243 -11.292)" fill="#9d958c"/><path d="M45.175,52.755l-1.8-1.8,2.02-2.02a4.876,4.876,0,0,0,0-6.9l-.22-.219a7.429,7.429,0,0,1,0-10.5l2.02-2.021,1.8,1.8-2.021,2.021a4.88,4.88,0,0,0,0,6.9l.22.219a7.423,7.423,0,0,1,0,10.5Z" transform="translate(0.324 -6.357)" fill="#9d958c"/></g><path d="M22,31.095l-1.8-1.8-2.021,2.021a7.426,7.426,0,0,0,0,10.5l.219.219a4.879,4.879,0,0,1,0,6.9l-2.021,2.021,1.8,1.8L20.2,50.735a7.426,7.426,0,0,0,0-10.5l-.219-.219a4.879,4.879,0,0,1,0-6.9Z" transform="translate(4.113 7.758)"/><path d="M15,13.095l-1.8-1.8-2.021,2.021a7.426,7.426,0,0,0,0,10.5l.219.219a4.879,4.879,0,0,1,0,6.9L9.373,32.954l1.8,1.8L13.2,32.735a7.426,7.426,0,0,0,0-10.5l-.219-.219a4.879,4.879,0,0,1,0-6.9Z" transform="translate(2.194 2.822)"/><path d="M56,13.095l-1.8-1.8-2.021,2.021a7.426,7.426,0,0,0,0,10.5l.219.219a4.879,4.879,0,0,1,0,6.9l-2.021,2.021,1.8,1.8L54.2,32.735a7.426,7.426,0,0,0,0-10.5l-.219-.219a4.879,4.879,0,0,1,0-6.9Z" transform="translate(13.435 2.822)"/><path d="M49,31.095l-1.8-1.8-2.021,2.021a7.426,7.426,0,0,0,0,10.5l.219.219a4.879,4.879,0,0,1,0,6.9l-2.021,2.021,1.8,1.8L47.2,50.735a7.426,7.426,0,0,0,0-10.5l-.219-.219a4.879,4.879,0,0,1,0-6.9Z" transform="translate(11.516 7.758)"/><path d="M79.626,63.808l-8.919-8.919a1.273,1.273,0,0,0-1.8,0L57.91,65.884a5.9,5.9,0,0,0-2.445-1.972l-6.046-2.59v-.434a1.289,1.289,0,0,0-.09-.474l-2.375-5.938,2.4-7.2a1.266,1.266,0,0,0,.041-.654L48.17,40.5l1.224-6.121a1.37,1.37,0,0,0,.024-.25V2.274A1.274,1.274,0,0,0,48.145,1H32.855a1.274,1.274,0,0,0-1.274,1.274V34.129a1.268,1.268,0,0,0,.025.25L32.829,40.5,31.6,46.621a1.279,1.279,0,0,0,.041.654l2.4,7.2-2.375,5.938a1.278,1.278,0,0,0-.09.473v.434l-6.046,2.592a5.889,5.889,0,0,0-2.444,1.972l-11-11a1.273,1.273,0,0,0-1.8,0L1.373,63.808a1.273,1.273,0,0,0,0,1.8l6.876,6.875-2.454.46A5.884,5.884,0,0,0,1,78.725,1.274,1.274,0,0,0,2.274,80H78.725A1.274,1.274,0,0,0,80,78.725a5.884,5.884,0,0,0-4.8-5.78l-2.454-.46,6.876-6.875a1.272,1.272,0,0,0,0-1.8ZM46.83,46.789l-2.441,7.324a1.273,1.273,0,0,0,.025.877l2.457,6.142v2.3H34.129v-2.3l2.458-6.143a1.273,1.273,0,0,0,.025-.877l-2.441-7.324,1.208-6.038a1.274,1.274,0,0,0,0-.5L34.129,34V26.484H46.871V34L45.622,40.25a1.274,1.274,0,0,0,0,.5ZM34.129,3.548H46.871V23.935H34.129ZM4.076,64.709l7.118-7.118L21.958,68.356a3.316,3.316,0,0,1-2.434,2.017l-8.239,1.544ZM77.2,77.451H3.8a3.338,3.338,0,0,1,2.466-2l13.727-2.574a5.9,5.9,0,0,0,4.625-4.369,3.347,3.347,0,0,1,1.919-2.254l5.043-2.161v.617a1.274,1.274,0,0,0,1.274,1.274h15.29a1.274,1.274,0,0,0,1.274-1.274v-.617l5.043,2.161a3.359,3.359,0,0,1,1.924,2.269,5.9,5.9,0,0,0,4.62,4.354l13.727,2.574a3.338,3.338,0,0,1,2.466,2Zm-7.483-5.534-8.239-1.544a3.313,3.313,0,0,1-2.432-2.018L69.806,57.592l7.118,7.118Z" transform="translate(0 0)"/></g></g></svg>