<svg xmlns="http://www.w3.org/2000/svg" width="157" height="157" viewBox="0 0 157 157"><g transform="translate(37 7)"><g transform="translate(2.8 2.8)"><path d="M229.373,99.213a5.6,5.6,0,0,0,7.92,7.92l3.96-3.96,3.96,3.96a5.6,5.6,0,1,0,7.92-7.92l-3.96-3.96,3.96-3.96a5.6,5.6,0,0,0-7.92-7.92l-3.96,3.96-3.96-3.96a5.6,5.6,0,1,0-7.92,7.92l3.96,3.96Z" transform="translate(-196.452 -61.653)" fill="#fff" fill-rule="evenodd"/><path d="M177.72,55.479a5.616,5.616,0,0,1,0-7.92l3.96-3.96-3.96-3.96a5.6,5.6,0,1,1,7.92-7.92l3.96,3.96,3.96-3.96a5.6,5.6,0,0,1,7.92,7.92l-3.96,3.96,3.96,3.96a5.6,5.6,0,0,1-7.92,7.92l-3.96-3.96-3.96,3.96A5.617,5.617,0,0,1,177.72,55.479ZM189.6,10a33.6,33.6,0,1,0,33.6,33.6A33.6,33.6,0,0,0,189.6,10Z" transform="translate(-144.8 -10)" fill="#ff5d7d" fill-rule="evenodd"/><path d="M259.731,248.472a33.788,33.788,0,0,1-6.327-.595v20.539h12.654V247.877A33.788,33.788,0,0,1,259.731,248.472Z" transform="translate(-214.931 -181.271)" fill="#6d91ac" fill-rule="evenodd"/><path d="M167.127,313.9H154.473v-2.85h-3.265a26.644,26.644,0,0,0-20.312,9.386H116l.02,34.693h14.889a26.7,26.7,0,0,0,20.3,9.386h28.7a6.327,6.327,0,0,0,0-12.654h4.313a6.327,6.327,0,0,0,0-12.654h2.4a6.327,6.327,0,0,0,0-12.654h-4.559a6.327,6.327,0,1,0,0-12.654H167.127Z" transform="translate(-116 -226.758)" fill="#ffdcd5" fill-rule="evenodd"/></g><path d="M220.186,101.9a8.41,8.41,0,0,0,11.88,0l1.98-1.98,1.98,1.98A8.4,8.4,0,1,0,247.9,90.025l-1.98-1.98,1.98-1.98a8.4,8.4,0,0,0-11.88-11.88l-1.98,1.98-1.98-1.98a8.4,8.4,0,0,0-11.879,11.88l1.98,1.98-1.98,1.98a8.41,8.41,0,0,0,0,11.88Zm7.92-15.839-3.96-3.96a2.8,2.8,0,0,1,3.96-3.96l3.96,3.96a2.8,2.8,0,0,0,3.96,0l3.96-3.96a2.8,2.8,0,0,1,3.96,3.96l-3.96,3.96a2.8,2.8,0,0,0,0,3.96l3.96,3.96a2.8,2.8,0,0,1-3.96,3.96l-3.96-3.96a2.8,2.8,0,0,0-3.96,0l-3.96,3.96a2.8,2.8,0,0,1-3.96-3.96l3.96-3.96a2.8,2.8,0,0,0,0-3.96Z" transform="translate(-186.445 -51.645)"/><path d="M188.551,108.926a9.141,9.141,0,0,0-5.6-8.418,9.125,9.125,0,0,0-8.084-13.362H162.727v-15.5a36.4,36.4,0,1,0-23.58-68.656,2.8,2.8,0,1,0,2.225,5.139,30.781,30.781,0,1,1-16.049,16.051,2.8,2.8,0,1,0-5.139-2.226,36.42,36.42,0,0,0,24.288,49.692V84.295h-.465a29.464,29.464,0,0,0-21.565,9.386H108.8a2.8,2.8,0,0,0-2.8,2.8l.02,34.693a2.8,2.8,0,0,0,2.8,2.8h13.638a29.494,29.494,0,0,0,21.55,9.386h28.7a9.125,9.125,0,0,0,8.037-13.449,9.122,9.122,0,0,0,3.826-13.453A9.123,9.123,0,0,0,188.551,108.926ZM153.6,72.8c1.19,0,2.366-.059,3.527-.171V87.145h-7.054V72.629C151.234,72.741,152.41,72.8,153.6,72.8Zm25.824,39.652h-2.4a2.8,2.8,0,1,0,0,5.6,3.527,3.527,0,0,1,0,7.054h-4.313a2.8,2.8,0,0,0,0,5.6,3.527,3.527,0,0,1,0,7.054h-28.7a23.923,23.923,0,0,1-18.173-8.408,2.8,2.8,0,0,0-2.127-.979H111.618L111.6,99.282H123.7a2.8,2.8,0,0,0,2.13-.982,23.884,23.884,0,0,1,18.183-8.4h.465v.05a2.8,2.8,0,0,0,2.8,2.8h27.592a3.527,3.527,0,1,1,0,7.054,2.8,2.8,0,1,0,0,5.6h4.559a3.527,3.527,0,1,1,0,7.053Z" transform="translate(-106 0)"/><path d="M183.942,40.747a2.8,2.8,0,1,0-2.062-4.693v0a2.8,2.8,0,0,0,2.064,4.691Z" transform="translate(-160.103 -25.306)"/></g><rect width="157" height="157" fill="none"/></svg>