<svg xmlns="http://www.w3.org/2000/svg" width="94" height="94" viewBox="0 0 94 94"><g transform="translate(-196 -1184)"><rect width="94" height="94" transform="translate(196 1184)" fill="none"/><g transform="translate(-145.26 1156.869)"><g transform="translate(357.038 37.711)"><path d="M436.938,41.505a6.614,6.614,0,0,1-1.3,1.3,6.609,6.609,0,0,1,1.3,1.3,6.587,6.587,0,0,1,1.3-1.3A6.592,6.592,0,0,1,436.938,41.505Z" transform="translate(-373.198 -38.908)" fill="#f5b7b1"/><path d="M404.939,62.063V55.91h-1.3v3.9A2.6,2.6,0,0,0,404.939,62.063Z" transform="translate(-367.214 -41.602)" fill="#f5b7b1"/><path d="M360.138,78.305a6.613,6.613,0,0,1-1.3,1.3,6.609,6.609,0,0,1,1.3,1.3,6.588,6.588,0,0,1,1.3-1.3A6.592,6.592,0,0,1,360.138,78.305Z" transform="translate(-358.833 -45.791)" fill="#f5b7b1"/><path d="M387.039,59.122a2.6,2.6,0,0,0,2.6-2.6V51.9c-.028-.015-.052-.037-.078-.052a4.724,4.724,0,0,1-.41-.274c-.11-.081-.211-.169-.312-.258a5.325,5.325,0,0,1-.467-.461,5.014,5.014,0,0,1-.319-.387c-.077-.106-.149-.211-.217-.322a5.138,5.138,0,0,1-.29-.534c-.045-.1-.091-.188-.129-.285a5.266,5.266,0,0,1-.23-.74c-.02-.086-.037-.172-.053-.259a4.845,4.845,0,0,1-.1-.917,5.1,5.1,0,0,1,.092-.916c.016-.087.033-.173.054-.259a5.247,5.247,0,0,1,.23-.741c.039-.1.085-.189.129-.283a5.376,5.376,0,0,1,.289-.535c.069-.111.141-.217.216-.321.1-.136.21-.264.321-.39a4.951,4.951,0,0,1,.466-.458c.1-.089.2-.177.314-.259.133-.1.269-.189.41-.274.027-.017.05-.037.078-.052V40.911a2.6,2.6,0,1,0-5.2,0V56.52A2.608,2.608,0,0,0,387.039,59.122Z" transform="translate(-363.622 -38.31)" fill="#f5b7b1"/><path d="M408.841,40.911a2.6,2.6,0,1,0-5.2,0v1.3h5.2Z" transform="translate(-367.214 -38.31)" fill="#f5b7b1"/><path d="M399.241,40.911a2.6,2.6,0,1,0-5.2,0v1.3h5.2Z" transform="translate(-365.418 -38.31)" fill="#f5b7b1"/><path d="M377.439,59.122a2.6,2.6,0,0,0,2.6-2.6V40.911a2.6,2.6,0,1,0-5.2,0V56.52A2.6,2.6,0,0,0,377.439,59.122Z" transform="translate(-361.827 -38.31)" fill="#f5b7b1"/><path d="M399.241,59.812v-3.9h-5.2v3.9a2.6,2.6,0,1,0,5.2,0Z" transform="translate(-365.418 -41.602)" fill="#f5b7b1"/></g><path d="M406.654,100.71H378.038v5.2h28.616Z" transform="translate(-5.387 -12.27)" fill="#fff"/><path d="M407.649,76.308l3.609-23.593v-1.2a5.208,5.208,0,0,0-5.2-5.2H390.447a2.592,2.592,0,0,0-.845.152.128.128,0,0,0-.02.011,2.615,2.615,0,0,0-1.586,1.6c-.013.039-.024.078-.036.117a2.333,2.333,0,0,0,0,1.445c.011.039.023.078.036.117a2.613,2.613,0,0,0,1.586,1.6.128.128,0,0,1,.02.011,2.635,2.635,0,0,0,.845.151h10.406a1.3,1.3,0,0,1,1.3,1.3v9.105a1.3,1.3,0,0,1-.1.478,1.164,1.164,0,0,1-.089.154,1.282,1.282,0,0,1-.126.215l-3.807,4.442a15.3,15.3,0,0,0-3.685,9.959v2.962h-2.6V77.166a17.918,17.918,0,0,1,4.31-11.653l2.461-2.872a5.181,5.181,0,0,1-1.568-1.22,5.133,5.133,0,0,1-7.8,0,5.133,5.133,0,0,1-7.8,0,5.1,5.1,0,0,1-6.5,1.075V75.149a7.953,7.953,0,0,0,2.348,5.491,10.128,10.128,0,0,1,2.855,7.069v.223h23.413v-.942a10.246,10.246,0,0,1,2.036-6.109l.7-.928A7.584,7.584,0,0,0,407.649,76.308Z" transform="translate(-4.788 -2.095)" fill="#f5b7b1"/><rect width="31.217" height="14.308" transform="translate(371.35 96.243)" fill="#00357b"/><g transform="translate(349.238 35.11)"><path d="M406.973,80.347l.7-.928a10.147,10.147,0,0,0,1.958-4.855l3.618-23.65a1.44,1.44,0,0,0,.015-.2v-1.3a7.812,7.812,0,0,0-7.8-7.8v-1.3a5.181,5.181,0,0,0-9.105-3.405,5.134,5.134,0,0,0-7.8,0,5.134,5.134,0,0,0-7.8,0,5.181,5.181,0,0,0-9.105,3.405v32.74a10.534,10.534,0,0,0,3.077,7.3,7.553,7.553,0,0,1,2.126,5.265v.223h-1.3a1.3,1.3,0,0,0-1.3,1.3v6.5a1.3,1.3,0,0,0-1.3,1.3v16.909a1.3,1.3,0,0,0,1.3,1.3h33.819a1.3,1.3,0,0,0,1.3-1.3V94.943a1.3,1.3,0,0,0-1.3-1.3v-6.5a1.3,1.3,0,0,0-1.3-1.3h-1.3V84.9A7.624,7.624,0,0,1,406.973,80.347Zm-6.719-42.636a2.6,2.6,0,0,1,2.6,2.6v1.3h-5.2v-1.3A2.6,2.6,0,0,1,400.254,37.711Zm-7.8,0a2.6,2.6,0,0,1,2.6,2.6v1.3h-5.2v-1.3A2.6,2.6,0,0,1,392.45,37.711Zm6.5,14.308v6.153a2.6,2.6,0,0,1-1.3-2.251v-3.9Zm-3.9,3.9a2.6,2.6,0,1,1-5.2,0v-3.9h5.2Zm-10.406-18.21a2.6,2.6,0,0,1,2.6,2.6v2.014c-.028.015-.052.037-.078.052a4.731,4.731,0,0,0-.41.275c-.11.08-.211.169-.314.259a5.5,5.5,0,0,0-.466.458,4.905,4.905,0,0,0-.321.39c-.076.1-.148.211-.215.321a5.15,5.15,0,0,0-.29.535c-.045.1-.091.187-.129.284a5.266,5.266,0,0,0-.23.74c-.02.086-.037.172-.053.259a4.838,4.838,0,0,0-.1.917,5.093,5.093,0,0,0,.092.915c.016.087.033.173.054.259a5.247,5.247,0,0,0,.23.741c.039.1.085.189.129.285a5.376,5.376,0,0,0,.289.535c.069.111.141.217.218.321.1.135.208.263.319.388a5.094,5.094,0,0,0,.467.46c.1.089.2.177.312.258.133.1.269.189.41.275.027.016.05.036.078.052v4.618a2.6,2.6,0,0,1-5.2,0V40.313A2.607,2.607,0,0,1,384.645,37.711Zm-10.406,2.6a2.6,2.6,0,1,1,5.2,0V55.922a2.6,2.6,0,1,1-5.2,0Zm32.518,70.239H375.54V96.244h31.217ZM376.841,93.642v-5.2h28.616v5.2Zm2.6-7.8v-.223a10.135,10.135,0,0,0-2.855-7.071,7.947,7.947,0,0,1-2.348-5.491V60.4a5.094,5.094,0,0,0,6.5-1.073,5.133,5.133,0,0,0,7.8,0,5.133,5.133,0,0,0,7.8,0,5.221,5.221,0,0,0,1.568,1.22l-2.461,2.872a17.918,17.918,0,0,0-4.31,11.653v2.962h2.6V75.071a15.308,15.308,0,0,1,3.685-9.959l3.807-4.442a1.293,1.293,0,0,0,.126-.215,1.071,1.071,0,0,0,.089-.154,1.3,1.3,0,0,0,.1-.478V50.719a1.3,1.3,0,0,0-1.3-1.3H389.848a2.592,2.592,0,0,1-.845-.153.128.128,0,0,1-.02-.011,2.614,2.614,0,0,1-1.586-1.6c-.013-.039-.024-.078-.036-.117a2.336,2.336,0,0,1,0-1.445c.011-.039.023-.078.036-.117a2.612,2.612,0,0,1,1.586-1.6c.007,0,.013-.008.02-.012a2.635,2.635,0,0,1,.845-.15h15.609a5.208,5.208,0,0,1,5.2,5.2v1.2l-3.609,23.593a7.588,7.588,0,0,1-1.462,3.645l-.7.928a10.247,10.247,0,0,0-2.036,6.109v.942Z" transform="translate(-353.428 -35.11)" fill="#232323"/><rect width="2.601" height="2.601" transform="translate(63.735 14.308)" fill="#232323"/><path d="M429.641,69.515v-3.9h2.6v-2.6h-2.6v-3.9h-2.6v3.9h-2.6v2.6h2.6v3.9Z" transform="translate(-363.304 -39.599)" fill="#232323"/><rect width="2.601" height="2.601" transform="translate(72.84 31.217)" fill="#232323"/><path d="M440.841,79.91h-2.6v3.9h-2.6v2.6h2.6v3.9h2.6v-3.9h2.6v-2.6h-2.6Z" transform="translate(-365.399 -43.489)" fill="#232323"/><path d="M440.944,40.313a3.907,3.907,0,0,1-3.9-3.9,1.3,1.3,0,0,0-2.6,0,3.907,3.907,0,0,1-3.9,3.9,1.3,1.3,0,0,0,0,2.6,3.907,3.907,0,0,1,3.9,3.9,1.3,1.3,0,0,0,2.6,0,3.906,3.906,0,0,1,3.9-3.9,1.3,1.3,0,1,0,0-2.6Zm-5.2,2.6a6.609,6.609,0,0,0-1.3-1.3,6.614,6.614,0,0,0,1.3-1.3,6.593,6.593,0,0,0,1.3,1.3A6.588,6.588,0,0,0,435.742,42.918Z" transform="translate(-364.202 -35.11)" fill="#232323"/><path d="M360.242,73.211a1.3,1.3,0,1,0-2.6,0,3.907,3.907,0,0,1-3.9,3.9,1.3,1.3,0,1,0,0,2.6,3.907,3.907,0,0,1,3.9,3.9,1.3,1.3,0,1,0,2.6,0,3.906,3.906,0,0,1,3.9-3.9,1.3,1.3,0,0,0,0-2.6A3.907,3.907,0,0,1,360.242,73.211Zm-1.3,6.507a6.609,6.609,0,0,0-1.3-1.3,6.613,6.613,0,0,0,1.3-1.3,6.592,6.592,0,0,0,1.3,1.3A6.588,6.588,0,0,0,358.942,79.718Z" transform="translate(-349.836 -41.993)" fill="#232323"/><rect width="2.601" height="2.601" transform="translate(2.601)" fill="#232323"/><path d="M351.839,51.915h2.6v-3.9h2.6v-2.6h-2.6v-3.9h-2.6v3.9h-2.6v2.6h2.6Z" transform="translate(-349.238 -36.307)" fill="#232323"/></g></g></g></svg>