<svg xmlns="http://www.w3.org/2000/svg" width="94" height="94" viewBox="0 0 94 94"><g transform="translate(-196 -1184)"><rect width="94" height="94" transform="translate(196 1184)" fill="none"/><g transform="translate(213 1189)"><path d="M18.757,143.8H7.89a.39.39,0,0,1-.39-.39v-6.268a.39.39,0,0,1,.39-.39H18.757Zm0,0" transform="translate(-6.279 -114.493)" fill="#ffa726"/><path d="M275.2,144.86h3.571a.471.471,0,0,0,.47-.471v-5.594a.471.471,0,0,0-.47-.471H275.2Zm0,0" transform="translate(-230.405 -115.81)" fill="#ef5350"/><path d="M154.162,143.8H130.774V136.75h23.388a.117.117,0,0,1,.118.118v6.814A.118.118,0,0,1,154.162,143.8Zm0,0" transform="translate(-109.489 -114.493)" fill="#cfd8dc"/><path d="M18.757,160.059H7.5v2.865a.39.39,0,0,0,.39.39H18.757Zm0,0" transform="translate(-6.279 -134.008)" fill="#f57c00"/><path d="M154.162,136.746h-6.393V137.9a2.64,2.64,0,0,1-2.64,2.64H130.774V143.8h23.388a.118.118,0,0,0,.118-.118v-6.814a.118.118,0,0,0-.118-.118Zm0,0" transform="translate(-109.489 -114.489)" fill="#90a4ae"/><path d="M66.614,148.1a10.966,10.966,0,0,0-8.79,17.519A22.01,22.01,0,0,1,22.6,148.02v-7.361a4.4,4.4,0,0,1,4.4-4.4h4.4V109.409a4.4,4.4,0,0,1,8.8,0v7.814h8.8v4.089h4.4a4.4,4.4,0,0,1,4.4,4.4v0h4.4a4.4,4.4,0,0,1,4.4,4.4Zm0,0" transform="translate(-18.92 -87.917)" fill="#f5b7b1"/><path d="M248.46,251.277a22,22,0,0,1-.89,6.21,10.925,10.925,0,0,1,7.4-2.875V236.628a4.4,4.4,0,0,0-4.4-4.4H248.46Zm0,0" transform="translate(-207.276 -194.429)" fill="#f1aaa3"/><path d="M102.245,431.495a10.955,10.955,0,0,1,.055-1.1,22.036,22.036,0,0,1-24.05,7.847,22.013,22.013,0,0,0,26.169-.2,10.915,10.915,0,0,1-2.174-6.555Zm0,0" transform="translate(-65.515 -360.347)" fill="#f1aaa3"/><path d="M139.577,102V99.648a4.4,4.4,0,0,0-8.8,0V102Zm0,0" transform="translate(-109.489 -79.744)" fill="#ffab91"/><path d="M225.676,380.734A10.964,10.964,0,1,0,236.64,369.77,10.964,10.964,0,0,0,225.676,380.734Zm0,0" transform="translate(-188.945 -309.586)" fill="#ef5350"/><path d="M253.879,370.309A10.961,10.961,0,0,1,246,388.895a11.049,11.049,0,0,1-1.368-.088,10.963,10.963,0,1,0,9.247-18.5Zm0,0" transform="translate(-204.816 -310.038)" fill="#d32f2f"/><path d="M268.619,403.37l-1.923-1.923a.714.714,0,0,0-1.01,0l-2.493,2.493a.294.294,0,0,1-.414,0l-2.493-2.493a.714.714,0,0,0-1.01,0l-1.923,1.923a.714.714,0,0,0,0,1.01l2.493,2.493a.294.294,0,0,1,0,.414l-2.493,2.493a.714.714,0,0,0,0,1.01l1.923,1.923a.714.714,0,0,0,1.01,0l2.493-2.493a.292.292,0,0,1,.414,0l2.493,2.493a.714.714,0,0,0,1.01,0l1.923-1.923a.714.714,0,0,0,0-1.01l-2.493-2.493a.292.292,0,0,1,0-.414l2.493-2.493A.715.715,0,0,0,268.619,403.37Zm0,0" transform="translate(-215.291 -335.932)" fill="#fff"/><path d="M107.2,12.167h22.589a2.448,2.448,0,0,1,2.445,2.445v3.813a1.221,1.221,0,1,0,2.441,0V14.611a4.892,4.892,0,0,0-4.887-4.886H107.2a1.273,1.273,0,1,1,0-2.547h16.425a3.589,3.589,0,1,0,0-7.179h-2.01a1.221,1.221,0,0,0,0,2.441h2.01a1.148,1.148,0,1,1,0,2.3H107.2a3.715,3.715,0,1,0,0,7.43Zm0,0" transform="translate(-86.638)"/><path d="M120.463,2.441h8.62a1.221,1.221,0,1,0,0-2.441h-8.62a1.221,1.221,0,0,0,0,2.441Zm0,0" transform="translate(-99.834 0)"/><path d="M48.915,132.489V115.664a5.629,5.629,0,0,0-5.622-5.622H39.979a5.634,5.634,0,0,0-5.489-4.4H31.309v-1.647h3.119a1.221,1.221,0,1,0,0-2.441H22.505V96.942H43.57v4.608H40.124a1.221,1.221,0,1,0,0,2.441h4.549a1.329,1.329,0,0,0,.785-.257h2.9a1.694,1.694,0,0,0,1.692-1.692V96.45a1.694,1.694,0,0,0-1.692-1.692h-2.9a1.332,1.332,0,0,0-.785-.257H31.309V93.369A5.621,5.621,0,0,0,20.68,90.815a5.618,5.618,0,0,0-9.4,3.686H1.611A1.613,1.613,0,0,0,0,96.113v6.268a1.613,1.613,0,0,0,1.611,1.611H11.26v9.07a1.221,1.221,0,1,0,2.441,0v-18.1a3.181,3.181,0,0,1,6.362,0v25.579a1.221,1.221,0,1,0,2.441,0V103.992h6.362v16.545a1.221,1.221,0,1,0,2.441,0V108.081H34.49a3.184,3.184,0,0,1,3.181,3.181v9.275a1.221,1.221,0,1,0,2.441,0v-8.055h3.181a3.184,3.184,0,0,1,3.181,3.181v16.825a12.178,12.178,0,0,0-9.24,18.364A20.787,20.787,0,0,1,4.9,133.568v-7.361a3.184,3.184,0,0,1,3.181-3.181h3.181v4.13a1.221,1.221,0,1,0,2.441,0v-8.4a1.221,1.221,0,1,0-2.441,0v1.827H8.079a5.629,5.629,0,0,0-5.622,5.622v7.361A23.255,23.255,0,0,0,25.686,156.8a23.016,23.016,0,0,0,13.007-3.981,12.183,12.183,0,1,0,10.222-20.328Zm-1.3-31.2h-1.6V97.2h1.6Zm-36.354.257H2.441V96.943h8.816ZM25.686,90.188a3.185,3.185,0,0,1,3.181,3.181V94.5H22.505V93.369a3.185,3.185,0,0,1,3.181-3.181Zm22.009,64.169a9.744,9.744,0,1,1,9.744-9.744A9.755,9.755,0,0,1,47.695,154.357Zm0,0" transform="translate(0 -73.465)"/><path d="M258.54,407.295l-1.837-1.837-1.836,1.837a1.939,1.939,0,0,1-2.737,0l-1.923-1.924a1.934,1.934,0,0,1,0-2.736l1.837-1.837-1.837-1.837a1.934,1.934,0,0,1,0-2.736l1.923-1.923a1.934,1.934,0,0,1,2.736,0l1.837,1.837,1.837-1.837a1.934,1.934,0,0,1,2.736,0c2.078,2.078,1.924,1.907,1.924,1.924a1.937,1.937,0,0,1,0,2.736l-1.837,1.837,1.836,1.837a1.936,1.936,0,0,1,0,2.736l-1.923,1.924A1.934,1.934,0,0,1,258.54,407.295ZM252.292,404l1.207,1.207,2.135-2.135a1.516,1.516,0,0,1,2.14,0l2.135,2.135L261.116,404l-2.135-2.134a1.513,1.513,0,0,1,0-2.141l2.135-2.134-1.207-1.207-2.135,2.135a1.514,1.514,0,0,1-2.139,0l-2.136-2.135-1.207,1.207,2.135,2.135a1.512,1.512,0,0,1,0,2.14Zm0,0" transform="translate(-209.009 -329.65)"/></g></g></svg>