<svg xmlns="http://www.w3.org/2000/svg" width="94" height="94" viewBox="0 0 94 94"><g transform="translate(-253 -1413)"><rect width="94" height="94" transform="translate(253 1413)" fill="none"/><g transform="translate(256.238 1420.261)"><g transform="translate(5.926 1.164)"><path d="M62.906,129.433H22.85a10.59,10.59,0,0,1-10.59-10.59V71.1a10.59,10.59,0,0,1,10.59-10.59H62.906A10.59,10.59,0,0,1,73.5,71.1v47.741A10.59,10.59,0,0,1,62.906,129.433Z" transform="translate(-12.26 -52.283)" fill="#f4fbff"/><path d="M27.887,129.438H22.852a10.589,10.589,0,0,1-10.591-10.591V71.107A10.589,10.589,0,0,1,22.852,60.518h5.035A10.588,10.588,0,0,0,17.3,71.107v47.74a10.589,10.589,0,0,0,10.589,10.591Z" transform="translate(-12.261 -52.287)" fill="#e4f6ff"/><path d="M114.913,13.613a9.681,9.681,0,0,0-18,0H93.5a6.625,6.625,0,1,0,0,13.25h24.819a6.625,6.625,0,0,0,0-13.25Z" transform="translate(-75.296 -7.5)" fill="#ffe07d"/><path d="M109.068,8.026a9.7,9.7,0,0,0-5.844,5.584H99.813a6.625,6.625,0,0,0,0,13.251H93.5a6.625,6.625,0,1,1,0-13.251h3.409a9.683,9.683,0,0,1,12.157-5.584Z" transform="translate(-75.294 -7.497)" fill="#ffd064"/><circle cx="3.961" cy="3.961" r="3.961" transform="translate(26.656 5.721)" fill="#365e7d"/><g transform="translate(8.798 26.329)"><path d="M79.668,191.774H72.875a3.937,3.937,0,0,1-3.937-3.937v-6.793a3.937,3.937,0,0,1,3.937-3.937h6.793a3.937,3.937,0,0,1,3.937,3.937v6.793A3.937,3.937,0,0,1,79.668,191.774Z" transform="translate(-68.938 -177.108)" fill="#b3e59f"/></g><g transform="translate(8.798 48.497)"><path d="M79.668,334.58H72.875a3.937,3.937,0,0,1-3.937-3.937v-6.793a3.937,3.937,0,0,1,3.937-3.937h6.793a3.937,3.937,0,0,1,3.937,3.937v6.793A3.937,3.937,0,0,1,79.668,334.58Z" transform="translate(-68.938 -319.914)" fill="#b3e59f"/></g><g transform="translate(37.379 8.046)"><path d="M396.552,148.332a3.786,3.786,0,0,0,5.316-.642l8.075-10.291a3.787,3.787,0,0,0-5.958-4.675l-8.075,10.291A3.787,3.787,0,0,0,396.552,148.332Z" transform="translate(-373.052 -120.107)" fill="#80b4fb"/><path d="M262.606,303.638l-1.348,1.717a4.59,4.59,0,0,1-7.222-5.666l1.348-1.717,7.2-.624Z" transform="translate(-253.057 -260.4)" fill="#ffe07d"/><path d="M255.922,305.3a4.624,4.624,0,0,0,.532,1.659,4.59,4.59,0,0,1-2.422-7.269l1.347-1.717,7.2-.624.01,2.472-4.371.378-1.347,1.717A4.583,4.583,0,0,0,255.922,305.3Z" transform="translate(-253.053 -260.4)" fill="#ffd064"/><path d="M294.615,148.418l-19.348,24.661-7.221-5.666L287.359,142.8" transform="translate(-265.719 -129.84)" fill="#e27f83"/><path d="M290.232,144.978l-19.348,24.661-2.837-2.226L287.359,142.8" transform="translate(-265.719 -129.84)" fill="#c8646d"/><path d="M416.478,74.67l7.008-10.694a3,3,0,0,0-4.7-3.689l-8.719,9.351" transform="translate(-385.691 -59.332)" fill="#9dc6fb"/><path d="M422.836,59.969c-.115-.09-.405.061-.788.386a11.2,11.2,0,0,0-1.348,1.427l-8.023,9.9-2.6-2.044,8.718-9.35a3,3,0,0,1,4.045-.315Z" transform="translate(-385.698 -59.329)" fill="#80b4fb"/><path d="M396.079,128.06l-6.413-5.032a2.318,2.318,0,1,0-2.861,3.647l6.413,5.032a2.318,2.318,0,0,0,2.861-3.647Z" transform="translate(-365.292 -112.723)" fill="#9dc6fb"/><path d="M389.119,127.627a2.31,2.31,0,0,0,.871,1.545l-3.19-2.5a2.318,2.318,0,0,1,2.862-3.647l3.19,2.5a2.319,2.319,0,0,0-3.733,2.1Z" transform="translate(-365.288 -112.718)" fill="#80b4fb"/></g></g><g transform="translate(4.762)"><path d="M181.6,36.848a5.125,5.125,0,1,0,5.125,5.125A5.131,5.131,0,0,0,181.6,36.848Zm0,7.923a2.8,2.8,0,1,1,2.8-2.8A2.8,2.8,0,0,1,181.6,44.771Z" transform="translate(-149.823 -31.128)"/><path d="M66.539,186.6h6.793a5.107,5.107,0,0,0,5.1-5.1v-6.793a5.107,5.107,0,0,0-5.1-5.1H66.539a5.107,5.107,0,0,0-5.1,5.1V181.5A5.107,5.107,0,0,0,66.539,186.6Zm-2.772-11.894a2.776,2.776,0,0,1,2.772-2.772h6.793a2.775,2.775,0,0,1,2.772,2.772V181.5a2.776,2.776,0,0,1-2.772,2.772H66.539a2.776,2.776,0,0,1-2.772-2.772Z" transform="translate(-52.64 -143.279)"/><path d="M89.248,205.79a1.164,1.164,0,0,0,.9.424l.075,0a1.164,1.164,0,0,0,.911-.542l4.06-6.457a1.164,1.164,0,0,0-1.971-1.239l-3.2,5.092-1.688-2.048a1.164,1.164,0,1,0-1.8,1.481Z" transform="translate(-73.616 -166.781)"/><path d="M190.577,200.213h18.137a1.164,1.164,0,0,0,0-2.328H190.577a1.164,1.164,0,0,0,0,2.328Z" transform="translate(-160.749 -167.167)"/><path d="M190.577,238.137h9.068a1.164,1.164,0,0,0,0-2.328h-9.068a1.164,1.164,0,0,0,0,2.328Z" transform="translate(-160.749 -199.204)"/><path d="M61.438,324.308a5.107,5.107,0,0,0,5.1,5.1h6.793a5.107,5.107,0,0,0,5.1-5.1v-6.793a5.107,5.107,0,0,0-5.1-5.1H66.539a5.107,5.107,0,0,0-5.1,5.1Zm2.328-6.793a2.776,2.776,0,0,1,2.772-2.772h6.793a2.776,2.776,0,0,1,2.772,2.772v6.793a2.776,2.776,0,0,1-2.772,2.772H66.539a2.775,2.775,0,0,1-2.772-2.772Z" transform="translate(-52.64 -263.917)"/><path d="M89.248,348.6a1.164,1.164,0,0,0,.9.424l.075,0a1.164,1.164,0,0,0,.911-.542l4.06-6.457a1.164,1.164,0,0,0-1.971-1.239l-3.2,5.092-1.688-2.048a1.164,1.164,0,0,0-1.8,1.481Z" transform="translate(-73.616 -287.419)"/><path d="M199.646,380.943a1.164,1.164,0,1,0,0-2.328h-9.068a1.164,1.164,0,1,0,0,2.328Z" transform="translate(-160.749 -319.842)"/><path d="M80.273,20.27a4.952,4.952,0,0,0-1.465-.8l3.265-4.983a4.14,4.14,0,0,0-.912-5.557,4.161,4.161,0,0,0-5.615.435l-1.254,1.344a1.164,1.164,0,1,0,1.7,1.588l1.254-1.344a1.835,1.835,0,0,1,2.877,2.257l-6.312,9.633-4.419-3.467,3.427-3.675a1.164,1.164,0,0,0-1.7-1.588l-3.077,3.3A11.8,11.8,0,0,0,56.572,8.23H54.283a7.759,7.759,0,0,0-5.33-2.117H46.3a10.846,10.846,0,0,0-19.517,0H24.134A7.759,7.759,0,0,0,18.8,8.23H16.516A11.767,11.767,0,0,0,4.762,19.983V67.724A11.768,11.768,0,0,0,16.516,79.479h2.707a1.164,1.164,0,0,0,0-2.328H16.516a9.436,9.436,0,0,1-9.426-9.426V19.983a9.435,9.435,0,0,1,9.426-9.424H17.1a7.787,7.787,0,0,0,7.034,11.133H48.953a7.787,7.787,0,0,0,7.034-11.133h.585a9.465,9.465,0,0,1,9.19,7.337A3.477,3.477,0,0,0,63.044,22.7L43.369,47.781a5.717,5.717,0,0,0-1.186,4.241,5.841,5.841,0,0,0,.172.865H34.59a1.164,1.164,0,1,0,0,2.328h8.779l-.708.9a1.164,1.164,0,1,0,1.832,1.437l.839-1.07a5.692,5.692,0,0,0,2.552.6,5.828,5.828,0,0,0,.7-.042,5.717,5.717,0,0,0,3.837-2.161L65.676,37.991c.1.1.21.195.321.286V67.724a9.436,9.436,0,0,1-9.424,9.426H23.881a1.164,1.164,0,1,0,0,2.328H56.573A11.767,11.767,0,0,0,68.325,67.724V39.339a4.962,4.962,0,0,0,4.712-1.826l8.075-10.291a4.951,4.951,0,0,0-.839-6.952Zm-31.32-.907H24.134a5.461,5.461,0,1,1,0-10.922h3.41a1.164,1.164,0,0,0,1.082-.735,8.517,8.517,0,0,1,15.835,0,1.164,1.164,0,0,0,1.082.735h3.41a5.461,5.461,0,1,1,0,10.922ZM65.34,20.627a1.153,1.153,0,0,1,1.619-.2l6.413,5.032h0a1.154,1.154,0,1,1-1.424,1.815l-6.413-5.032a1.154,1.154,0,0,1-.2-1.62ZM52.656,50.813l-1.779-1.4L63.617,33.181a1.164,1.164,0,1,0-1.832-1.437L49.046,47.981l-1.779-1.4L64.61,24.48,70,28.709Zm-4.35,3.92A3.426,3.426,0,0,1,45.2,49.218l.629-.8,5.39,4.229-.629.8A3.4,3.4,0,0,1,48.306,54.734ZM79.28,25.784,71.206,36.076a2.614,2.614,0,0,1-4.075.061L72.1,29.806a3.48,3.48,0,0,0,3.458-5.368l1.891-2.886a2.624,2.624,0,0,1,1.834,4.232Z" transform="translate(-4.762)"/></g></g></g></svg>