<svg xmlns="http://www.w3.org/2000/svg" width="94" height="94" viewBox="0 0 94 94"><rect width="94" height="94" fill="none"/><g transform="translate(-7.503 4.119)"><g transform="translate(15.219 1.338)"><path d="M309.886,455.157c-.048,0-4.582-4.127-4.892-3.817s-15.753,0-15.753,0l-4.794,3.779v3.471a1.6,1.6,0,0,0,1.6,1.6h22.3a1.6,1.6,0,0,0,1.6-1.6v-3.439l-.048.006Z" transform="translate(-240.371 -377.02)" fill="#1976d2"/><circle cx="27.124" cy="27.124" r="27.124" transform="translate(12.076)" fill="#f9f7f8"/><path d="M164.126,122.468l14.117-15.488a9.92,9.92,0,0,0-.318-13.7l-.032-.034a9.922,9.922,0,0,0-14.03,0l-1.772,1.772-1.808-1.8A9.92,9.92,0,0,0,146,106.983l14.325,15.5a2.582,2.582,0,0,0,3.8-.013Z" transform="translate(-122.932 -76.528)" fill="#f98473"/><g transform="translate(20.43 13.802)"><path d="M153.29,106.988a9.922,9.922,0,0,1,3.639-15.961A9.92,9.92,0,0,0,146,106.988l14.325,15.5a2.582,2.582,0,0,0,3.8-.013l1.726-1.894Z" transform="translate(-143.362 -90.335)" fill="#ec5d49"/></g><g transform="translate(0 22.168)"><g transform="translate(0)"><path d="M53.621,191.266l-.007.042a2.711,2.711,0,0,0-.484-.042H33.385a2.73,2.73,0,0,0-.486.042l-.007-.042v-9.074l-9.92-12.107a6.655,6.655,0,0,1-1.51-4.224V144.308a4.059,4.059,0,0,1,8.112-.216l.8,14.992.027.035a3.34,3.34,0,0,1,4.136.079L51.92,173.437a4.641,4.641,0,0,1,1.7,3.593Z" transform="translate(-21.462 -140.249)" fill="#f5b7b1"/></g><path d="M36.706,181.862a7.956,7.956,0,0,0-1.8-5.042l-8.118-9.908a6.655,6.655,0,0,1-1.51-4.224V141.135a4.073,4.073,0,0,1,.093-.864,4.055,4.055,0,0,0-3.907,4.055V165.88a6.655,6.655,0,0,0,1.51,4.224l9.92,12.107v9.074l.007.042a2.731,2.731,0,0,1,.486-.042h3.321v-9.422Z" transform="translate(-21.462 -140.267)" fill="#f1aaa3"/><path d="M80.129,458.865l-4.657,2.57v3.523a1.505,1.505,0,0,0,1.505,1.505H99.454a1.505,1.505,0,0,0,1.505-1.505v-3.523l-2.64-2.57Z" transform="translate(-66.42 -405.465)" fill="#1976d2"/><g transform="translate(46.456)"><path d="M298.648,191.266l.007.042a2.711,2.711,0,0,1,.484-.042h19.745a2.73,2.73,0,0,1,.486.042l.007-.042v-9.074l9.92-12.107a6.655,6.655,0,0,0,1.51-4.224V144.308a4.059,4.059,0,0,0-8.112-.216l-.8,14.992-.027.035a3.34,3.34,0,0,0-4.136.079l-17.383,14.239a4.641,4.641,0,0,0-1.7,3.593Z" transform="translate(-298.648 -140.249)" fill="#f5b7b1"/></g><path d="M325.236,157.991a1.668,1.668,0,0,0,.658-1.24l.589-11.05a4.059,4.059,0,0,1,3.527-3.808,4.09,4.09,0,0,0-.392-.456,4.06,4.06,0,0,0-6.924,2.655l-.8,14.992-.027.035a3.34,3.34,0,0,0-4.136.079l-17.383,14.239a4.641,4.641,0,0,0-1.7,3.593v14.236l.007.042a2.711,2.711,0,0,1,.484-.042h3.3V178.639a4.641,4.641,0,0,1,1.7-3.593l17.383-14.239Z" transform="translate(-252.192 -140.249)" fill="#f1aaa3"/><g transform="translate(9.052 48.336)"><path d="M309.649,431.52v4.763H284.162V431.52a2.872,2.872,0,0,1,2.387-2.829,2.711,2.711,0,0,1,.484-.042h19.745a2.73,2.73,0,0,1,.486.042A2.87,2.87,0,0,1,309.649,431.52Z" transform="translate(-249.186 -428.649)" fill="#42a5f5"/><path d="M100.959,431.52v4.763H75.472V431.52a2.87,2.87,0,0,1,2.385-2.829,2.73,2.73,0,0,1,.486-.042H98.088a2.711,2.711,0,0,1,.484.042A2.872,2.872,0,0,1,100.959,431.52Z" transform="translate(-75.472 -428.649)" fill="#42a5f5"/></g></g></g><g transform="translate(13.962)"><path d="M89.728,132.75a5.315,5.315,0,0,0-5.308,5.032l-.707,13.24a4.586,4.586,0,0,0-3.8.96l-.52.426c.188-.348.371-.7.545-1.055a1.257,1.257,0,1,0-2.26-1.1,25.91,25.91,0,0,1-46.593,0,1.257,1.257,0,1,0-2.26,1.1c.116.239.239.475.362.71l-.1-.081a4.585,4.585,0,0,0-3.8-.96l-.707-13.24a5.316,5.316,0,0,0-10.623.283V159.62a7.943,7.943,0,0,0,1.794,5.021l2.853,3.482a1.257,1.257,0,0,0,1.944-1.594L17.7,163.047a5.422,5.422,0,0,1-1.225-3.427V138.066a2.8,2.8,0,0,1,5.6-.149l.772,14.452a4.6,4.6,0,0,0,.076,6.425l7.875,7.875a1.257,1.257,0,0,0,1.778-1.778L24.7,157.016a2.086,2.086,0,0,1,2.8-3.089l17.383,14.24a3.375,3.375,0,0,1,1.241,2.621v10.3H27.906V175.95a1.258,1.258,0,0,0-.285-.8l-3.671-4.48a1.257,1.257,0,0,0-1.944,1.594l3.387,4.133v5.077a4.133,4.133,0,0,0-2.379,3.738v9.792a1.257,1.257,0,1,0,2.514,0v-3.771H48.5v3.771a1.257,1.257,0,1,0,2.514,0v-9.792a4.132,4.132,0,0,0-2.379-3.738V170.788a5.881,5.881,0,0,0-2.162-4.565l-.013-.01a28.491,28.491,0,0,0,16.225-.117l-.155.127a5.881,5.881,0,0,0-2.162,4.565v10.689a4.133,4.133,0,0,0-2.379,3.738v9.792a1.257,1.257,0,1,0,2.514,0v-3.771H83.478v3.771a1.257,1.257,0,1,0,2.514,0v-9.792a4.133,4.133,0,0,0-2.379-3.738V176.4l9.636-11.759a7.942,7.942,0,0,0,1.794-5.021V138.066A5.322,5.322,0,0,0,89.728,132.75Zm-64.2,55.97v-3.507a1.616,1.616,0,0,1,1.614-1.614H46.887a1.615,1.615,0,0,1,1.614,1.614v3.507Zm67-29.1a5.422,5.422,0,0,1-1.225,3.427l-9.921,12.106a1.257,1.257,0,0,0-.285.8v5.136H78.568a1.257,1.257,0,0,0,0,2.514h3.3a1.616,1.616,0,0,1,1.614,1.614v3.507H60.505v-3.507a1.616,1.616,0,0,1,1.614-1.614H73.211a1.257,1.257,0,0,0,0-2.514H62.884v-10.3a3.375,3.375,0,0,1,1.241-2.621l17.383-14.24a2.086,2.086,0,0,1,2.8,3.089L76.43,164.89a1.257,1.257,0,0,0,1.778,1.778l7.875-7.875a4.6,4.6,0,0,0,.076-6.425l.771-14.452a2.8,2.8,0,0,1,5.6.149Z" transform="translate(-13.962 -110.501)"/><path d="M164.55,107.011a1.257,1.257,0,0,0,1.858,1.693l6.459-7.087a11.161,11.161,0,0,0-.358-15.433l-.033-.033a11.191,11.191,0,0,0-15.808,0l-.884.885-.919-.915a11.177,11.177,0,0,0-16.1,15.507l14.325,15.5a3.848,3.848,0,0,0,2.819,1.233h.013a3.849,3.849,0,0,0,2.824-1.253l4-4.387a1.257,1.257,0,1,0-1.858-1.694l-4,4.387a1.324,1.324,0,0,1-1.952.007l-14.325-15.5A8.663,8.663,0,0,1,153.092,87.9l1.807,1.8a1.257,1.257,0,0,0,1.776,0l1.772-1.772a8.674,8.674,0,0,1,12.252,0l.033.033a8.651,8.651,0,0,1,.277,11.962Z" transform="translate(-115.371 -68.982)"/><path d="M119.816,12.824a1.257,1.257,0,0,0,1.763-.226,25.9,25.9,0,0,1,41.021,0,1.257,1.257,0,1,0,1.99-1.537,28.415,28.415,0,0,0-45,0,1.257,1.257,0,0,0,.226,1.763Z" transform="translate(-101.668)"/><path d="M87.362,120.32a1.258,1.258,0,0,0,1.235-1.5,26.1,26.1,0,0,1-.488-5.023,25.779,25.779,0,0,1,1.8-9.506,1.257,1.257,0,1,0-2.338-.923,28.28,28.28,0,0,0-1.975,10.43,28.629,28.629,0,0,0,.535,5.508,1.257,1.257,0,0,0,1.232,1.015Z" transform="translate(-73.588 -85.381)"/><path d="M400.314,113.8a26.1,26.1,0,0,1-.488,5.023,1.257,1.257,0,1,0,2.467.485,28.633,28.633,0,0,0,.535-5.508,28.282,28.282,0,0,0-1.975-10.43,1.257,1.257,0,1,0-2.338.923A25.777,25.777,0,0,1,400.314,113.8Z" transform="translate(-333.99 -85.381)"/></g></g></svg>